<?xml version="1.0" encoding="utf-8"?>
<!-- Generator: Adobe Illustrator 19.0.0, SVG Export Plug-In . SVG Version: 6.00 Build 0)  -->
<svg version="1.1" id="Layer_1" xmlns="http://www.w3.org/2000/svg" xmlns:xlink="http://www.w3.org/1999/xlink" x="0px" y="0px"
	 width="500px" height="500px" viewBox="0 0 500 500" style="enable-background:new 0 0 500 500;" xml:space="preserve">
<style type="text/css">
	.Drop_x0020_Shadow{fill:none;}
	.Outer_x0020_Glow_x0020_5_x0020_pt{fill:none;}
	.Blue_x0020_Neon{fill:none;stroke:#8AACDA;stroke-width:7;stroke-linecap:round;stroke-linejoin:round;}
	.Chrome_x0020_Highlight{fill:url(#SVGID_1_);stroke:#FFFFFF;stroke-width:0.3629;stroke-miterlimit:1;}
	.Jive_GS{fill:#FFDD00;}
	.Alyssa_GS{fill:#A6D0E4;}
	.st0{fill:#FFFFFF;}
	.st1{fill:#D91F26;}
</style>
<linearGradient id="SVGID_1_" gradientUnits="userSpaceOnUse" x1="0" y1="0" x2="4.489659e-011" y2="-1">
	<stop  offset="0" style="stop-color:#656565"/>
	<stop  offset="0.618" style="stop-color:#1B1B1B"/>
	<stop  offset="0.6292" style="stop-color:#545454"/>
	<stop  offset="0.9831" style="stop-color:#3E3E3E"/>
</linearGradient>
<rect id="XMLID_10_" class="st0" width="500" height="500"/>
<g id="XMLID_11_">
	<path id="XMLID_19_" class="st1" d="M340.2,135.1c-18.6-22.5-42.8-35.8-71.6-40.7c-3.1-0.5-6.2-0.9-9.3-1.4c-6.1,0-12.3,0-18.4,0
		c-5.8,1-11.7,1.6-17.4,3.1c-46.3,12.2-75.8,41.5-88,87.7c-7,26.6-2.4,52.4,7.5,77.5c10.6,26.8,25.6,51,42.6,74.1
		c18.1,24.7,38.2,47.7,59.9,69.2c0.9,0.8,1.8,1.6,2.7,2.4c1.2,0,2.5,0,3.7,0c10.6-11.1,21.6-22,31.8-33.5c22-24.7,41.8-51,57.9-80
		c10.7-19.1,19.7-38.9,23.8-60.6C372.5,196.4,363.8,163.6,340.2,135.1z M250,294c-46,0-83.3-37.3-83.3-83.3
		c0-46,37.3-83.3,83.3-83.3s83.3,37.3,83.3,83.3C333.3,256.7,296,294,250,294z"/>
	<path id="XMLID_18_" class="st1" d="M303.2,244.5c0,7.6-14.1,14.1-33.9,16.7c-6,0.8-12.5,1.2-19.3,1.2c-6.7,0-13.1-0.4-19-1.2
		c-20-2.6-34.3-9.1-34.3-16.7v-16.5c-7.3,4.7-11.6,10.4-11.6,16.5c0,16,29,29,64.8,29s64.8-13,64.8-29c0-6.1-4.3-11.9-11.6-16.5
		V244.5z"/>
	<path id="XMLID_15_" class="st1" d="M200.8,210.5c0.2-0.7,0.3-1.3,0.5-1.7c0.7-1.7,1.6-1.3,2.5,0c2.2,3.2,4.4,12.2,4.4,12.2
		s0.1,0.5,0.5,1.1c0.9,1.5,3.2,3.5,8.2-1.9c0.3-0.3,0.6-0.6,0.9-0.9c2.1-1.9,4.1-2,5.7-1.3c3.2,1.3,5.1,5.7,5.1,5.7l1.6,4.1l3.7,9.5
		c0.5,1.3,1.4,2.4,2.6,3c2.1,1.1,5.3,1.1,8.6-5.8c1.3-2.8,2.5-5.5,3.6-7.9c3.4-7.5,6-12.3,10.3-7.3c2.7,3.1,5,5.9,6.7,8.1
		c1.9,2.5,3.1,4.1,3.1,4.1s3.3,5.7,5.6-2.9c0.1-0.3,0.1-0.5,0.2-0.8c0.9-3.7,2.6-6.8,4.4-9.2c2.9-3.9,6-6,6-6s3.9-3.1,7.5,3.4
		c1.9,3.5,6.3,5.9,10.1,7.5c0.2,0.1,0.4,0.2,0.7,0.3v-3.3v-11.6v-7.3v-2.6v-7.6c0-3.3-2.7-6.5-7.5-9.2c-5.2-2.9-12.9-5.3-22.1-6.9
		c0-2.6,0-5.2,0-7.8c0-2-1.2-3.1-3.2-3.2c-0.4,0-0.8,0-1.2,0c-2.1,0-3.2,1.1-3.3,3.2c0,2.2,0,4.5,0,6.7c-3.8-0.4-7.9-0.7-12-0.8
		c0-1.9,0-3.8,0-5.6c0-2.4-1.1-3.5-3.5-3.5c-0.2,0-0.4,0-0.6,0c-2.6,0-3.6,1-3.6,3.6c0,1.9,0,3.7,0,5.6c-4.2,0.1-8.2,0.4-12,0.8
		c0-2.2,0-4.4,0-6.6c0-2.2-1.1-3.3-3.3-3.3c-0.4,0-0.7,0-1.1,0c-2.2,0-3.3,1.2-3.3,3.4c0,2.5,0,5,0,7.5c-9.1,1.5-16.7,3.9-21.9,6.7
		c-4.9,2.7-7.8,5.9-7.8,9.3v6.4v5v6.2v2.2c0,0.6,0.2,1.2,0.4,1.8C198.3,214.8,199.7,215.4,200.8,210.5z M226.5,177.9
		c0,1.2,0,2.5,0,3.7c0,0.1,0,0.3,0,0.4h7.7c0-0.2,0-0.4,0-0.6c0-1.5,0-3,0-4.5c3.6-0.3,7.7-0.6,12-0.6c0,1.8,0,3.6,0,5.4
		c0,0.1,0,0.3,0,0.4h7.7c0-0.2,0-0.4,0-0.6c0-1.7,0-3.5,0-5.2c4.3,0.1,8.4,0.3,12,0.6c0,1.7,0,3.4,0,5.1h7.7c0-0.2,0-0.5,0-0.7
		c0-1.1,0-2.3,0-3.4c5.1,0.9,8.3,2.1,8.3,3.5c0,2.8-14.3,5.2-31.9,5.2s-31.9-2.3-31.9-5.2C218.1,180.1,221.3,178.8,226.5,177.9z"/>
	<path id="XMLID_14_" class="st1" d="M263,158.3c1.1,2.2,3.4,3.8,5.4,3.7c-0.2-0.2-0.4-0.3-0.6-0.5c-0.8-0.7-1.4-1.5-1.9-2.3
		c-1.2-2.3-0.9-4.9,1.1-7.4c1-1.3,2-2.5,3-3.8c0.1,0,0.2,0,0.2,0c-0.1,0.6-0.2,1.3-0.4,1.9c-0.2,0.6-0.5,1.2-0.6,1.8
		c-0.2,1.1,0.4,2.1,1.3,2.4c1.1,0.3,1.7-0.3,2-1.4c1,1,1.4,2.1,1.5,3.3c0.1,2.3-1.1,3.8-2.7,5.3c-0.3,0.3-0.6,0.6-0.9,0.8
		c0.6-0.1,1.1-0.3,1.6-0.6c2.7-1.3,4.4-4,4.4-7.3c0-5.4-2.6-9.7-6.5-13.2c-0.5-0.5-1.2-0.7-2-1c0,0.4,0,0.6,0,0.8
		c0.4,2.6-0.4,4.9-1.9,7.1c-0.8,1.2-1.8,2.4-2.6,3.7c-1.1,1.7-1.4,3.5-1,5.5C262.6,157.4,262.8,157.9,263,158.3z"/>
	<path id="XMLID_13_" class="st1" d="M227.7,161.7c0.5,0.2,1.1,0.3,1.7,0.3c-0.3-0.3-0.5-0.5-0.7-0.8c-0.2-0.2-0.5-0.5-0.7-0.7
		c-1.9-2.2-2.3-4.9-0.9-7.2c1.2-1.9,2.7-3.6,4.2-5.6c0,0.4,0.2,0.7,0.1,0.9c-0.2,0.8-0.6,1.6-0.8,2.3c-0.4,1.3,0,2.5,0.9,2.9
		c0.3,0.1,0.8,0.2,1.1,0.1c0.5-0.2,1-0.6,1.6-1c1,1.2,1.5,3,0.7,4.8c-0.2,0.5-0.5,1-0.8,1.5c-0.6,1-1.4,1.9-2,2.7
		c2-0.5,3.5-1.8,4.4-3.4c1-1.7,1.4-3.8,1.2-5.8c-0.5-4.3-2.5-7.9-5.5-11c-0.7-0.8-1.8-1.3-2.7-1.9c-0.1,0.1-0.2,0.1-0.4,0.2
		c0.7,3.5-0.8,6.3-2.8,8.9c-0.4,0.6-0.9,1.1-1.3,1.7c-0.6,1.1-1.2,2.2-1.5,3.3C222.8,157.3,224.9,160.7,227.7,161.7z"/>
	<path id="XMLID_12_" class="st1" d="M248.9,162c-0.3-0.3-0.6-0.6-0.9-0.9c-1.2-1.3-1.9-2.7-2.1-4.1c-0.2-1.3,0.1-2.7,0.9-3.9
		c1.2-1.8,2.6-3.4,3.9-5.1c0.1,0.6,0.1,1.2-0.1,1.7c-0.2,0.6-0.5,1.2-0.7,1.8c-0.3,1.2,0.3,2.3,1.2,2.6c1.1,0.4,1.8-0.2,2.1-1.3
		c1.3,1.3,1.7,2.7,1.3,4.3c-0.4,1.5-1.5,3.1-3.5,5.1c2.7-0.7,4.6-2.5,5.5-4.9c0.3-0.7,0.4-1.5,0.5-2.4c0.3-5.6-2.3-10.1-6.3-13.8
		c-0.5-0.5-1.3-0.7-2.2-1.1c0.6,2.9-0.1,5.3-1.5,7.4c-0.8,1.2-1.6,2.3-2.4,3.4c-1,1.3-1.6,2.8-1.7,4.5c0,0.7,0.1,1.4,0.3,2.1
		C243.9,159.9,246.3,162,248.9,162z"/>
</g>
</svg>
