<?xml version="1.0" encoding="utf-8"?>
<!-- Generator: Adobe Illustrator 19.0.0, SVG Export Plug-In . SVG Version: 6.00 Build 0)  -->
<svg version="1.1" id="Layer_1" xmlns="http://www.w3.org/2000/svg" xmlns:xlink="http://www.w3.org/1999/xlink" x="0px" y="0px"
	 width="143px" height="148px" viewBox="0 0 143 148" style="enable-background:new 0 0 143 148;" xml:space="preserve">
<style type="text/css">
	.st0{fill:#EF9D45;}
	.st1{fill:#BCBCBC;}
	.st2{fill:#F4A045;}
	.st3{fill:#FFFFFF;}
	.st4{fill:#F39F45;}
	.st5{fill:#FEFEFE;}
	.st6{fill:#FDFDFD;}
	.st7{fill:#F29F45;}
	.st8{fill:#F29E45;}
	.st9{fill:#FAFAFA;}
	.st10{fill:#FCFCFC;}
	.st11{fill:#FDFDFC;}
	.st12{fill:#F19E44;}
	.st13{fill:#E89942;}
	.st14{fill:#F7F7F7;}
	.st15{fill:#F6F6F6;}
	.st16{fill:#EBEAE9;}
	.st17{fill:#301F0D;}
	.st18{fill:#ACACAB;}
	.st19{fill:#33210E;}
	.st20{fill:#010100;}
	.st21{fill:#141312;}
	.st22{fill:#1E1914;}
	.st23{fill:#D98F3E;}
	.st24{fill:#CE883C;}
	.st25{fill:#6B4926;}
	.st26{fill:#8B5B27;}
	.st27{fill:#020202;}
	.st28{fill:#E29541;}
	.st29{fill:#A87033;}
	.st30{fill:#C7833A;}
	.st31{fill:#DE9240;}
	.st32{fill:#A76F34;}
</style>
<g>
	<path id="XMLID_68_" d="M26.6,35.8c0.4-0.5,0.7-1.1,1.2-1.6c2.9-3.7,6.2-7,9.7-10c6.2-5.2,13.1-9,20.7-11.6c3.1-1,6.3-1.8,9.6-2.3
		c0.7-0.1,1.4-0.2,2.1-0.3c0.4-0.1,0.8-0.2,1-0.6c0.2-0.3,0.4-0.5,0.7-0.7c0.5-0.3,1-0.6,1.4-0.9C74.1,6.9,75.1,6,75.9,5
		c0.3-0.4,0.6-0.8,0.9-1.2c0.1-0.2,0.2-0.3,0.3-0.5c0.7-1.1,1.8-1.8,3.1-2c0.4-0.1,0.8-0.2,1.3-0.2C81.9,1,82.3,1,82.8,1
		c0.3,0,0.6,0,0.9,0c1-0.1,2,0.2,2.9,0.8c0.7,0.4,1.4,0.7,2.2,0.9c0.4,0.1,0.9,0.2,1.3,0.2c0.9,0.1,1.8,0.1,2.6,0.3
		c2.2,0.4,4.1,1.5,5.7,3.1c0.4,0.4,0.7,0.7,1,1.1c0.6,0.7,1.2,1.4,1.8,2c0.8,0.8,1.6,1.4,2.6,2c1,0.6,1.5,1.4,1.7,2.5
		c0,0.2,0.1,0.5,0.1,0.7c0.1,1,0.7,1.8,1.5,2.4c0.3,0.2,0.6,0.4,0.9,0.5c1.3,0.7,2.6,1.5,3.8,2.3c4.6,3,8.8,6.6,12.5,10.7
		c3.8,4.1,7.1,8.8,9.8,13.7c3,5.6,5.3,11.6,6.7,17.8c0.5,2.3,0.9,4.6,1.2,6.9c0.3,2.2,0.4,4.5,0.4,6.8c0,1.1,0,2.1,0,3.2
		c0,0.1,0,0.3,0,0.4c-0.1,1-0.1,2,0,3c0,2.1-0.1,4.2-0.4,6.2c-1.3,9.2-4.3,18-9,26c-2.9,4.9-6.2,9.4-10.2,13.5
		c-7,7.1-15.1,12.4-24.5,15.7c-3.1,1.1-6.4,2-9.7,2.6c-1.6,0.3-3.2,0.5-4.8,0.7c-0.7,0.1-1.4,0-2.1,0.1c-2.3,0.1-4.6,0.1-7,0.1
		c-0.3,0-0.5,0-0.8-0.1c-0.4,0-0.7-0.1-1.1,0c-1.3,0-2.5-0.1-3.8-0.3c-1.1-0.2-2.1-0.3-3.2-0.5c-5.2-1-10.3-2.7-15.1-5
		c-6.5-3.2-12.4-7.4-17.6-12.4c-4.5-4.4-8.3-9.4-11.3-14.9c-3.2-5.8-5.7-11.9-7.3-18.3c-0.5-1.9-0.8-3.8-1.1-5.7
		c-0.3-1.9-0.5-3.7-0.7-5.6c-0.2-2.5-0.3-4.9-0.3-7.4c0-1.7,0.2-3.4,0.3-5.1c0.1-1.5,0.3-2.9,0.5-4.3c0.2-1.5,0.5-3,0.9-4.5
		c0.1-0.3,0.1-0.5,0.2-0.8c0.1-0.5,0-0.7-0.5-1c-0.2-0.1-0.5-0.2-0.7-0.3c-1.3-0.5-2.5-1-3.8-1.5C9,59,8.5,58.7,8,58.5
		c-0.5-0.2-0.9-0.6-1.3-0.9c-0.3-0.3-0.5-0.6-0.4-1.1c0.1-0.2,0.3-0.3,0.5-0.3c0.2,0,0.4,0,0.6,0h34.3c0.3,0,0.5,0,0.8,0
		c0.6,0.3,0.7,0.8,0.2,1.2c-0.2,0.2-0.5,0.4-0.8,0.4c-0.9,0.2-1.8,0.5-2.7,0.7c-0.6,0.1-1.1,0.4-1.6,0.8c-0.9,0.7-1.8,1.3-2.6,2.1
		c-0.6,0.6-0.8,1.3-0.5,2.1c0.4,1.2,1,2.4,1.7,3.4c1.8,2.6,3.9,4.9,6.6,6.7c1.4,0.9,2,0.6,2.4-0.9c0-0.1,0-0.2,0.1-0.3
		c0.4-3.3,2.2-5.8,4.8-7.8c0.3-0.2,0.6-0.5,0.8-0.7c0.4-0.4,0.6-0.9,0.5-1.5c-0.4-3.6,0.6-6.6,3.1-9.2c0.5-0.6,1.1-1.2,1.7-1.7
		c1.7-1.4,3.7-1.9,5.8-2.1c0.6-0.1,1.2-0.1,1.8-0.2c0.5,0,0.9-0.3,1.2-0.7c1.1-1.2,2.4-2.3,3.8-3.1c0.6-0.3,1.2-0.7,1.9-1
		c0.9-0.4,1.8-0.8,2.6-1.3c0.6-0.4,1.2-0.4,1.8-0.6c0.4-0.1,0.7-0.3,1.1-0.5c0.1-0.1,0.2-0.1,0.2-0.3c0-0.1-0.1-0.1-0.2-0.2
		c-0.1,0-0.1,0-0.2,0c-1.1-0.3-1.3-0.5-1.3-1.7c0-1.2,0.1-2.4-0.1-3.5c-0.1-0.3-0.1-0.6-0.3-0.9c-0.5-0.6-0.6-1.2-0.5-1.9
		c0-0.5-0.1-1-0.6-1.3c-0.5-0.4-0.4-0.9-0.2-1.4c0.3-0.7,0.7-1.4,1.1-2c0.3-0.6,0.4-1-0.2-1.5c-0.5-0.4-0.5-1-0.3-1.6
		c0.7-2.2,1.4-4.4,2.2-6.5c0.3-0.9,0.3-1-0.6-1.2c-1.5-0.3-2.6-1.2-3.2-2.6c-0.3-0.8-0.8-1.5-1.1-2.4c-0.2-0.6-0.6-0.5-1.1-0.5
		c-1,0.1-2.1,0.3-3.1,0.5c-6.6,1.2-13,3.6-18.8,6.9c-3.9,2.2-7.6,4.9-11,8c-3,2.7-5.8,5.7-8.2,9c-0.2,0.2-0.3,0.5-0.6,0.7
		C26.5,37.8,26.2,37.4,26.6,35.8L26.6,35.8L26.6,35.8z"/>
	<path id="XMLID_67_" class="st0" d="M26.5,35.8c0.1,0.4,0,0.8-0.1,1.2c0,0.2,0,0.3,0.2,0.3c0.5,0.1,1,0.2,1.5,0.2
		c0.5-0.1,1,0.1,1.4,0.3c2.7,0.7,5,2.1,7.1,3.9c3.3,3,5.1,6.7,5.6,11.1c0.1,0.5,0.2,0.7,0.8,0.7c1.6,0,3.1,0,4.7,0
		c0.4,0,0.8-0.1,1,0.3c0.2,0.4-0.1,0.8-0.4,1.1c-1,1.1-2.2,1.7-3.8,1.6c-0.6,0-1.2,0.1-1.7-0.1c-0.3,0-0.5,0-0.8,0H7
		c-0.2,0-0.4,0-0.6,0.1c-0.1-0.1-0.3-0.1-0.5-0.1c-0.6,0-1.1,0-1.7,0c-1,0-1.8-0.3-2.5-0.9c-0.4-0.3-0.7-0.6-1-1
		c-0.1-0.1-0.1-0.2-0.2-0.3c-0.1-0.2,0-0.4,0.2-0.5c0,0,0.1,0,0.1,0c0.2,0,0.3,0,0.5,0c1.9,0,3.9,0,5.8,0c0.1,0,0.1,0,0.2,0
		c0.3,0,0.5-0.1,0.5-0.5c0-0.6,0.1-1.2,0.2-1.8c0.5-2.7,1.6-5.3,3.4-7.5c2.5-3.1,5.6-5.2,9.5-6.1c0.7-0.2,1.5-0.3,2.2-0.4
		c0,0,0,0,0.1,0c0.3-0.1,0.4-0.1,0.3-0.4c-0.1-0.3-0.1-0.6,0-0.9c0.2-0.6,0.5-1,1.1-1.1c0.6-0.2,1.2,0,1.6,0.5
		C26.3,35.5,26.4,35.7,26.5,35.8z"/>
	<path id="XMLID_66_" class="st0" d="M26.6,35.8L26.6,35.8L26.6,35.8C26.5,35.8,26.5,35.7,26.6,35.8z"/>
	<path id="XMLID_65_" class="st1" d="M140.4,78.7c0,1.7-0.1,3.4-0.2,5.1c-0.3,5-1.4,9.8-3.8,14.3c-2.4,4.8-6,8.9-10.5,11.9
		c-2.5,1.7-5.2,2.9-8.1,3.6c-1.8,0.4-3.7,0.6-5.5,0.4c-1.2-0.1-2.3-0.4-3.4-0.7c-1.4-0.4-2.4-1.3-2.9-2.6c-0.2-0.4-0.4-0.8-0.6-1.2
		c-0.2-0.4-0.2-1,0.1-1.3c0.5-0.6,0.9-1.3,1.4-1.9c0.4-0.6,0.8-1.1,1.1-1.7c0.6-1.1,1.4-2.1,2.5-2.8c1-0.7,2-1.4,3.1-2.1
		c2.6-1.8,4.9-3.9,6.9-6.4c0.8-0.9,1.5-1.8,2.3-2.7c0.7-0.7,1-1.7,1-2.7c0-0.9-0.1-1.8-0.3-2.6c-0.3-1.8-0.7-3.5-1.2-5.3
		c-0.3-1.4-0.6-2.9-0.7-4.4c-0.1-1.5-0.3-3-0.7-4.4c-0.5-1.8-1.3-3.4-2.5-4.8c-0.3-0.4-0.7-0.8-1.1-1.1c-0.5-0.4-0.7-0.9-0.7-1.5
		c0-0.5,0-1,0-1.5c0-1.2-0.1-2.3-0.5-3.4c-0.4-1.4-1-2.7-1.7-4c-1.2-2.1-2.9-3.7-5-4.7c-1.1-0.6-2.4-0.8-3.7-0.7c-0.4,0-0.7,0-1.1,0
		c-0.5-0.1-1-0.3-1.4-0.7c-0.8-0.8-1.7-1.4-2.6-2.1c-0.7-0.5-1.5-1-2.1-1.6c-1.3-1.1-2.7-2-4.2-2.8c-0.4-0.2-0.8-0.6-0.8-1.1
		c-0.1-0.8-0.3-1.6-0.4-2.4c-0.2-1.3-0.4-2.5-0.4-3.8c0-0.3,0-0.5,0-0.8c0-0.5,0.1-0.9,0.4-1.3c0.5-0.6,0.7-1.3,0.7-2.1
		c0-0.8,0.2-1.6,0.6-2.4c0.6-1.2,1-2.5,1.4-3.8c0.1-0.3,0.2-0.6,0.3-0.8c0.1-0.2,0.3-0.4,0.6-0.3c0.6,0.1,1.1,0.1,1.7,0.2
		c0.7,0.1,1.4,0.2,2.1,0.1c1.2-0.1,2.3-0.6,3.1-1.4c0.4-0.3,0.7-0.7,1.1-1c0.6-0.5,1.1-1,1.4-1.7c0.1-0.2,0.2-0.3,0.4-0.2
		c0.1,0.1,0.3,0.1,0.4,0.2c3.2,1.8,6.3,3.9,9.2,6.3c2,1.6,3.8,3.4,5.6,5.2c4.3,4.4,7.8,9.4,10.7,14.9c2.6,5,4.6,10.3,6,15.8
		c0.5,2.2,0.9,4.3,1.3,6.5c0.3,2.2,0.5,4.5,0.6,6.8C140.4,76.2,140.4,77.4,140.4,78.7z"/>
	<path id="XMLID_64_" class="st1" d="M44.9,130.7c-0.1,0-0.2,0-0.3,0c-1.8,0.1-3.5-0.3-5.2-0.8c-0.4-0.1-0.8-0.3-1.2-0.4
		c-0.8-0.2-1.5-0.7-2-1.2c-1.7-1.6-3.3-3.3-4.8-5c-4-4.6-7.3-9.7-9.9-15.2c-2.1-4.4-3.7-9-4.8-13.7c-0.5-2-0.8-4.1-1.1-6.2
		c-0.3-2.2-0.5-4.5-0.6-6.7c-0.1-2.1-0.1-4.1,0-6.2c0-0.9,0.1-1.8,0.2-2.7c0.1-1.6,0.3-3.3,0.5-4.9c0.2-1.6,0.5-3.2,0.9-4.8
		c0.1-0.3,0.1-0.5,0.2-0.8c0.1-0.2,0.2-0.3,0.4-0.2c0.1,0,0.1,0,0.2,0.1c0.8,0.4,1.6,0.6,2.4,0.7c1.7,0.3,3.3,0.8,4.8,1.5
		c0.8,0.3,1.5,0.7,2.2,1.1c1.4,0.7,2.1,1.8,2.5,3.3c0.2,1.2,0.6,2.3,0.9,3.4c0.4,1.4,0.7,2.7,1.1,4.1c0.6,2.1,1.3,4.2,2.1,6.2
		c0.8,2.1,2.1,4.1,3.8,5.7c0.8,0.8,1.5,1.5,2.3,2.3c0.5,0.5,1,1.1,1.4,1.7c0.3,0.4,0.5,0.8,0.8,1.3c0.2,0.3,0.3,0.5,0.6,0.8
		c0.3,0.4,0.8,0.6,1.3,0.5c0.6,0,1.3-0.1,1.9-0.1c0.5-0.1,1.1-0.2,1.5-0.5c0.4-0.2,0.8-0.5,1.1-0.9c2.2-2.2,4.6-4.1,7.2-5.8
		c0.9-0.6,1.7-1.1,2.6-1.8c0.9-0.7,1.7-1.5,2.4-2.4c0.3-0.5,0.7-0.9,1.1-1.4c0.3-0.4,0.6-0.8,0.8-1.2c0.3-0.4,0.6-0.4,0.8,0
		c0.3,0.6,0.7,1,1.2,1.5c1.3,1.4,2.5,2.9,3.5,4.6c0.5,0.7,0.8,1.5,0.7,2.3c0,0.8-0.3,1.5-0.8,2.1c-0.2,0.2-0.3,0.3-0.4,0.5
		c-0.2,0.2-0.3,0.6-0.1,0.9c0,0.1,0.1,0.2,0.1,0.3c0.4,0.8,0.7,1.6,1.1,2.4c0,0.1,0.1,0.2,0.1,0.3c0.1,0.2,0,0.4-0.1,0.6
		c-0.1,0.1-0.2,0.2-0.2,0.3c-0.2,0.2-0.3,0.4-0.3,0.7c0,0.7,0,1.5,0,2.2c0,0.1,0,0.3,0.1,0.4c0.1,0.3,0,0.6-0.2,0.9
		c-0.8,1.2-1.4,2.5-2,3.8c-1.4,3-2.5,6.1-3.5,9.2c-0.6,2.1-1.4,4.1-2.2,6.1c-0.6,1.4-1.4,2.8-2.2,4.2c-2.4,3.8-5.9,6.1-10.3,7
		c-0.2,0-0.4,0.1-0.6,0.1C46,130.7,45.5,130.7,44.9,130.7L44.9,130.7z"/>
	<path id="XMLID_63_" class="st1" d="M42.8,56.4c0.7,0,1.5,0,2.2,0c0.9,0,1.7-0.3,2.4-0.8c0.4-0.3,0.6-0.6,1-0.9
		c0.1-0.1,0.2-0.3,0.2-0.5c0-0.2-0.1-0.4-0.3-0.4c0,0-0.1,0-0.1,0c-0.2,0-0.4,0-0.5,0h-4.7c-0.2,0-0.4,0-0.5,0
		c-0.2,0-0.4-0.2-0.4-0.4c0-0.1,0-0.2,0-0.3c-0.1-1.7-0.5-3.3-1.2-4.9c-0.6-1.4-1.3-2.7-2.2-3.9c-0.3-0.4-0.6-0.7-0.9-1.1
		c-0.4-0.4-0.8-0.9-1.2-1.3c-2-1.9-4.4-3.2-7-3.9c-0.3-0.1-0.6-0.2-0.9-0.2c-0.2,0-0.4-0.1-0.5-0.2c0.8-1.2,1.7-2.3,2.6-3.4
		c5.6-6.6,12.2-11.9,19.9-15.8c4.6-2.4,9.6-4.1,14.6-5.1c1.5-0.3,3-0.6,4.5-0.8c0.2,0,0.4,0,0.6-0.1c0.2,0,0.4,0.1,0.5,0.3
		c0,0,0,0,0,0.1c0.2,1.1,0.9,2.1,1.4,3.1c0.4,0.8,1.1,1.4,2,1.8c0.3,0.1,0.5,0.2,0.8,0.2c0.2,0,0.3,0.1,0.5,0.1
		c0.5,0.1,0.7,0.4,0.5,0.9c-0.4,1-0.8,2-1.1,3c-0.4,1.3-0.8,2.5-1.2,3.8c0,0.1-0.1,0.3-0.1,0.4c-0.1,0.4,0,0.7,0.2,1
		c0.1,0.1,0.1,0.2,0.2,0.3c0.5,0.5,0.5,0.6,0.2,1.2c-0.2,0.5-0.5,1-0.8,1.5c-0.2,0.3-0.3,0.7-0.5,1c-0.2,0.5-0.1,0.8,0.3,1.1
		c0.5,0.3,0.6,0.7,0.6,1.3c0,0.2,0,0.4,0,0.6c0,0.4,0.1,0.8,0.4,1.1c0.2,0.2,0.3,0.4,0.3,0.6c0.1,0.5,0.2,1.1,0.2,1.6
		c0,0.8,0,1.7,0,2.5c0,0.3,0,0.5,0.1,0.8c0,0.4,0.3,0.6,0.6,0.6c0.2,0,0.4,0.1,0.6,0.1c0.1,0,0.2,0,0.3,0.1c0.1,0.1,0.2,0.2,0.2,0.4
		c0,0,0,0.1,0,0.1c-0.1,0.1-0.2,0.2-0.3,0.3c-0.4,0.2-0.7,0.4-1.1,0.5c-0.9,0.2-1.7,0.5-2.5,1c-0.4,0.3-1,0.5-1.4,0.7
		c-1.4,0.6-2.7,1.3-4,2.2c-0.8,0.6-1.5,1.2-2.1,1.9c-0.1,0.1-0.2,0.2-0.2,0.3c-0.3,0.4-0.9,0.7-1.4,0.6c-0.4,0-0.9,0-1.3,0.1
		c-1.3,0.1-2.5,0.4-3.7,0.8c-0.5,0.2-1.1,0.4-1.5,0.8c-1.9,1.4-3.5,3-4.5,5.1c-0.7,1.3-1,2.8-1.1,4.3c0,0.6,0,1.2,0.1,1.8
		c0.1,0.7-0.1,1.5-0.7,2c-0.3,0.2-0.5,0.5-0.8,0.7c-0.8,0.6-1.6,1.3-2.2,2.2c-0.2,0.3-0.4,0.6-0.6,0.9c-0.3,0.5-0.6,1.1-0.9,1.6
		c-0.4,0.6-0.6,1.3-0.7,2.1c-0.1,0.6-0.2,1.2-0.3,1.7c-0.1,0.3-0.2,0.5-0.4,0.7c-0.2,0.2-0.4,0.3-0.7,0.3c-0.4,0-0.8-0.1-1.1-0.4
		c-1-0.6-1.9-1.3-2.8-2.1c-1.8-1.6-3.2-3.4-4.5-5.3c-0.6-0.8-1-1.7-1.3-2.7c0-0.2-0.1-0.3-0.1-0.5c-0.2-0.7,0-1.5,0.6-2
		c0.4-0.4,0.9-0.8,1.4-1.1c0.5-0.4,1.1-0.8,1.6-1.2c0.3-0.3,0.7-0.4,1.2-0.5c1-0.2,1.9-0.5,2.9-0.8c0.3-0.1,0.6-0.3,0.8-0.5
		c0.1-0.2,0.2-0.3,0.1-0.5C42.9,56.5,42.9,56.5,42.8,56.4z"/>
	<path id="XMLID_62_" class="st2" d="M91.2,96.6c0.9-0.1,1.8-0.4,2.7-0.7c2-0.7,3.7-1.8,5.3-3.2c0.7-0.6,1.4-1.3,2-1.9
		c0.1-0.1,0.2-0.2,0.3-0.3c0.1,0,0.1,0,0.2,0c0,0,0,0,0,0c0.1,0.2,0,0.4,0,0.5c-0.1,0.2-0.3,0.5-0.4,0.7c-0.7,1.1-1.6,2-2.6,2.8
		c-0.6,0.5-1.2,1-1.8,1.4c-1.5,1.2-3.2,1.6-5,1.3c-1.3-0.2-2.5,0.1-3.7,0.7c-0.2,0.1-0.4,0.2-0.6,0.4c-0.3,0.3-0.6,0.3-1,0.2
		c-0.8-0.3-1.7-0.5-2.5-0.8c-2.1-0.6-4.3-1.1-6.5-1.5c-1.5-0.3-3-0.6-4.5-0.9c-0.3-0.1-0.7-0.1-1-0.2c-0.1,0-0.1-0.1-0.1-0.1
		c0-0.1,0-0.2,0.1-0.2c0.1-0.1,0.3-0.2,0.4-0.2c0.9-0.4,1.9-0.7,2.9-0.9c0.1-0.1,0.3,0,0.4-0.1l0,0c0-0.1,0.1-0.1,0.2-0.1
		c0.1,0,0.1,0,0.2,0c-0.1,0-0.1,0-0.2,0c-0.1,0-0.1,0-0.2,0c-0.5-0.1-1.1-0.1-1.6-0.2c-0.4-0.1-0.9-0.2-1.3-0.4
		c-0.1,0-0.2-0.1-0.2-0.2c0-0.1,0-0.2,0.1-0.3c0.1,0,0.3-0.1,0.4,0c0.7,0.1,1.3,0.1,2,0.2c1.1,0.1,2.2,0.3,3.3,0.4
		c1.6,0.2,3.2,0.5,4.7,0.9c0.3,0.1,0.6,0.1,0.9,0.2c0,0,0.1,0,0.1-0.1c0,0,0-0.1,0-0.1c-0.1-0.1-0.2-0.2-0.4-0.3
		c-0.2-0.1-0.4-0.2-0.6-0.3c-2.2-0.7-4.3-1.5-6.5-2.2c-1.4-0.5-2.9-0.8-4.3-1.1c-0.2,0-0.3-0.1-0.5-0.1c-0.2,0-0.2-0.2-0.2-0.4
		c0,0,0,0,0,0c0-0.2,0.1-0.3,0.2-0.5c0.6-1.6,1.1-3.2,1.6-4.8c0.6-1.8,1-3.6,1.2-5.5c0.3-2.5,0.4-4.9,0.2-7.4
		c-0.1-1.7-0.4-3.4-0.7-5c-0.3-1.6-0.6-3.1-0.8-4.7c-0.1-0.9-0.2-1.7-0.3-2.6c-0.1-1.4-0.2-2.8-0.3-4.2c-0.1-1-0.1-2,0-3.1
		c0.1-1.5,0.3-2.9,0.5-4.3c0.1-0.7,0.2-1.3,0.3-2c0.1-0.4,0.2-0.8,0.3-1.1c0.3-0.7,0.9-1,1.6-1.1c0.1,0,0.2,0,0.2,0.1
		c0,0,0,0.1,0,0.1c0,0.4,0,0.7-0.1,1.1c-0.1,1.1-0.1,2.2-0.1,3.2c0,2.1,0.1,4.1,0.2,6.2c0.1,1.2,0.1,2.4,0.2,3.7
		c0,0.7,0.1,0.8,0.8,0.7c1.7-0.2,3.5-0.3,5.2-0.4c3.4-0.2,6.8-0.3,10.2-0.3c2.6,0,5.2,0,7.8,0.1c0.4,0,0.8,0,1.2,0
		c0.1,0,0.2,0,0.4,0c0.3,0,0.4-0.2,0.3-0.5c0-0.1-0.1-0.2-0.1-0.3c-1.1-3.1-2.4-6.1-3.6-9.1c-0.5-1.2-1.2-2.3-1.8-3.4
		c-0.1-0.2-0.2-0.3-0.3-0.5c0-0.1,0-0.1,0-0.2c0,0,0.1-0.1,0.2-0.1c0.4,0.1,0.7,0.3,0.9,0.6c0,0.1,0.1,0.1,0.1,0.2
		c1.1,1.8,2.3,3.6,3.4,5.5c2,3.3,3.4,6.8,4.3,10.6c0.3,1.2,0.5,2.5,0.7,3.7c0.1,1.4,0.1,2.8,0,4.1c-0.3,2.3-0.7,4.7-1,7
		c-0.3,2-0.6,4-1,6c-0.5,2.2-1.2,4.3-2.3,6.2c-1.9,3.4-4.6,6-8,7.8c-0.8,0.4-1.6,0.8-2.4,1.2c0,0-0.1,0-0.1,0.1
		c-0.1,0.1,0,0.1,0,0.1C91,96.7,91.1,96.7,91.2,96.6z"/>
	<path id="XMLID_61_" class="st2" d="M101.4,18.2c-0.7,0-1.4,0-2.1,0c-0.1,0-0.3,0-0.4-0.1c-0.1,0-0.1-0.2,0-0.2
		c0.1,0,0.1-0.1,0.2-0.1c0.5-0.2,1-0.6,1.4-0.9c0.4-0.3,0.7-0.7,0.8-1.2c0.1-0.2-0.1-0.4-0.3-0.3c-0.1,0-0.3,0.1-0.4,0.1L99,15.9
		C98.6,16,98.2,16,97.7,16c-0.1,0-0.1,0-0.1-0.1c0-0.1,0-0.1,0.1-0.1c0.1-0.1,0.3-0.2,0.4-0.3c0.3-0.2,0.6-0.5,0.7-0.8
		c0.1-0.1,0.1-0.2,0-0.3c-0.1-0.1-0.2-0.1-0.3-0.1c-0.1,0.1-0.3,0.1-0.4,0.2L96,15.4c-0.1,0.1-0.3,0.1-0.4,0.2
		c-0.2,0.1-0.3,0.1-0.5,0S95,15.3,95,15.1c0.1-0.5,0.3-0.9,0.5-1.4c0.3-0.5,0.6-1,0.8-1.5c0.2-0.5,0.5-0.9,0.7-1.4
		c0.1-0.1,0.1-0.2,0.1-0.3c0-0.1,0-0.2-0.1-0.2c0,0-0.1,0-0.1,0c-0.1,0-0.3,0.1-0.4,0.2c-0.5,0.3-0.9,0.6-1.4,0.9
		c-0.7,0.6-1.5,1.2-2.2,1.8c-0.4,0.3-0.9,0.6-1.4,0.8c-0.3,0.1-0.4,0.1-0.6-0.1c-0.2-0.2-0.3-0.3-0.3-0.6c-0.2-0.7-0.4-1.5-0.5-2.3
		c0-0.3,0-0.5,0-0.8c0.1-0.6,0.1-1.3,0.2-1.9c0-0.1,0-0.3,0-0.4c0-0.1,0-0.2-0.1-0.2c-0.1,0-0.2,0-0.3,0C90,8,89.9,8.2,89.8,8.3
		c-0.6,1.1-1.2,2.2-1.9,3.2c-0.1,0.1-0.2,0.2-0.3,0.3c-0.3,0.3-0.5,0.3-0.8,0c-0.2-0.2-0.4-0.5-0.6-0.7c-0.4-0.7-0.6-1.4-0.8-2.2
		c-0.2-0.9-0.2-1.8-0.3-2.7c0-0.1,0-0.3-0.1-0.4c0-0.1-0.2-0.2-0.4-0.2c0,0-0.1,0-0.1,0.1c-0.1,0.1-0.2,0.3-0.3,0.5
		c-0.3,0.7-0.4,1.4-0.5,2.1c-0.1,0.9-0.1,1.9,0.1,2.8c0,0.1,0,0.2,0,0.2c0,0.2-0.1,0.3-0.2,0.4c-0.2,0.1-0.3,0-0.4-0.1
		c-1.1-1-2.5-1.7-3.8-2.2c-0.8-0.3-1.6-0.9-2.2-1.6c-0.1-0.1-0.1-0.2-0.2-0.2c-0.1-0.1-0.1-0.1-0.3-0.1c-0.1,0-0.1,0.2-0.1,0.2
		c0.1,1.4,0.5,2.7,1.4,3.8c0.1,0.2,0.3,0.4,0.4,0.6c0.2,0.3,0.4,0.5,0.8,0.6c0,0,0,0,0.1,0c0.1,0,0.1,0.1,0.1,0.2
		c0,0.1-0.1,0.2-0.1,0.2c-0.3,0.2-0.7,0.2-1-0.1c-0.1-0.1-0.3-0.2-0.4-0.4c-0.7-0.7-1.4-1.2-2.3-1.6c-0.1-0.1-0.2-0.1-0.3-0.1
		c-0.2-0.1-0.3,0.1-0.3,0.3c0,0.2,0.1,0.3,0.2,0.5c0.2,0.5,0.4,1,0.6,1.5c0.1,0.2,0.1,0.4,0.2,0.6c0,0.1,0,0.2,0,0.2
		c0,0.1-0.1,0-0.2,0c-0.7-0.3-1.4-0.6-2.1-0.9c-0.5-0.2-1-0.7-1.3-1.2c-0.3-0.6-0.3-1,0.2-1.4c0.6-0.6,1.1-1.1,1.7-1.6
		C75.2,8,76.1,7,76.9,6c0.5-0.6,0.9-1.2,1.4-1.8c0.3-0.4,0.7-0.8,1.1-1c0.1-0.1,0.3-0.2,0.4-0.2c1.6-0.5,3.2-0.8,4.9-0.3
		c0.6,0.2,1.3,0.5,1.8,0.8c0.6,0.4,1.3,0.6,2,0.7c1.1,0.1,2.1,0.2,3.2,0.2C93,4.6,94.2,5,95.3,5.7c0.8,0.5,1.5,1.2,2.2,1.9
		c0.8,0.9,1.7,1.8,2.5,2.7c0.7,0.8,1.5,1.4,2.5,1.8c0.3,0.1,0.6,0.3,0.8,0.5c0.5,0.4,0.8,1,0.9,1.7c0.1,0.7,0.2,1.4,0.2,2.2
		c0,0.3,0,0.7,0,1c0,0.7-0.3,0.9-0.9,0.9c-0.6,0-1.1,0-1.7,0C101.7,18.3,101.6,18.2,101.4,18.2L101.4,18.2z"/>
	<path id="XMLID_60_" class="st2" d="M83.8,13.1c1.3,0,2.4,0.3,3.6,0.6c1.4,0.4,2.7,0.9,4,1.7c0.5,0.3,1,0.7,1.4,1
		c0.4,0.3,0.6,0.7,0.8,1.1c0.3,0.7,0.6,1.5,0.9,2.2c0.2,0.4,0.2,0.8,0.1,1.2c-0.6,1.9-1.1,3.8-1.7,5.6c0,0.1-0.1,0.2-0.1,0.3
		C92.7,27,92.6,27,92.5,27c-0.2-0.1-0.3-0.1-0.5-0.3c-1.5-1.2-3.1-2.2-4.8-3.2c-1.9-1.1-4.1-1.7-6.3-2c-1.1-0.1-2.1-0.1-3.2,0
		c-0.3,0-0.5,0-0.8,0c-0.2,0-0.3-0.1-0.2-0.3c0-0.2,0.1-0.3,0.2-0.4c0.8-1.8,1.6-3.6,2.4-5.4c0.4-0.9,1.1-1.6,2-1.9
		C82,13.2,82.9,13.1,83.8,13.1z"/>
	<path id="XMLID_59_" class="st1" d="M104.1,93.6c0-0.3,0.1-0.5,0.2-0.8c0.1-0.2,0.2-0.5,0.3-0.7c0.2-0.7,0.4-1.4,0.4-2.1
		c0-2,0-4.1,0-6.1c0-0.6,0.1-1.1,0.2-1.6c0.1-0.5,0.2-1.1,0.3-1.6c0-0.1,0.1-0.3,0.1-0.4c0.1-0.1,0.2-0.2,0.3-0.1c0,0,0,0,0,0
		c0.1,0.1,0.2,0.2,0.2,0.3c0.5,0.8,1.2,1.3,1.8,1.9c0.2,0.2,0.4,0.3,0.7,0.4c0.4,0.2,0.8,0.4,1.2,0.6c0.2,0.1,0.4,0.2,0.5,0.3
		c0.2,0.1,0.3,0.4,0.2,0.6c-0.1,0.2-0.2,0.3-0.3,0.4c-0.2,0.3-0.4,0.5-0.6,0.8c-0.8,1-1.3,2.2-1.5,3.5c-0.1,0.5-0.1,1-0.1,1.5
		c0,0.6,0,1.1-0.1,1.7c0,0.7-0.3,1.3-0.7,1.9c-0.4,0.6-0.8,1.1-1.3,1.6c-0.1,0.1-0.1,0.2-0.2,0.2c-0.1,0.1-0.2,0.1-0.3,0
		c0,0,0,0,0,0c-0.2-0.2-0.4-0.4-0.5-0.6c-0.2-0.3-0.4-0.7-0.7-1C104.1,94,104.1,93.8,104.1,93.6z"/>
	<path id="XMLID_58_" class="st2" d="M62.9,72.1c-0.1,0.5-0.2,1-0.5,1.5c-0.1,0.2-0.4,0.3-0.7,0.2c-0.1-0.1-0.3-0.1-0.4-0.2
		c-2.1-1.5-4.4-2.6-6.9-3.5c-0.7-0.3-1.4-0.5-2.1-0.7c-0.5-0.2-1.1-0.3-1.6-0.3c-0.2,0-0.3,0-0.5-0.1c-0.3-0.1-0.3-0.1-0.2-0.4
		c0.3-0.5,0.5-0.9,0.8-1.3c0.3-0.4,0.7-0.7,1.2-0.8c0.2-0.1,0.5-0.1,0.8,0c2.5,0.5,4.8,1.2,6.9,2.6c0.9,0.6,1.7,1.2,2.5,1.9
		C62.7,71.2,63,71.5,62.9,72.1z"/>
	<path id="XMLID_57_" class="st3" d="M67.7,51c0.5,0,1,0,1.5,0c0.1,0,0.2,0,0.4,0c0.1,0,0.2,0.1,0.2,0.3c0,0,0,0.1,0,0.1
		c-0.1,0.1-0.1,0.2-0.2,0.3c-0.4,0.5-0.8,0.8-1.4,1.1c-1,0.5-1.9,1-2.9,1.4c-0.8,0.3-1.5,0.7-2.3,1c-2.2,1.1-3.9,2.7-5.1,4.9
		c-0.2,0.4-0.3,0.8-0.4,1.2c0,0.2-0.1,0.4-0.1,0.6c0,0,0,0.1-0.1,0.1c0,0-0.1-0.1-0.1-0.1c-0.3-1.7-0.2-3.3,0.5-4.8
		c0.5-1.2,1.2-2.2,2.1-3.2c1.4-1.4,3-2.2,4.9-2.7C65.7,51,66.7,51,67.7,51z"/>
	<path id="XMLID_56_" class="st2" d="M107.3,73.3c0-0.2,0.1-0.4,0.2-0.5c0.1-0.1,0.2-0.2,0.3-0.3c0.3-0.2,0.6-0.4,0.9-0.6
		c2.7-1.6,5.3-3.3,8.1-4.7c0.2-0.1,0.5-0.2,0.7-0.3c0.3-0.1,0.6,0,0.8,0.2c0.3,0.3,0.5,0.7,0.7,1.2c0.2,0.5,0.1,0.8-0.4,1.1
		c-0.5,0.3-1,0.6-1.5,0.9c-2.8,1.5-5.6,3-8.4,4.4c-0.2,0.1-0.4,0.2-0.6,0.2c-0.2,0.1-0.3,0-0.4-0.1
		C107.5,74.2,107.4,73.7,107.3,73.3z"/>
	<path id="XMLID_55_" class="st2" d="M76.3,101.4c0.3-0.1,0.7-0.2,1-0.1c1.5,0.2,3,0.4,4.5,0.7c1.2,0.3,2.4,0.5,3.6,0.8
		c0.2,0,0.5,0.1,0.7,0.2c0.3,0.1,0.4,0.4,0.3,0.7c-0.1,0.3-0.2,0.5-0.3,0.8c-0.1,0.2-0.1,0.4-0.2,0.6c0,0.2,0.1,0.4,0.3,0.5
		c0.2,0.1,0.4,0.1,0.6,0.2c0.1,0,0.2,0,0.3,0.1c0.1,0,0.1,0.1,0.1,0.2c0,0.1,0,0.1-0.1,0.1c-0.1,0-0.2,0.1-0.3,0.1
		c-1.7,0.1-3.4,0.2-5.1,0.1c-1.1-0.1-2.2-0.1-3.2-0.3c-1.1-0.1-2.2-0.3-3.3-0.4c-0.1,0-0.2,0-0.2-0.2c0,0,0.1-0.1,0.1-0.1
		c1.2-0.2,2.3-0.3,3.5-0.4c0.7-0.1,1.4-0.1,2.1,0c0.1,0,0.3,0,0.4,0c0.1,0,0.2-0.1,0.3-0.2c0-0.1,0-0.3-0.1-0.4
		c-0.1,0-0.1-0.1-0.2-0.1c-0.6-0.4-1.2-0.8-1.9-1.2c-0.7-0.5-1.5-0.9-2.3-1.3C76.7,101.7,76.5,101.6,76.3,101.4z"/>
	<path id="XMLID_54_" class="st3" d="M65.2,133.1c-0.2,0-0.3,0-0.5,0c-0.9-0.1-1.8-0.3-2.7-0.4c-0.2,0-0.4,0-0.5-0.1
		c-0.3,0-0.4,0.1-0.5,0.4c0,0.1,0,0.1,0,0.2c-0.1,0.4-0.1,0.8-0.2,1.2c-0.1,0.4,0.1,0.5,0.5,0.6c0.8,0.1,1.6,0.2,2.5,0.4
		c0.3,0,0.5,0.1,0.8,0.1c0.1,0,0.3,0.1,0.4,0.1c0.2,0.1,0.3,0.3,0.3,0.5c0,0.2-0.2,0.4-0.4,0.5c-0.2,0-0.4,0-0.6,0
		c-0.9-0.1-1.8-0.3-2.7-0.4c-0.7-0.1-0.9,0-1,0.7c-0.1,0.7-0.2,1.4-0.4,2c0,0,0,0.1,0,0.1c-0.2,0.8-0.6,1.1-1.4,0.9
		c-0.5-0.1-0.8-0.5-0.8-1c0-0.4,0-0.7,0.1-1.1c0.4-1.9,0.8-3.9,1.2-5.8c0-0.2,0.1-0.4,0.2-0.6c0.2-0.5,0.4-0.7,0.9-0.6
		c0.4,0,0.8,0.1,1.2,0.1c1.2,0.2,2.5,0.4,3.7,0.6c0.2,0,0.4,0.1,0.6,0.1c0.3,0.1,0.5,0.4,0.5,0.7c0,0.3-0.2,0.5-0.6,0.6
		C65.6,133.1,65.4,133.1,65.2,133.1L65.2,133.1z"/>
	<path id="XMLID_53_" class="st3" d="M107.5,126.7c0-0.4,0.1-0.8,0.4-1.1c0.4-0.5,0.9-1,1.4-1.4c0.7-0.5,1.5-0.8,2.3-1.1
		c0.6-0.2,1.2,0,1.6,0.4c0.3,0.3,0.6,0.6,0.8,0.9c0.2,0.4,0.5,0.8,0.7,1.1c0.3,0.4,0.6,0.8,1,1.1c0,0,0.1,0,0.1,0.1
		c0.5,0.4,0.4,0.7,0.2,1c-0.2,0.4-0.6,0.5-1,0.4c-0.1,0-0.1,0-0.2-0.1c-0.4-0.1-0.8,0-1,0.4c-0.1,0.2-0.3,0.4-0.4,0.6
		c-0.2,0.4-0.5,0.7-0.8,1c-0.8,0.7-1.7,0.9-2.7,0.8c-0.5,0-1-0.4-1.1-1c-0.2-0.6,0-1.2,0.3-1.6c0.2-0.2,0.4-0.4,0.6-0.6
		c0.7-0.6,1.4-1.2,2.1-1.8c0.1-0.1,0.1-0.1,0.2-0.2c0.3-0.2,0.3-0.4,0-0.8c-0.3-0.3-0.7-0.3-1-0.2c-0.8,0.3-1.4,0.8-1.7,1.6
		c-0.1,0.2-0.1,0.4-0.2,0.6c-0.1,0.2-0.2,0.4-0.4,0.5c-0.5,0.2-1,0.1-1-0.5C107.5,126.9,107.5,126.8,107.5,126.7z"/>
	<path id="XMLID_52_" class="st2" d="M90.2,132.4c0.5,0,0.7,0.1,0.8,0.5c0.1,0.3,0.2,0.5,0.2,0.8c0.2,0.7,0.4,1.4,0.6,2.2
		c0.1,0.2,0.2,0.5,0.3,0.7c0.3,0.5,0.7,0.7,1.3,0.6c0.4-0.1,0.8-0.3,1.1-0.6c0.4-0.4,0.6-0.9,0.4-1.5s-0.3-1.1-0.4-1.6
		c-0.1-0.4-0.2-0.8-0.3-1.2c-0.1-0.2-0.1-0.4-0.1-0.6c0-0.4,0.3-0.7,0.6-0.8c0.4-0.1,0.8,0,1,0.3c0.1,0.1,0.1,0.3,0.2,0.4
		c0.5,1.4,1,2.9,1.4,4.3c0,0.1,0.1,0.2,0.1,0.3c0.1,0.4-0.1,0.8-0.5,1c-0.4,0.2-0.7,0.1-1-0.2c0,0-0.1-0.1-0.1-0.1
		c-0.3-0.2-0.3-0.2-0.6,0c-0.1,0.1-0.1,0.2-0.2,0.3c-0.8,0.9-1.9,1.3-3.1,1.2c-1.1-0.1-1.4-0.4-1.8-1.4c-0.4-1.2-0.6-2.4-0.9-3.7
		c0,0,0-0.1,0-0.1C89.2,132.7,89.5,132.4,90.2,132.4z"/>
	<path id="XMLID_51_" class="st3" d="M83.6,133.6c0.6,0,1.2,0.1,1.8,0.3c0.2,0.1,0.5,0.2,0.6,0.4c0.3,0.4,0.2,0.8-0.3,1
		c-0.3,0.1-0.7,0.1-1-0.1c-0.1-0.1-0.3-0.2-0.4-0.3c-0.7-0.5-1.4-0.4-2.1,0c-0.1,0.1-0.2,0.2-0.3,0.3c-0.1,0.3,0,0.5,0.3,0.6
		c0.3,0.1,0.7,0.2,1,0.2c0.6,0,1.1,0.1,1.7,0.1c0.5,0,0.9,0.2,1.4,0.3c0.4,0.2,0.7,0.6,0.8,1c0.1,0.8-0.1,1.4-0.8,1.9
		c-0.6,0.5-1.4,0.7-2.1,0.8c-0.7,0.1-1.4,0.2-2.2,0c-0.4-0.1-0.8-0.2-1.2-0.5c-0.2-0.1-0.4-0.4-0.5-0.6c-0.2-0.5,0.1-1,0.7-1.1
		c0.3,0,0.5,0,0.7,0.2c0.1,0.1,0.2,0.1,0.3,0.2c0.6,0.5,1.3,0.7,2.1,0.5c0.3,0,0.6-0.2,0.8-0.3c0.2-0.2,0.4-0.4,0.3-0.6
		c0-0.3-0.2-0.5-0.5-0.5c-0.4-0.1-0.9-0.2-1.4-0.2c-0.6,0-1.3-0.1-1.9-0.2c-0.2-0.1-0.4-0.1-0.6-0.2c-0.8-0.4-1.1-1.3-0.5-2.1
		c0.2-0.2,0.4-0.4,0.6-0.5C81.7,133.9,82.7,133.6,83.6,133.6z"/>
	<path id="XMLID_50_" class="st3" d="M51,84c0-0.7,0.1-1.3,0.2-2c0.1-0.5,0.4-0.8,0.8-1c0.7-0.4,1.4-0.8,2.1-1.2
		c1.4-0.8,2.8-1.8,4-2.8c0.6-0.5,1.1-1,1.7-1.6c0.1-0.1,0.2-0.3,0.4-0.4c0.2-0.2,0.4-0.2,0.5-0.1c0.2,0.1,0.2,0.2,0.2,0.5
		c-0.2,0.8-0.5,1.6-1,2.3c-0.6,1-1.4,1.9-2.3,2.6c-0.6,0.5-1.3,0.9-1.9,1.3c-0.8,0.5-1.6,0.9-2.5,1.4c-0.5,0.3-1,0.6-1.5,1.1
		c-0.1,0.1-0.2,0.2-0.4,0.3c-0.2,0.1-0.3,0-0.3-0.2c0,0,0-0.1,0-0.1C51,84.1,51,84.1,51,84z"/>
	<path id="XMLID_49_" class="st2" d="M92.4,104.2c-0.1,0.6-0.2,1.1-0.3,1.7c-0.4,1.9-1,3.7-1.8,5.5c-0.1,0.1-0.1,0.3-0.2,0.4
		c-0.1,0.2-0.3,0.3-0.5,0.2c-0.2,0-0.3-0.1-0.5-0.1c-0.9-0.4-1.8-0.8-2.6-1.2c-0.1,0-0.1,0-0.2-0.1c-0.2-0.1-0.3-0.2-0.1-0.4
		c0.3-0.4,0.5-0.8,0.7-1.2c0.3-0.6,0.7-1.1,1.1-1.6c0.6-0.6,1.2-1.2,1.8-1.8c0.7-0.6,1.3-1.2,2-1.8c0,0,0.1-0.1,0.1-0.1
		c0.2-0.2,0.4-0.1,0.4,0.2C92.4,103.9,92.4,104.1,92.4,104.2z"/>
	<path id="XMLID_48_" class="st4" d="M74.3,97.8c2.1,0,4.2,0.3,6.3,0.8c1.6,0.3,3.1,0.8,4.6,1.2c0.3,0.1,0.5,0.1,0.7,0.3
		c0.4,0.3,0.6,0.9,0.3,1.4c-0.1,0.1-0.3,0.2-0.4,0.2c-0.4-0.1-0.8-0.2-1.3-0.3c-1.5-0.3-3.1-0.7-4.6-1c-1.6-0.3-3.2-0.7-4.8-1
		c-1.1-0.3-2.2-0.6-3.4-0.9c-0.1,0-0.2-0.1-0.3-0.1c0,0,0-0.1-0.1-0.1c0,0,0-0.1,0.1-0.1c0.2-0.1,0.3-0.1,0.5-0.1
		C72.8,97.8,73.6,97.7,74.3,97.8z"/>
	<path id="XMLID_47_" class="st3" d="M76.7,141.1c-0.6,0.1-1.1-0.1-1.6-0.2c-0.2-0.1-0.4-0.2-0.5-0.5c-0.2-0.3-0.3-0.7-0.3-1
		c0-1-0.1-1.9-0.1-2.9c0-0.1,0-0.1,0-0.2c0-0.5-0.1-0.5-0.5-0.6c-0.1,0-0.2-0.1-0.3-0.1c-0.2-0.1-0.3-0.3-0.3-0.5
		c0-0.2,0.1-0.4,0.3-0.5c0.1,0,0.3-0.1,0.4-0.1c0.2,0,0.4-0.2,0.4-0.5c0-0.3,0-0.5,0-0.8c0-0.2,0-0.4,0-0.6c0.1-0.4,0.3-0.6,0.8-0.6
		c0.5,0,0.8,0.2,0.9,0.6c0,0.2,0.1,0.5,0.1,0.7c0,0.2,0,0.3,0,0.5c0.1,0.5,0.2,0.6,0.7,0.6c0.2,0,0.4,0,0.6,0.1
		c0.2,0,0.3,0.2,0.3,0.4c0,0.2-0.1,0.4-0.3,0.5c-0.1,0.1-0.3,0.1-0.4,0.2c-0.1,0-0.3,0.1-0.4,0.1c-0.2,0.1-0.3,0.2-0.3,0.4
		c0,0.1,0,0.3,0,0.4c0,0.8,0.1,1.6,0.1,2.4c0,0.2,0.1,0.4,0.1,0.6c0.1,0.2,0.3,0.4,0.5,0.4c0.2,0,0.3,0,0.5-0.1
		c0.3,0,0.5-0.1,0.8-0.1c0.2,0,0.4,0.1,0.4,0.3c0.1,0.2,0,0.4-0.1,0.5c-0.2,0.2-0.4,0.3-0.6,0.3C77.5,141.1,77.1,141.1,76.7,141.1z"
		/>
	<path id="XMLID_46_" class="st5" d="M104.9,130.5v2.1c0,0.3,0,0.7-0.1,1c-0.1,0.8-1.2,1.5-2,0.8c-0.1-0.1-0.2-0.2-0.4-0.3
		c-1.3-1-2.5-2.1-3.6-3.3c-0.1-0.1-0.2-0.3-0.3-0.4c-0.1-0.2-0.1-0.5,0-0.7c0.1-0.2,0.3-0.3,0.4-0.4c0.2-0.1,0.5-0.1,0.7,0
		c0.2,0.1,0.4,0.3,0.6,0.5c0.9,0.8,1.7,1.7,2.6,2.5c0.1,0.1,0.2,0.2,0.3,0.2c0.1,0,0.2,0,0.3-0.1c0-0.1,0-0.2,0-0.4
		c0-1.2,0-2.4-0.1-3.7c0-0.3,0-0.5,0.1-0.8c0.1-0.4,0.5-0.6,0.9-0.6c0.4,0,0.6,0.3,0.7,0.6c0,0.2,0,0.4,0,0.5
		C104.9,129.1,104.9,129.8,104.9,130.5L104.9,130.5z"/>
	<path id="XMLID_45_" class="st2" d="M98.3,117.5c0,1.1-0.1,2.2-0.1,3.3c0,0.3-0.1,0.5-0.3,0.8l-1.8,2.1c0,0-0.1,0.1-0.1,0.1
		c-0.1,0-0.1,0-0.2,0c0,0-0.1-0.1,0-0.1c0-0.2,0-0.4,0.1-0.6c0.2-1.5,0.4-3,0.5-4.4c0.2-1.9,0.4-3.8,0.6-5.7c0-0.2,0-0.4,0.3-0.5
		c0.2-0.1,0.4,0,0.6,0.2c0.3,0.4,0.5,0.9,0.5,1.4c0.1,0.6,0.1,1.2,0,1.8C98.3,116.4,98.3,117,98.3,117.5z"/>
	<path id="XMLID_44_" class="st5" d="M70.4,135.6c0,0.5-0.1,0.9-0.1,1.3c0,0.9-0.1,1.9-0.1,2.8c0,0.3,0,0.5-0.1,0.8
		c-0.2,0.5-0.7,0.8-1.2,0.6c0,0-0.1,0-0.1,0c-0.3-0.1-0.5-0.4-0.5-0.8c0-0.3,0-0.6,0-0.9c0.1-0.9,0.1-1.9,0.2-2.8
		c0-0.4,0.1-0.9,0.1-1.3c0-0.1,0-0.2,0-0.3c0.2-0.6,0.7-0.9,1.2-0.6c0.3,0.1,0.4,0.3,0.5,0.6C70.3,135.2,70.4,135.4,70.4,135.6z"/>
	<path id="XMLID_43_" class="st3" d="M116.4,119.7c0.2,0,0.5,0.1,0.6,0.3c0.1,0.1,0.3,0.3,0.4,0.4c0.8,1,1.6,2,2.4,3.1
		c0.1,0.2,0.2,0.3,0.3,0.5c0.2,0.4,0.1,0.8-0.2,1.1c-0.1,0.1-0.3,0.2-0.4,0.3c-0.3,0.1-0.6,0.1-0.8-0.1c-0.1-0.1-0.3-0.2-0.4-0.4
		c-0.9-1.2-1.7-2.3-2.6-3.5c-0.1-0.1-0.1-0.2-0.2-0.2C115.2,120.5,115.7,119.7,116.4,119.7z"/>
	<path id="XMLID_42_" class="st6" d="M113.4,56.5c-0.2-0.1-0.3-0.3-0.5-0.4c-1-1-2-2-3.2-2.8c-1.5-1.1-3.1-1.9-4.9-2.3l-0.9-0.2
		c0,0,0,0,0,0c0,0,0.1-0.1,0.1-0.1c1.7-0.4,3.4-0.3,5,0.6c1.9,1.1,3.3,2.6,4.1,4.7c0.1,0.1,0.1,0.3,0.2,0.4
		C113.4,56.4,113.4,56.5,113.4,56.5z"/>
	<path id="XMLID_41_" class="st6" d="M87.3,53.4c-0.3-0.1-0.5-0.2-0.8-0.3c-1.3-0.5-2.6-1.1-3.9-1.5c-1.8-0.5-3.7-0.9-5.6-1
		c-0.2,0-0.4,0-0.5-0.1c-0.1,0-0.2-0.2-0.2-0.3c0-0.1,0.1-0.2,0.2-0.2c0.4-0.1,0.7-0.1,1.1-0.2c2.1-0.2,4.1,0,6.1,0.8
		c0.8,0.3,1.5,0.7,2.2,1.2c0.5,0.3,0.9,0.7,1.2,1.2C87.2,53.1,87.2,53.2,87.3,53.4z"/>
	<path id="XMLID_40_" class="st7" d="M88.5,119.3c0,1.6-0.3,3.2-0.6,4.8c-0.1,0.2-0.1,0.5-0.2,0.7c-0.1,0.4-0.3,0.8-0.6,1.1
		c-0.4,0.4-0.8,0.7-1.2,0.9c-0.1,0-0.1,0.1-0.2,0c-0.1-0.1-0.1-0.2-0.1-0.3c0-0.1,0.1-0.3,0.1-0.4c0.7-2.6,1.4-5.1,2.2-7.6
		c0.1-0.2,0.1-0.4,0.2-0.5c0.1-0.1,0.2-0.1,0.2,0c0,0.1,0.1,0.2,0.1,0.3C88.5,118.7,88.5,119,88.5,119.3z"/>
	<path id="XMLID_39_" class="st6" d="M120.4,82.9c0,0.5-0.3,1.1-0.8,1.6c-0.2,0.2-0.3,0.3-0.5,0.5c-1.4,1.2-2.8,2.6-4,4
		c-0.3,0.3-0.6,0.6-0.9,0.9c0,0-0.1,0-0.1,0c0,0,0-0.1,0-0.1c0-0.1,0-0.2,0.1-0.3c0.5-1.6,1.5-2.9,2.7-4c0.5-0.5,1.1-0.9,1.7-1.3
		c0.2-0.1,0.3-0.2,0.5-0.3c0.4-0.3,0.7-0.9,0.5-1.4c0-0.2-0.1-0.5-0.2-0.7c-0.1-0.2-0.1-0.4-0.1-0.6c0-0.1,0-0.1,0.1-0.1
		c0.1,0,0.2,0,0.2,0C120.1,81.4,120.4,81.9,120.4,82.9z"/>
	<path id="XMLID_38_" class="st7" d="M93.7,116.5c0,0.6,0,1,0,1.4c0,0.4-0.1,0.8-0.3,1.1c-0.3,0.5-0.7,0.8-1.3,1
		c-0.2,0.1-0.4,0-0.3-0.2c0-0.3,0-0.6,0.1-0.9c0.2-1.7,0.4-3.4,0.7-5.1c0.1-0.7,0.1-1.3,0.2-2c0-0.1,0-0.2,0-0.3
		c0-0.1,0.1-0.1,0.1-0.1c0.1,0,0.1,0,0.1,0.1c0.1,0.2,0.2,0.4,0.2,0.6c0.2,0.7,0.3,1.4,0.4,2.1C93.7,115,93.7,115.7,93.7,116.5z"/>
	<path id="XMLID_37_" class="st8" d="M92.1,100.8c0,0.1,0,0.1,0,0.2c0,0.1,0,0.1-0.1,0.1c-0.1,0-0.1,0-0.2,0
		c-0.1-0.2-0.2-0.4-0.3-0.5c-0.2-0.2-0.3-0.5-0.5-0.7c-0.1-0.2-0.3-0.2-0.5-0.2c-0.2,0.1-0.3,0.3-0.2,0.5c0,0.2,0.1,0.3,0.2,0.5
		c0.2,0.4,0.4,0.7,0.5,1.1c0,0.1,0.1,0.2,0.1,0.3c0,0.1-0.1,0.2-0.1,0.2c-1-0.2-2-0.6-2.5-1.6c-0.2-0.3-0.2-0.7,0-1
		c0.6-1.2,2.3-1.4,3.1-0.3C92,99.7,92.2,100.2,92.1,100.8z"/>
	<path id="XMLID_36_" class="st9" d="M91.3,39.3c0,1.2-0.1,2.5-0.5,3.7c-0.2,0.7-0.3,1.3-0.4,2c-0.1,0.7-0.3,1.3-0.4,2
		c-0.1,0.7-0.2,1.5-0.3,2.2c0,0.2,0,0.4-0.1,0.5c0,0.1-0.1,0.1-0.2,0.1c-0.1,0-0.1-0.1-0.2-0.1c0,0,0,0,0,0c0-0.2,0-0.3,0-0.5
		c0-1.4,0.2-2.8,0.5-4.1c0.4-1.8,0.7-3.6,1-5.4c0.1-0.5,0.1-1.1,0.3-1.6c0-0.1,0.1-0.2,0.1-0.3c0-0.1,0-0.2,0.1-0.2
		c0.2,0,0.1,0.2,0.1,0.3C91.3,38.2,91.3,38.7,91.3,39.3z"/>
	<path id="XMLID_35_" class="st10" d="M96.2,49.7c0.6-0.1,1.2,0,1.7,0.3c0.1,0.1,0.3,0.1,0.3,0.3c0,0.1-0.1,0.2-0.4,0.2
		c-1.1,0-2.3,0.2-3.4,0.5c-0.9,0.3-1.8,0.6-2.7,1c-0.1,0.1-0.2,0.1-0.4,0.2c-0.2,0.1-0.4,0-0.4,0c0-0.1,0.1-0.2,0.2-0.3
		c0.4-0.4,0.9-0.8,1.4-1.1c0.7-0.5,1.6-0.8,2.5-0.9C95.3,49.8,95.8,49.7,96.2,49.7z"/>
	<path id="XMLID_34_" class="st11" d="M70.2,50.1c-0.4,0-0.8-0.1-1.3-0.1c-0.3,0-0.4-0.1-0.2-0.4c0.6-0.9,1.5-1.7,2.5-2.2
		c0.2-0.1,0.4-0.2,0.6-0.3c0.1,0,0.2,0,0.2,0.1c0,0,0,0,0,0.1c0,0.1,0,0.2,0,0.3c-0.1,0.7-0.2,1.4-0.3,2c0,0.3-0.1,0.4-0.4,0.4
		C71,50,70.6,50,70.2,50.1z"/>
	<path id="XMLID_33_" class="st12" d="M92.8,100.3c0-0.3,0-0.8-0.1-1.3c0-0.3,0.1-0.4,0.4-0.4c0.5,0,0.9,0.3,1,0.8
		c0.1,0.2,0.2,0.5,0.2,0.7c0.2,0.6,0.1,1.1-0.2,1.6c-0.1,0.3-0.3,0.5-0.5,0.7c-0.1,0.1-0.3,0.2-0.5,0.2c-0.2,0-0.3-0.1-0.4-0.3
		c0-0.1,0-0.3,0-0.4C92.8,101.4,92.8,101,92.8,100.3z"/>
	<path id="XMLID_32_" class="st13" d="M99.6,98.6c-0.1,0.1-0.2,0.2-0.3,0.2c-1,0.3-1.9,0.7-2.8,1.2c-0.2,0.1-0.4,0.2-0.5,0.2
		c-0.2,0.1-0.4,0-0.5-0.3c-0.1-0.1,0-0.3,0.1-0.4c0.1-0.1,0.3-0.2,0.4-0.2C96.9,98.9,98.4,98.5,99.6,98.6z"/>
	<path id="XMLID_31_" class="st14" d="M70.5,132.6c0,0.4-0.3,0.7-0.7,0.8c-0.5,0.1-1-0.2-1.1-0.7c-0.1-0.3,0.1-0.6,0.3-0.7
		c0.3-0.2,0.9-0.2,1.2,0C70.4,132.2,70.5,132.4,70.5,132.6z"/>
	<path id="XMLID_30_" class="st15" d="M115.6,118.5c0,0.6-0.6,1.1-1.2,0.9c-0.2-0.1-0.4-0.2-0.4-0.4c-0.1-0.5,0.2-1,0.7-1.2
		c0,0,0.1,0,0.1,0C115.3,117.7,115.6,118,115.6,118.5z"/>
	<path id="XMLID_29_" class="st16" d="M78.9,35.1c-0.4,0.5-1,0.8-1.6,1c-0.5,0.1-0.9,0.1-1.4-0.1c-0.1,0-0.2-0.1-0.3-0.2
		c0-0.1,0-0.2,0.1-0.3c0,0,0,0,0,0c0.1,0,0.2,0,0.3,0c0.5,0.2,1,0.1,1.5-0.1c0.4-0.2,0.8-0.3,1.1-0.5C78.9,34.9,79,35,78.9,35.1z"/>
	<path id="XMLID_28_" class="st17" d="M91.2,96.6c-0.1,0.1-0.3,0.1-0.4,0.1c-0.1,0-0.3,0.1-0.3-0.1c0-0.1,0.2-0.1,0.3-0.2
		c0,0,0.1,0,0.1,0C91,96.6,91.1,96.6,91.2,96.6z"/>
	<path id="XMLID_27_" class="st18" d="M78.9,35.1L78.8,35c0-0.1,0.1-0.1,0.2-0.1c0.1,0,0.1,0,0.1,0.1c0,0,0,0.1,0,0.1
		C79,35,79,35.1,78.9,35.1z"/>
	<path id="XMLID_26_" class="st19" d="M75.6,93.8c-0.1,0.1-0.2,0.1-0.4,0.1C75.4,93.8,75.5,93.7,75.6,93.8z"/>
	<path id="XMLID_25_" class="st19" d="M75.6,93.7h0.2c0,0,0.1,0,0,0.1c0,0,0,0,0,0l-0.2,0C75.6,93.8,75.6,93.7,75.6,93.7z"/>
	<path id="XMLID_24_" d="M25.5,37.6l1.4,0.2c4.2,0.5,7.6,2.3,10.5,5.4c2.3,2.4,3.6,5.4,4.2,8.6c0.1,0.5,0.1,1,0.2,1.5
		c0,0.3-0.1,0.3-0.3,0.4c-0.2,0-0.3,0-0.5,0H9.1c-0.2,0-0.4,0-0.6,0c-0.1,0-0.2-0.1-0.2-0.2c0,0,0,0,0,0c0-0.5,0.1-1,0.1-1.5
		c1-6.8,6.2-12.4,13.1-13.9c0.8-0.2,1.6-0.3,2.4-0.3c0.1,0,0.2,0,0.4,0c0,0,0.1-0.1,0.1-0.1c0,0,0,0,0,0c-0.1-0.1-0.2-0.2-0.3-0.3
		c-0.4-0.5-0.3-1.3,0.2-1.7c0.1-0.1,0.1-0.1,0.2-0.1c0.5-0.3,1.1-0.1,1.4,0.3c0.4,0.4,0.4,1,0.1,1.5C25.8,37.3,25.7,37.4,25.5,37.6z
		"/>
	<path id="XMLID_23_" class="st20" d="M24.6,54h22.6c0.3,0,0.5,0,0.8,0c0.1,0,0.2,0,0.2,0.1c0,0.1,0,0.2,0,0.2
		c-0.2,0.2-0.4,0.4-0.6,0.7c-0.5,0.4-1.1,0.8-1.7,1c-0.2,0.1-0.4,0.1-0.6,0.1c-0.2,0-0.4,0-0.5,0H4.5c-0.2,0-0.5,0-0.7,0
		c-1.2-0.1-2.1-0.7-2.7-1.6c0,0,0-0.1-0.1-0.1C1,54.1,1,54,1.1,54c0,0,0,0,0,0c0.3,0,0.6,0,0.9,0L24.6,54z"/>
	<path id="XMLID_22_" class="st21" d="M87.3,80.6c0.4-0.7,0.5-1.4,0.7-2.1c0.1-0.6,0.2-1.2,0.3-1.8c0-0.2,0.1-0.5,0.1-0.7
		c0-0.4-0.2-0.6-0.6-0.4c-0.2,0.1-0.3,0.1-0.5,0.2c-0.1,0-0.2,0-0.2-0.1c0,0,0,0,0,0c-0.1-0.4,0-0.8,0.3-1.1
		c0.1-0.1,0.3-0.2,0.4-0.3c0.3-0.2,0.5-0.5,0.5-0.9c0-0.8,0.2-1.6,0.4-2.3c0.7-2,2.1-3.1,4.2-3.4c0.6-0.1,1.3,0.1,1.8,0.4
		c1.1,0.7,1,2,0.4,2.8c-0.5,0.6-1.4,0.9-2,0.7c-0.3-0.1-0.3-0.2-0.1-0.4c0.1-0.1,0.2-0.2,0.3-0.3c0.2-0.2,0.2-0.5,0-0.7
		c-0.1-0.3-0.4-0.4-0.7-0.4c-0.4,0-0.8,0.1-1.1,0.4c-0.3,0.3-0.6,0.7-0.7,1.1c-0.3,0.7-0.5,1.5-0.5,2.3c0,0.1,0,0.1,0,0.2
		c0,0.2,0.1,0.3,0.3,0.3c0.6,0,1.3,0,1.9-0.1c0.4,0,0.8-0.1,1.2-0.2c0.5-0.1,0.6-0.3,0.7-0.8c0-0.1,0-0.1,0-0.2
		c0-0.1,0.1-0.1,0.2-0.1c0,0,0,0,0,0c0.3,0.2,0.4,0.4,0.4,0.7c0.1,0.6-0.2,1.3-0.8,1.6c-0.4,0.2-0.8,0.3-1.2,0.4c-0.5,0-0.9,0-1.4,0
		c-0.4,0-0.7,0-1.1,0.1c-0.2,0-0.4,0.2-0.4,0.4c0,0.2-0.1,0.4-0.1,0.6c-0.1,0.9-0.2,1.9-0.4,2.8c-0.2,0.9-0.5,1.8-0.9,2.6
		c-0.9,1.7-2.3,2.6-4.2,2.8c-0.4,0.1-0.8,0.1-1.2,0c-1.5-0.2-2.7-1-3.4-2.4c-0.5-0.9-0.3-1.7,0.2-2.5c0.1-0.2,0.3-0.4,0.5-0.5
		c0,0,0.1,0,0.1,0c0,0,0,0.1,0,0.1c0,0,0,0.1-0.1,0.1c-0.7,1.2-0.5,2.3,0.5,3.1c0.1,0.1,0.2,0.2,0.3,0.2c0.5,0.1,1,0.3,1.6,0.3H84
		c0.2,0,0.3,0,0.5-0.1c1-0.2,1.9-0.9,2.4-1.8C87,80.9,87.1,80.7,87.3,80.6z"/>
	<path id="XMLID_21_" class="st22" d="M82,82.6l-0.2-0.2c0.1-0.1,0.3-0.1,0.4-0.1c0.4,0,0.7,0,1.1,0c1,0,1.9-0.4,2.6-1.1
		c0.4-0.3,0.7-0.7,1-1.1c0.1,0,0.2,0,0.2,0.1c-0.2,1-0.8,1.7-1.7,2.2c-0.4,0.2-0.9,0.4-1.3,0.5c-0.6,0-1.1,0.1-1.7-0.1
		C82.3,82.8,82.1,82.8,82,82.6z"/>
	<path id="XMLID_20_" class="st23" d="M84.2,82.9c0.6-0.1,1.1-0.4,1.6-0.8c0.6-0.5,1.1-1.1,1.3-1.8c0-0.1,0-0.1,0.1,0
		c0,0.1,0,0.2,0.1,0.2c-0.5,1.2-1.3,2-2.5,2.4c-0.1,0-0.2,0-0.3,0C84.4,83.1,84.3,83.2,84.2,82.9z"/>
	<path id="XMLID_19_" class="st24" d="M84.2,82.9c0.1,0.1,0.2,0.1,0.3,0.1c-0.2,0.1-0.3,0.1-0.5,0.1c-0.2-0.1-0.5-0.1-0.7,0
		c-0.6,0-1.1-0.1-1.5-0.5c0.1,0,0.2,0,0.2-0.1C82.7,83,83.5,83,84.2,82.9z"/>
	<path id="XMLID_18_" class="st25" d="M87.2,80.3C87.2,80.3,87.1,80.3,87.2,80.3L87,80.2c0,0,0-0.1,0.1-0.1c0,0,0.1,0,0.1,0
		c0.1,0,0.1,0.1,0.1,0.1C87.2,80.2,87.2,80.2,87.2,80.3z"/>
	<path id="XMLID_17_" class="st26" d="M75.9,93.8c0,0,0-0.1,0-0.1c0.1,0,0.1,0,0.1,0.1C76,93.8,75.9,93.8,75.9,93.8z"/>
	<path id="XMLID_16_" class="st27" d="M113.3,127.4c0,0.2-0.1,0.4-0.2,0.6c-0.3,0.6-0.9,1-1.5,1.3c-0.2,0.1-0.5,0.1-0.7,0.1
		c-0.5-0.1-0.7-0.5-0.5-1c0.1-0.2,0.2-0.3,0.3-0.4c0.6-0.5,1.1-1.1,1.8-1.6c0.2-0.2,0.3-0.1,0.5,0.1
		C113.2,126.8,113.3,127.1,113.3,127.4z"/>
	<path id="XMLID_15_" class="st2" d="M24.6,38.5c0.1,0,0.1,0,0.2-0.1c0.3,0,0.7,0,1,0c2.2,0.2,4.4,0.9,6.3,2.1
		c2.7,1.6,4.7,3.8,6.1,6.5c0.7,1.4,1.3,2.9,1.6,4.5c0.1,0.7,0.1,0.7-0.6,0.7c-1.2,0-2.3,0-3.5,0c-0.1,0-0.3,0-0.4,0
		c-0.1,0-0.2-0.1-0.2-0.2c0-0.2-0.1-0.3-0.1-0.5c-0.4-2.6-1.2-5.1-2.6-7.3c-1.2-1.9-2.8-3.4-4.8-4.5c-0.8-0.4-1.7-0.8-2.6-1
		C25,38.7,24.8,38.6,24.6,38.5z"/>
	<path id="XMLID_14_" class="st13" d="M84.1,83.7c-0.1,0-0.2,0-0.4,0c0,0-0.1,0-0.1-0.1s0-0.1,0-0.1c0.1,0,0.2-0.1,0.3-0.1
		c1.4-0.1,2.5-0.8,3.3-2.1c0.6-0.9,0.9-1.9,1.1-2.9c0.2-0.8,0.2-1.7,0.4-2.5c0-0.1,0-0.3,0.1-0.4c0-0.1,0.1-0.1,0.2-0.1c0,0,0,0,0,0
		c0.1,0,0.1,0.1,0.2,0.2c0,0.1,0,0.1,0,0.2c-0.2,1.2-0.3,2.3-0.5,3.5c-0.2,0.8-0.5,1.6-0.9,2.3c-0.6,0.9-1.3,1.6-2.4,1.9
		C84.9,83.7,84.5,83.7,84.1,83.7z"/>
	<path id="XMLID_13_" class="st28" d="M89.4,74.4c-0.2,0-0.5,0.1-0.7,0.1c-0.2,0-0.2-0.1-0.2-0.2c0.2-0.3,0.2-0.6,0.2-1
		c0.1-1.2,0.3-2.3,0.9-3.3c0.1-0.2,0.3-0.4,0.4-0.6c0,0,0-0.1,0.1-0.1l0,0c0,0,0.1-0.1,0.1-0.1l0,0c0,0,0.1-0.1,0.1-0.1l0,0
		c0,0,0-0.1,0.1-0.1c0,0,0-0.1,0.1-0.1c0.1,0,0.2,0,0.2,0.2l0,0c-0.1,0-0.1,0.1-0.1,0.1l0,0c-0.1,0-0.1,0.1-0.1,0.1l-0.2,0.2
		c0,0-0.1,0.1-0.1,0.1c-0.1,0.2-0.3,0.5-0.4,0.7c-0.4,0.7-0.6,1.5-0.6,2.3c0,0.4,0,0.7,0,1.1c0,0.2,0.1,0.4,0.3,0.5
		C89.5,74.3,89.5,74.3,89.4,74.4C89.5,74.4,89.5,74.4,89.4,74.4z"/>
	<path id="XMLID_12_" class="st24" d="M90.8,69.1L90.6,69c0.5-0.5,1.1-0.8,1.8-0.9c0.1,0,0.2-0.1,0.2,0.1
		C91.9,68.3,91.3,68.7,90.8,69.1z"/>
	<path id="XMLID_11_" class="st29" d="M90.6,74.3c0,0,0.1,0,0.1,0c0.7-0.1,1.4-0.1,2.1-0.1c-0.3,0.2-0.8,0.2-1.4,0.2
		C91.2,74.3,90.9,74.5,90.6,74.3z"/>
	<path id="XMLID_10_" class="st30" d="M90.6,74.3c0.2,0,0.3,0,0.5,0c0.1,0,0.2,0,0.3,0.1c-0.7,0-1.3,0-2,0c0,0,0-0.1,0-0.1
		L90.6,74.3z"/>
	<path id="XMLID_9_" class="st31" d="M83.3,83.1c0.2-0.2,0.5-0.2,0.7,0C83.8,83.2,83.5,83.2,83.3,83.1z"/>
	<path id="XMLID_8_" class="st32" d="M92.6,68.1C92.6,68,92.5,68,92.4,68c0.2-0.1,0.4-0.1,0.5-0.1C92.9,68.1,92.7,68.1,92.6,68.1z"
		/>
	<path id="XMLID_7_" class="st24" d="M90.3,69.2l-0.1,0.1C90.2,69.3,90.2,69.2,90.3,69.2z"/>
	<path id="XMLID_6_" class="st24" d="M90.3,69.7l0.1-0.1C90.4,69.6,90.3,69.7,90.3,69.7z"/>
	<path id="XMLID_5_" class="st24" d="M90.5,69.4c0-0.1,0.1-0.1,0.1-0.1C90.6,69.3,90.6,69.4,90.5,69.4z"/>
	<path id="XMLID_4_" class="st24" d="M90.2,69.4L90.2,69.4C90.1,69.4,90.1,69.4,90.2,69.4z"/>
	<path id="XMLID_3_" class="st24" d="M90.6,69.2c0-0.1,0.1-0.1,0.1-0.1C90.8,69.2,90.7,69.2,90.6,69.2z"/>
	<path id="XMLID_2_" class="st24" d="M90.4,69.1l-0.1,0.1C90.3,69.2,90.3,69.1,90.4,69.1z"/>
	<path id="XMLID_1_" class="st24" d="M90.5,69L90.5,69C90.4,69.1,90.5,69,90.5,69z"/>
</g>
</svg>
