<?xml version="1.0" encoding="utf-8"?>
<!-- Generator: Adobe Illustrator 19.0.0, SVG Export Plug-In . SVG Version: 6.00 Build 0)  -->
<svg version="1.1" id="Layer_1" xmlns="http://www.w3.org/2000/svg" xmlns:xlink="http://www.w3.org/1999/xlink" x="0px" y="0px"
	 width="92px" height="93px" viewBox="0 0 92 93" style="enable-background:new 0 0 92 93;" xml:space="preserve">
<style type="text/css">
	.st0{fill:#851B1D;}
	.st1{fill:#FFFFFF;}
	.st2{fill:#F79420;}
	.st3{fill:#FBB143;}
	.st4{fill:#EF5226;}
	.st5{fill:#FDC13B;}
	.st6{fill:#4D5D39;}
	.st7{fill:#212221;}
	.st8{fill:none;}
	.st9{fill:#F1E0DF;}
	.st10{fill:#CB2127;}
	.st11{fill:#95C347;}
</style>
<g id="XMLID_4_">
	<g id="XMLID_729_">
		<path id="XMLID_382_" class="st0" d="M49,32.6c-0.2,0-0.4,0-0.6,0c-0.8-0.1-1.5-0.2-2.1-0.4c-0.7-0.2-1.4-0.6-2-1
			c-0.1-0.1-0.3-0.2-0.4-0.3l-0.2-0.2c-0.1-0.1-0.2-0.2-0.3-0.3c-0.3-0.3-0.6-0.6-0.8-1c-0.1-0.1-0.2-0.2-0.2-0.4
			c-0.1-0.2-0.2-0.5-0.3-0.6l-0.1-0.3l-0.1-0.3c0-0.1,0-0.2,0-0.3c0-0.4-0.1-0.8,0-1.2c0-0.9,0.3-1.8,0.7-2.6
			c0.4-0.9,1.1-1.6,1.9-2.2c0.3-0.2,0.7-0.4,1-0.6c2.2-2.5,4.3-3.3,6.1-3.6l0,0l0.2,0c0,0,0.1,0,0.2,0c0.3-0.1,0.7-0.1,1-0.2
			c1.2-0.2,2.4-0.5,3.6-1c1.8-0.6,3.6-1.4,5.4-2.4l0.3-0.2c0.2-0.1,0.3-0.2,0.5-0.3c0.3-0.2,0.5-0.3,0.8-0.5l0.4-0.3
			c0.1,0,0.1-0.1,0.2-0.1l1-0.7c0.1,0,0.1-0.1,0.2-0.2c0.2-0.2,0.4-0.3,0.6-0.4c0.2-0.2,0.4-0.3,0.6-0.5l0.7-0.5
			c0.5-0.3,0.9-0.7,1.4-1l0,0c1.3-1,2.6-1.9,4.2-2.9c1-0.6,1.8-1,2.6-1.3c1.1-0.5,2.2-0.7,3.3-0.8c1.2-0.1,2.6,0.1,3.8,0.5
			c1.1,0.4,2.2,1,3.2,1.9l0,0l0.6,0.5c0.2,0.2,0.3,0.3,0.5,0.5l0.1,0.1C87,7.7,87.1,7.8,87.3,8c0.1,0.1,0.1,0.1,0.2,0.2
			c0.2,0.2,0.4,0.5,0.6,0.7l0,0c0.9,1.2,1.5,2.7,1.6,4.2c0.1,1.4-0.2,2.9-0.9,4.4c-0.5,1.2-1.3,2.2-2.3,3.3
			c-1.6,1.7-3.6,3.1-6.1,4.4c-4.1,2-8.7,3-13.4,3c-0.4,0-0.9,0-1.3,0c-1.3-0.1-2.6-0.2-3.9-0.4c-0.2,0-0.4-0.1-0.6-0.1l-0.7-0.1
			c-0.1,0-0.2,0-0.3-0.1c-0.7,0.6-1.5,1.2-2.2,1.8c-0.2,0.1-0.3,0.2-0.5,0.4l-0.3,0.2c-0.2,0.1-0.3,0.2-0.5,0.3l0,0
			c-0.1,0.1-0.2,0.1-0.3,0.2c-0.3,0.2-0.6,0.4-1,0.6c-1.1,0.6-2.1,1-3.1,1.3C51.1,32.5,50,32.6,49,32.6z M51.6,17.6L51.6,17.6
			c-1.7,0.4-3.8,1-6.1,3.6l-0.1,0c-0.4,0.2-0.7,0.4-1,0.6c-0.7,0.5-1.3,1.2-1.8,2c-0.4,0.8-0.6,1.6-0.6,2.5c0,0.4,0,0.8,0,1.2
			c0,0.1,0,0.2,0,0.3l0.1,0.6c0,0.1,0.1,0.4,0.2,0.6c0.1,0.1,0.1,0.2,0.2,0.3c0.2,0.4,0.5,0.7,0.8,0.9c0.1,0.1,0.2,0.2,0.3,0.3
			l0.2,0.2c0.1,0.1,0.2,0.2,0.4,0.3c0.6,0.4,1.2,0.7,2,1c0.6,0.2,1.3,0.3,2,0.4c0.2,0,0.4,0,0.6,0c1,0,2.1-0.2,3.2-0.5
			c1-0.3,2-0.7,3-1.3c0.4-0.2,0.7-0.4,1-0.6c0.1-0.1,0.2-0.1,0.3-0.2l0.1,0.1l-0.1-0.1c0.2-0.1,0.3-0.2,0.5-0.3l0.3-0.2
			c0.2-0.1,0.3-0.2,0.5-0.3c0.8-0.6,1.5-1.1,2.3-1.8l0.1-0.1l0.1,0c0.1,0,0.3,0.1,0.4,0.1l0.7,0.1c0.2,0,0.4,0.1,0.6,0.1
			c1.2,0.2,2.5,0.3,3.8,0.4c0.4,0,0.9,0,1.3,0c4.7,0,9.3-1,13.3-3c2.5-1.2,4.4-2.6,6-4.3c1-1,1.7-2.1,2.2-3.2
			c0.7-1.4,0.9-2.8,0.8-4.2c-0.1-1.4-0.6-2.8-1.5-4c-0.2-0.3-0.4-0.5-0.6-0.8c0-0.1-0.1-0.1-0.2-0.2c-0.1-0.1-0.3-0.3-0.4-0.4
			l-0.1-0.1c-0.2-0.2-0.3-0.3-0.5-0.4L86.1,7L86,7.2l-0.6-0.5l0.1-0.2l-0.1,0.1c-1-0.8-2-1.4-3.1-1.8c-1.2-0.4-2.5-0.6-3.6-0.5
			c-1.1,0.1-2.1,0.4-3.2,0.8c-0.8,0.3-1.6,0.8-2.6,1.3c-1.5,0.9-2.8,1.9-4.1,2.9l0,0c-0.5,0.4-0.9,0.7-1.4,1l-0.7,0.5
			c-0.2,0.2-0.4,0.3-0.6,0.5c-0.2,0.2-0.4,0.3-0.6,0.4c-0.1,0.1-0.2,0.1-0.2,0.2l-1,0.7c-0.1,0.1-0.2,0.1-0.2,0.2L63.5,13
			c-0.3,0.2-0.5,0.3-0.8,0.5c-0.2,0.1-0.3,0.2-0.4,0.3L61.9,14c-1.8,1-3.6,1.8-5.5,2.4c-1.3,0.4-2.5,0.8-3.7,1c-0.3,0-0.6,0.1-1,0.2
			C51.7,17.6,51.6,17.6,51.6,17.6z M49,31c-0.2,0-0.3,0-0.5,0c-0.7,0-1.2-0.2-1.7-0.3c-0.6-0.2-1.1-0.5-1.6-0.8
			c-0.1-0.1-0.2-0.2-0.3-0.2l-0.2-0.1c-0.1-0.1-0.2-0.1-0.2-0.2c-0.2-0.2-0.4-0.5-0.6-0.8c0-0.1-0.1-0.2-0.1-0.2
			c-0.1-0.1-0.1-0.3-0.1-0.4l0,0c0,0,0-0.1,0-0.1l0-0.2c0-0.1,0-0.1,0-0.2c0-0.3-0.1-0.6,0-1c0-0.7,0.2-1.4,0.5-2
			c0.3-0.6,0.8-1.2,1.4-1.6c0.3-0.2,0.7-0.4,1.1-0.6c2-2.4,3.8-3,5.4-3.4l0,0c0,0,0.1,0,0.3,0c0.3-0.1,0.6-0.1,1-0.2l0,0
			c1.2-0.2,2.5-0.6,3.8-1c1.9-0.6,3.8-1.5,5.7-2.5l0.3-0.2c0.2-0.1,0.3-0.2,0.5-0.3c0.3-0.2,0.5-0.3,0.8-0.5l0.4-0.3
			c0.1-0.1,0.2-0.1,0.3-0.2l1-0.7c0.1-0.1,0.2-0.1,0.2-0.2c0.2-0.1,0.4-0.3,0.6-0.4c0.2-0.2,0.4-0.3,0.6-0.5l0.7-0.5
			c0.4-0.3,0.9-0.7,1.4-1l0,0c1.3-0.9,2.5-1.9,4-2.8c0.9-0.5,1.7-0.9,2.4-1.2c1-0.4,1.9-0.6,2.8-0.7c1-0.1,2.1,0.1,3.1,0.4
			c0.9,0.3,1.8,0.9,2.7,1.6l0.6,0.5c0.2,0.1,0.3,0.3,0.4,0.4l0.1,0.1C85.8,8.8,86,8.9,86.1,9c0.1,0.1,0.1,0.1,0.2,0.2
			c0.2,0.2,0.4,0.4,0.5,0.6c0.7,1,1.2,2.2,1.3,3.3c0.1,1.1-0.2,2.4-0.7,3.5c-0.5,1-1.1,1.9-2,2.9c-1.5,1.6-3.3,2.9-5.7,4
			c-4.2,2.1-9.1,3-14,2.8c-1.2-0.1-2.5-0.2-3.7-0.4c-0.2,0-0.4-0.1-0.6-0.1l-0.7-0.1c-0.2,0-0.4-0.1-0.6-0.1c-0.1,0-0.2-0.1-0.4-0.1
			l-0.2,0c-0.9,0.8-1.8,1.6-2.8,2.2c-0.1,0.1-0.3,0.2-0.4,0.3l-0.3,0.2c-0.1,0.1-0.3,0.2-0.4,0.3c-0.1,0.1-0.2,0.1-0.4,0.2
			c-0.3,0.2-0.6,0.4-0.9,0.5c-1,0.5-1.9,0.9-2.8,1.2C50.8,30.9,49.9,31,49,31z M51.9,19.2L51.9,19.2c-1.6,0.3-3.4,0.9-5.4,3.3l0,0
			l0,0c-0.4,0.2-0.7,0.4-1,0.6c-0.5,0.4-1,0.9-1.3,1.5c-0.3,0.6-0.4,1.2-0.5,1.8c0,0.3,0,0.6,0,0.9c0,0.1,0,0.1,0,0.2l0,0.2
			c0,0,0,0.1,0,0.1c0,0.1,0.1,0.2,0.1,0.3c0,0.1,0.1,0.2,0.1,0.2c0.2,0.3,0.4,0.5,0.6,0.7c0.1,0.1,0.1,0.1,0.2,0.2l0.2,0.1
			c0.1,0.1,0.2,0.2,0.3,0.2c0.5,0.3,1,0.6,1.5,0.8c0.5,0.2,1,0.3,1.6,0.3c1,0.1,2.1-0.1,3.1-0.4c0.9-0.3,1.8-0.6,2.7-1.2
			c0.3-0.2,0.6-0.3,0.9-0.5c0.1-0.1,0.2-0.1,0.4-0.2c0.1-0.1,0.3-0.2,0.4-0.3l0.3-0.2c0.1-0.1,0.3-0.2,0.4-0.3
			c0.9-0.7,1.9-1.4,2.8-2.3l0.1-0.1l0.3,0.1c0.1,0,0.2,0.1,0.4,0.1c0.2,0,0.4,0.1,0.5,0.1l0.7,0.1c0.2,0,0.4,0.1,0.6,0.1
			c1.2,0.2,2.4,0.3,3.6,0.4c4.8,0.2,9.7-0.8,13.8-2.8c2.3-1.1,4.1-2.4,5.6-4c0.9-0.9,1.5-1.8,2-2.8c0.5-1.1,0.8-2.3,0.7-3.4
			c-0.1-1.1-0.5-2.2-1.2-3.1c-0.2-0.2-0.3-0.4-0.5-0.6c-0.1-0.1-0.1-0.1-0.2-0.2c-0.1-0.1-0.2-0.2-0.3-0.4l-0.1-0.1
			c-0.1-0.1-0.3-0.3-0.4-0.4l-0.6-0.5c-0.9-0.7-1.7-1.2-2.6-1.5c-1-0.3-2-0.5-3-0.4C77.9,6,77,6.2,76,6.6c-0.7,0.3-1.5,0.7-2.4,1.2
			c-1.5,0.9-2.7,1.8-4,2.8l0,0c-0.5,0.3-0.9,0.7-1.4,1l-0.7,0.5c-0.2,0.2-0.4,0.3-0.7,0.5c-0.2,0.2-0.4,0.3-0.6,0.5
			c-0.1,0.1-0.2,0.1-0.2,0.2l-1,0.7c-0.1,0.1-0.2,0.1-0.3,0.2l-0.4,0.3c-0.3,0.2-0.5,0.3-0.8,0.5c-0.2,0.1-0.3,0.2-0.5,0.3l-0.3,0.2
			c-1.9,1.1-3.8,1.9-5.8,2.6c-1.3,0.4-2.6,0.8-3.9,1L53,19c-0.3,0-0.6,0.1-1,0.2C52,19.1,51.9,19.2,51.9,19.2z"/>
	</g>
	<g id="XMLID_718_">
		<path id="XMLID_902_" class="st0" d="M26.3,48.1l-0.5,2.6c-0.5,2.6-0.8,4.3-0.8,5L24.9,57l-1.3,0.1l-1,0.1l-1.9,0.1l0.3-1.9
			c0.1-0.7,0.1-1.1,0.2-1.4c0,0-0.1,0-0.1,0c-0.1,0-0.2,0-0.4,0l-1.2,0.1l-0.1,0l-0.1,0l-0.4,0l-2.5,0.2c-0.1,0.3-0.1,0.7-0.2,1.1
			c-0.3,1.5-0.6,2.9-0.8,4.1l1.7-0.1c0.4,0,0.6-0.1,0.8-0.1c0-0.1,0.1-0.2,0.1-0.4l0.2-1.2l1.2-0.1l1-0.1l2-0.1l-0.4,2
			c-0.3,1.6-0.5,3.2-0.7,4.9l-0.1,1.3l-1.3,0.1l-1,0.1L17,65.8l0.1-1.8c0-0.1,0-0.2,0-0.3c-0.1,0-0.2,0-0.3,0l-2.3,0.1
			c-0.2,1.5-0.6,3-0.9,4.6c-0.3,1.1-0.5,2.1-0.7,3c0.2,0,0.4,0,0.6,0c0.4,0,0.9-0.1,1.3-0.2l2.4-0.5l-0.6,2.4l-0.3,1.1l-0.2,1
			l-1,0.2c-0.4,0.1-0.8,0.1-1.2,0.1c-0.2,0-0.7,0-2.7,0c-0.2,0-0.4,0-0.5,0c0,0,0,0,0,0c-0.6,0-1.1,0-1.6,0
			c-1.1,0.1-2.4,0.3-3.6,0.5l-2.3,0.5l0.4-2.3l0.2-1.1l0.2-1l1-0.3c1.3-0.4,1.6-0.6,1.6-0.6c0.2-0.1,0.3-0.3,0.3-0.4
			c0.2-0.4,0.6-1.8,1.7-7l1.6-8.3c-0.6,0.2-1.1,0.4-1.5,0.7c-1,0.6-1.8,1.5-2.3,2.5c-0.5,1-0.5,1.2-0.5,2.1c0,0.4,0.1,0.6,0.2,1l0,0
			l0,0c0,0,0.1,0.2,0.4,0.8C6.8,63.8,7,64.5,7.1,65c0,0.7-0.2,1.4-0.7,1.9c-0.5,0.5-1.1,0.8-1.9,0.8c-0.1,0-0.1,0-0.2,0
			c-1,0-1.9-0.5-2.5-1.4c-0.6-0.9-1-2.2-1.1-3.8c-0.2-2.9,0.8-5.7,2.9-8.3c2.1-2.6,5.1-4,8.8-4.2l7.3-0.4c0.8,0,1.6-0.1,2.5-0.3l0,0
			l0,0c0.1,0,0.4-0.1,1.6-0.5L26.3,48.1 M24.3,50.4c-0.9,0.3-1.6,0.5-1.8,0.5c-1,0.2-1.9,0.3-2.7,0.3l-7.3,0.4
			c-3.2,0.2-5.8,1.4-7.6,3.7c-1.9,2.3-2.7,4.6-2.5,7.2c0.1,1.3,0.4,2.3,0.8,3c0.3,0.5,0.7,0.7,1.2,0.7c0,0,0.1,0,0.1,0
			c0.3,0,0.6-0.1,0.8-0.3c0.2-0.2,0.3-0.4,0.3-0.7c0-0.3-0.2-0.7-0.6-1.4c-0.3-0.5-0.5-0.9-0.6-1.2C4.1,62,4,61.7,4,61.2
			c-0.1-1.2,0-1.7,0.7-3c0.7-1.2,1.6-2.2,2.9-3c1.2-0.8,2.7-1.3,4.4-1.4l-2,10.6c-0.8,4.1-1.4,6.5-1.8,7.3c-0.2,0.4-0.4,0.7-0.8,1
			C7,73,6.3,73.3,5.2,73.6L5,74.7c1.4-0.3,2.7-0.5,3.9-0.6c0.5,0,1,0,1.7,0c0.2,0,0.4,0,0.6,0c1.5,0,2.3,0,2.6,0
			c0.3,0,0.7-0.1,1-0.1l0.3-1.1c-0.5,0.1-1,0.2-1.5,0.2c-0.3,0-0.5,0-0.8,0c-0.6,0-1.2,0-1.9-0.1c0.4-1.1,0.8-2.7,1.2-4.8
			c0.5-2.1,0.8-4,1.1-5.8l3.6-0.2c0.2,0,0.3,0,0.5,0c0.5,0,0.8,0,1,0.1c0.3,0.1,0.5,0.4,0.5,0.7c0,0.1,0,0.6-0.1,1.3l1-0.1
			c0.2-1.7,0.4-3.4,0.7-5l-1,0.1c-0.1,0.7-0.3,1.2-0.6,1.4c-0.3,0.2-0.8,0.3-1.7,0.4l-3.7,0.2c0.3-1.6,0.7-3.6,1.2-6.1
			c0.3-1.2,0.4-2,0.5-2.3l3.8-0.2l0.4,0l1.2-0.1c0.2,0,0.3,0,0.5,0c0.6,0,1,0.1,1.2,0.2c0.3,0.2,0.5,0.5,0.5,0.9c0,0.3,0,1-0.2,2.1
			l1-0.1C23.5,54.8,23.8,53,24.3,50.4 M26.3,47.7c0,0-0.1,0-0.1,0l-2.5,0.8c-1.3,0.4-1.5,0.4-1.6,0.4c0,0,0,0,0,0
			c-0.9,0.2-1.7,0.2-2.5,0.3l-7.3,0.4c-3.8,0.2-6.8,1.7-9,4.3c-2.2,2.6-3.2,5.5-3,8.5c0.1,1.7,0.5,3,1.2,4c0.7,1,1.7,1.6,2.8,1.6
			c0.1,0,0.1,0,0.2,0c0.8,0,1.5-0.4,2.1-0.9c0.6-0.6,0.9-1.4,0.8-2.2c0-0.6-0.3-1.3-0.9-2.3C6.2,62.2,6.1,62,6.1,62l0,0l0,0
			C6,61.6,6,61.4,5.9,61.1c-0.1-0.9-0.1-1,0.4-1.9c0.5-1,1.2-1.7,2.2-2.3c0.3-0.2,0.6-0.3,0.9-0.5L8,64c-1.1,5.3-1.5,6.6-1.6,6.9
			c0,0.1-0.1,0.2-0.2,0.3c-0.1,0-0.4,0.2-1.5,0.5l-1,0.3c-0.1,0-0.2,0.1-0.2,0.3l-0.2,1l-0.2,1.1l-0.4,2.3c0,0.1,0,0.2,0.1,0.3
			C2.9,77,3,77.1,3.1,77.1c0,0,0.1,0,0.1,0l2.3-0.5C6.7,76.2,7.9,76.1,9,76c0.4,0,1,0,1.5,0c0.2,0,0.4,0,0.5,0c0,0,0,0,0,0
			c2,0,2.5,0,2.8,0c0.4,0,0.8-0.1,1.2-0.1l1-0.2c0.1,0,0.2-0.1,0.3-0.3l0.2-1l0.3-1.1l0.6-2.4c0-0.1,0-0.2-0.1-0.3
			c-0.1-0.1-0.2-0.1-0.2-0.1c0,0,0,0-0.1,0l-2.4,0.5c-0.4,0.1-0.8,0.1-1.2,0.2c0,0-0.1,0-0.1,0c0.2-0.8,0.4-1.6,0.6-2.5
			c0.3-1.5,0.6-3,0.9-4.4l1.9-0.1l-0.1,1.7c0,0.1,0,0.2,0.1,0.3c0.1,0.1,0.2,0.1,0.2,0.1c0,0,0,0,0,0l1.8-0.1l1-0.1l1.3-0.1
			c0.2,0,0.3-0.1,0.3-0.3l0.1-1.3c0.2-1.7,0.4-3.3,0.7-4.9l0.4-1.9l0.9-0.1l1.3-0.1c0.2,0,0.3-0.1,0.3-0.3l0.1-1.3
			c0.1-0.7,0.4-2.4,0.8-5l0.5-2.6c0-0.1,0-0.2-0.1-0.3C26.5,47.8,26.4,47.7,26.3,47.7L26.3,47.7z M4.3,65.8c-0.4,0-0.6-0.2-0.9-0.6
			c-0.4-0.6-0.7-1.6-0.8-2.8c-0.1-2.4,0.7-4.8,2.5-6.9c1.8-2.2,4.3-3.3,7.4-3.5l7.3-0.4c0.8,0,1.7-0.2,2.7-0.3
			c0.2,0,0.7-0.2,1.4-0.4c-0.4,2.1-0.6,3.5-0.7,4.3l-0.3,0c0.1-0.9,0.2-1.4,0.1-1.7c0-0.7-0.4-1-0.7-1.2C22,52.1,21.5,52,20.9,52
			c-0.2,0-0.3,0-0.5,0l-1.2,0.1l-0.4,0L15,52.4c-0.2,0-0.3,0.1-0.3,0.3c-0.1,0.3-0.2,1-0.5,2.2c-0.5,2.5-0.9,4.5-1.2,6.1
			c0,0.1,0,0.2,0.1,0.3c0.1,0.1,0.2,0.1,0.3,0.1c0,0,0,0,0,0l3.7-0.2c1-0.1,1.6-0.2,1.9-0.4c0.3-0.2,0.5-0.7,0.7-1.3l0.3,0
			c-0.2,1.4-0.5,2.9-0.6,4.3l-0.4,0c0-0.7,0-0.8,0-0.9c0-0.3-0.2-0.7-0.7-0.9c-0.1-0.1-0.4-0.1-1.1-0.1c-0.1,0-0.3,0-0.5,0L13.1,62
			c-0.2,0-0.3,0.1-0.3,0.3c-0.3,1.8-0.6,3.7-1.1,5.7c-0.5,2-0.9,3.7-1.2,4.8c0,0.1,0,0.2,0,0.3c0.1,0.1,0.1,0.1,0.3,0.2
			c0.7,0.1,1.4,0.1,2,0.1c0.3,0,0.6,0,0.8,0c0.4,0,0.7-0.1,1-0.1l-0.1,0.4c-0.3,0-0.5,0.1-0.8,0.1c-0.3,0-1.1,0-2.6,0
			c-0.2,0-0.4,0-0.6,0c-0.6,0-1.2,0-1.7,0c-1.1,0.1-2.3,0.2-3.5,0.5l0.1-0.3c1-0.3,1.7-0.6,2.1-0.9c0.4-0.3,0.7-0.7,0.9-1.1
			c0.4-0.8,0.9-3.2,1.8-7.4l2-10.6c0-0.1,0-0.2-0.1-0.3c-0.1-0.1-0.2-0.1-0.3-0.1c0,0,0,0,0,0c-1.7,0.2-3.3,0.6-4.5,1.5
			c-1.3,0.8-2.3,1.9-3,3.2c-0.7,1.3-0.8,1.9-0.7,3.2c0,0.5,0.1,0.9,0.3,1.4c0.1,0.3,0.3,0.7,0.6,1.3c0.5,0.8,0.6,1.1,0.6,1.2
			c0,0.2,0,0.3-0.2,0.5C4.8,65.7,4.6,65.8,4.3,65.8C4.4,65.8,4.3,65.8,4.3,65.8L4.3,65.8z M16.6,54.5l2.3-0.1l0.3,0l0.1,0
			c0,0,0,0,0,0l0.1,0l1.2-0.1c0,0,0,0,0,0c0,0.3-0.1,0.6-0.1,1l-0.3,1.8l-1,0.1L18,57.3c-0.2,0-0.3,0.1-0.3,0.3l-0.2,1.2
			c0,0,0,0.1,0,0.1c-0.1,0-0.3,0-0.5,0L15.7,59c0.2-1.1,0.5-2.3,0.7-3.6L16.6,54.5L16.6,54.5z"/>
	</g>
	<g id="XMLID_709_">
		<g id="XMLID_710_">
			<path id="XMLID_383_" class="st0" d="M26.1,75.5c-0.9,0-1.7-0.3-2.3-1c-0.6-0.6-0.9-1.4-1-2.4c0-0.8,0-2.3,0.8-6.8l1.5-8.4
				c0.6-3.2,1.1-5.4,1.6-6.6c0.8-1.9,2.1-3.5,3.8-4.6c1.7-1.1,3.5-1.8,5.4-1.9c1-0.1,1.9,0.2,2.6,0.7c0.8,0.6,1.2,1.4,1.3,2.3
				c0.1,1-0.3,1.9-1,2.5c-0.6,0.6-1.5,0.9-2.5,1c-0.5,0-1.1,0-1.9-0.1c-0.5-0.1-0.9-0.1-1.3,0c-0.1,0.2-0.2,0.4-0.3,0.9
				c-0.2,0.9-0.6,2.9-1.1,5.7l-1.4,8c-0.2,1.1-0.4,2.1-0.5,2.8c0.3-0.3,0.5-0.5,0.8-0.8l1-1.1c0.2-2.1,0.9-4.1,2-6
				c2.1-3.5,4.9-5.3,8.4-5.5c1.8-0.1,3.4,0.5,4.7,1.9c0.4,0.4,0.7,0.8,1,1.3c1.4-1.4,2.5-2.3,3.4-2.8c1.1-0.7,2.1-1.1,3-1.1
				c0.9-0.1,1.7,0.3,2.3,0.9c0.5,0.5,0.8,1.3,0.9,2.2c0,0.7,0,2.2-1,7c-0.2,1.1-0.4,2-0.5,2.7c0,0,0.1-0.1,0.1-0.1
				c1-1,1.6-2,1.8-3.2l1.8-9.1c0-0.2,0.2-0.3,0.3-0.3l6-0.4c0.1,0,0.2,0,0.3,0.1c0.1,0.1,0.1,0.2,0.1,0.3l-0.6,2.7
				c1-1.1,2.1-2,3.1-2.6c1.5-0.9,2.6-1.4,3.6-1.4c0.1,0,0.1,0,0.2,0c0.6,0,1.1,0.2,1.6,0.5c0.2,0.1,0.3,0.3,0.5,0.5
				c0.2-0.2,0.3-0.3,0.5-0.5c1.1-1.1,2.1-1.6,3.1-1.7c0.9-0.1,1.7,0.2,2.3,0.8c0.5,0.4,0.8,0.9,1,1.4c1.2-1,2.7-1.6,4.5-1.7
				c1.5-0.1,2.8,0.2,3.8,0.8c1.5,0.9,1.9,2.1,1.9,3l0,0c0.1,0.9-0.2,1.7-0.8,2.3c-0.6,0.6-1.4,1-2.2,1.1c-0.6,0-1.2-0.1-1.6-0.3
				c-0.4-0.2-0.8-0.6-1.4-1.2c-0.2-0.2-0.3-0.3-0.4-0.4c0,0,0,0,0,0.1c0,0.2,0.1,0.4,0.2,0.6c0,0.1,0.4,0.5,1.7,1.8
				c1.9,1.7,2.8,3.6,3,5.4c0.1,1.9-0.6,3.6-2.1,5.1c-1.4,1.4-3.3,2.2-5.5,2.3c-2,0.1-3.5-0.2-4.7-1.1c-1.2-0.9-1.9-2.2-2-3.6
				c-0.1-0.9,0.2-1.8,0.8-2.5c0.6-0.7,1.4-1.1,2.3-1.2c0.8-0.1,1.6,0.2,2.3,0.7c0.7,0.6,1.1,1.3,1.1,2.2c0,0.1,0,0.3,0,0.5
				c0.4,0,0.7-0.1,1-0.2c0.2-0.1,0.3-0.2,0.3-0.3c0.1-0.2,0.1-0.3,0.1-0.4c0-0.1-0.1-0.2-0.2-0.4c-0.1-0.2-0.5-0.6-1.7-1.9
				c-1.7-1.7-2.7-3.5-2.8-5.4c0-0.4,0-0.8,0-1.1c-0.3,0.1-0.6,0.2-0.9,0.4c-0.7,0.3-1.3,0.6-1.7,1c-0.4,0.4-0.9,1-1.5,1.8
				c-0.5,0.8-0.9,1.5-1.1,2c-0.1,0.3-0.4,1.4-0.9,4.5l-0.8,5c0,0.2-0.2,0.3-0.3,0.3l-6.1,0.4c-0.1,0-0.2,0-0.3-0.1
				c-0.1-0.1-0.1-0.2-0.1-0.3l0.5-2.4c-2.3,2.6-4.1,3.8-5.7,3.9c-1,0.1-1.8-0.3-2.5-0.9c-0.3-0.3-0.5-0.6-0.7-0.9
				c-0.4,0.3-0.7,0.6-1.1,0.8c-1.4,0.9-2.6,1.4-3.8,1.5c-1,0.1-1.9-0.3-2.6-0.9c-0.6-0.6-0.9-1.5-1-2.6c0-0.6,0-1.3,0.1-2
				c0.1-0.9,0.4-2.5,1-5c0.1-0.5,0.2-0.9,0.3-1.4l-0.2,0.2c-0.1,0.1-0.3,0.1-0.4,0L48.8,62c0,3-1,5.8-2.9,8.3
				c-2.2,2.8-4.7,4.3-7.4,4.5c-1.9,0.1-3.5-0.4-4.8-1.7c-0.4-0.4-0.8-0.8-1.1-1.3c-0.6,0.6-1.3,1.2-2,1.7c-1.6,1.2-3,1.9-4.3,2
				C26.2,75.5,26.2,75.5,26.1,75.5z M36.3,44.4c-0.1,0-0.2,0-0.3,0c-1.8,0.1-3.5,0.7-5.1,1.8c-1.6,1.1-2.8,2.5-3.5,4.3
				c-0.5,1.2-1,3.3-1.6,6.4l-1.5,8.4c-0.8,4.5-0.9,5.9-0.8,6.7c0,0.8,0.3,1.5,0.8,2c0.5,0.5,1.2,0.8,2,0.8c1.1-0.1,2.4-0.7,3.9-1.8
				c0.8-0.6,1.5-1.3,2.2-2c0.1-0.1,0.2-0.1,0.3-0.1c0.1,0,0.2,0.1,0.3,0.2c0.3,0.6,0.7,1.1,1.1,1.6c1.1,1.1,2.6,1.6,4.3,1.5
				c2.6-0.2,4.9-1.6,6.9-4.2c2-2.6,2.9-5.4,2.8-8.5c0-0.1,0.1-0.3,0.2-0.3c0.1-0.1,0.3-0.1,0.4,0l0.8,0.6l0.8-0.9
				c0.1-0.1,0.3-0.1,0.4-0.1c0.1,0.1,0.2,0.2,0.2,0.4c-0.1,0.7-0.3,1.6-0.5,2.6c-0.5,2.5-0.9,4.1-1,5c-0.1,0.7-0.1,1.3-0.1,1.9
				c0.1,0.9,0.3,1.7,0.8,2.2c0.5,0.5,1.2,0.8,2,0.7c1-0.1,2.2-0.5,3.4-1.3c0.5-0.3,1-0.7,1.4-1.1c0.1-0.1,0.2-0.1,0.3-0.1
				c0.1,0,0.2,0.1,0.2,0.2c0.1,0.4,0.4,0.8,0.7,1.1c0.6,0.5,1.2,0.8,2,0.7c1.6-0.1,3.5-1.5,6.1-4.6c0.1-0.1,0.3-0.2,0.4-0.1
				c0.1,0.1,0.2,0.2,0.2,0.4l-0.6,3.2l5.4-0.3l0.8-4.7c0.5-3.2,0.8-4.2,0.9-4.6c0.2-0.6,0.6-1.3,1.2-2.2c0.6-0.9,1.1-1.5,1.6-1.9
				c0.5-0.4,1.1-0.7,1.9-1.1c0.6-0.2,1.1-0.5,1.4-0.7c0.1-0.1,0.3-0.1,0.4,0c0.1,0.1,0.2,0.2,0.1,0.4c-0.1,0.5-0.2,1.1-0.1,1.6
				c0.1,1.7,1,3.3,2.6,4.9c1.2,1.2,1.6,1.7,1.8,2c0.2,0.3,0.3,0.5,0.3,0.7c0,0.2-0.1,0.5-0.2,0.8c-0.1,0.3-0.3,0.5-0.6,0.6
				c-0.3,0.2-0.8,0.3-1.3,0.3c-0.2,0-0.4,0-0.5,0c-0.1,0-0.2-0.2-0.2-0.3c0-0.1,0-0.1,0-0.2c0-0.2,0-0.4,0-0.6
				c0-0.7-0.3-1.2-0.9-1.7c-0.5-0.4-1.1-0.6-1.8-0.6c-0.7,0-1.4,0.4-1.9,0.9c-0.5,0.5-0.7,1.2-0.6,2c0.1,1.3,0.7,2.3,1.7,3.1
				c1,0.7,2.4,1.1,4.2,1c2.1-0.1,3.8-0.8,5.1-2.1c1.3-1.3,2-2.9,1.9-4.6c-0.1-1.7-1-3.3-2.7-4.9c-1.4-1.3-1.7-1.8-1.8-2
				c-0.2-0.3-0.3-0.6-0.3-0.9c0-0.3,0.1-0.5,0.2-0.6c0.1-0.2,0.3-0.2,0.4-0.3c0.1,0,0.1,0,0.2,0c0.1,0,0.4,0.2,0.8,0.7
				c0.5,0.6,0.8,0.9,1.2,1.1c0.4,0.2,0.8,0.3,1.3,0.3c0.7,0,1.3-0.3,1.8-0.8c0.5-0.5,0.7-1.1,0.7-1.8l0,0c0-0.7-0.3-1.7-1.6-2.4
				c-0.9-0.5-2-0.8-3.4-0.7c-1.8,0.1-3.4,0.8-4.5,2c-0.1,0.1-0.2,0.1-0.4,0.1c-0.1,0-0.2-0.2-0.2-0.3c-0.1-0.6-0.3-1.2-0.8-1.6
				c-0.5-0.4-1.1-0.7-1.9-0.6c-0.8,0.1-1.7,0.5-2.7,1.5c-0.3,0.3-0.5,0.5-0.8,0.8c-0.1,0.1-0.2,0.1-0.3,0.1c-0.1,0-0.2-0.1-0.3-0.2
				c-0.1-0.2-0.3-0.4-0.5-0.6c-0.4-0.3-0.8-0.4-1.3-0.4c-0.9,0.1-1.9,0.5-3.3,1.3c-1.3,0.8-2.5,1.9-3.7,3.4l-0.1,0.1
				c-0.1,0.1-0.3,0.2-0.4,0.1c-0.1-0.1-0.2-0.2-0.2-0.4l0.7-3.6l-5.3,0.3l-1.8,8.8c-0.3,1.3-0.9,2.4-2,3.5c-0.3,0.3-0.6,0.6-0.9,0.9
				c-0.1,0.1-0.3,0.1-0.4,0s-0.2-0.2-0.2-0.4c0.1-0.9,0.4-2.2,0.7-3.7c1-4.7,1-6.1,1-6.8c0-0.8-0.3-1.4-0.7-1.8
				c-0.4-0.5-1.1-0.7-1.7-0.7c-0.8,0-1.6,0.4-2.7,1c-0.9,0.5-2.1,1.5-3.6,3.1c-0.1,0.1-0.2,0.1-0.3,0.1c-0.1,0-0.2-0.1-0.3-0.2
				c-0.3-0.6-0.6-1.1-1.1-1.6c-1.1-1.2-2.6-1.8-4.1-1.7c-3.3,0.2-5.9,2-7.9,5.2c-1.1,1.8-1.7,3.8-1.9,5.8c0,0.1,0,0.2-0.1,0.2
				l-1.1,1.2c-0.5,0.6-1,1.1-1.6,1.6c-0.1,0.1-0.3,0.1-0.4,0C29,68.8,29,68.7,29,68.5c0.1-0.9,0.4-2.1,0.6-3.8l1.4-8
				c0.5-2.9,0.9-4.8,1.1-5.7c0.2-0.7,0.3-1,0.4-1.2c0-0.1,0.1-0.1,0.2-0.2c0.1,0,0.1,0,0.2,0c0.4,0,0.9,0,1.5,0
				c0.8,0.1,1.4,0.1,1.8,0.1c0.9-0.1,1.6-0.3,2.1-0.8c0.5-0.5,0.8-1.2,0.8-2c0-0.7-0.4-1.4-1-1.8C37.7,44.6,37.1,44.4,36.3,44.4z
				 M26.1,73.9c-0.4,0-0.8-0.2-1.2-0.5l0,0c-0.3-0.3-0.5-0.8-0.5-1.4c-0.1-1,0.2-3.2,0.8-6.4l1.5-8.4c0.6-3.1,1.1-5.1,1.5-6.2
				c0.7-1.6,1.8-3,3.2-4c1.4-1,3-1.5,4.6-1.6c0.6,0,1.1,0.1,1.5,0.4c0.4,0.3,0.6,0.7,0.7,1.2c0,0.5-0.1,0.9-0.5,1.3
				c-0.3,0.3-0.9,0.5-1.5,0.6c-0.4,0-0.9,0-1.7-0.1c-0.6-0.1-1.1-0.1-1.6,0c-0.4,0-0.7,0.1-0.9,0.3c-0.2,0.2-0.5,0.7-0.8,1.8
				c-0.2,1-0.6,2.9-1.1,5.8l-1.4,8c-0.9,5.1-1,6.1-1,6.2c0,0.2,0.1,0.2,0.1,0.2l0.1,0.3l0-0.3c0.1,0,0.4-0.1,1-0.5
				c0.9-0.7,1.9-1.5,2.8-2.5c0.1-0.1,0.2-0.1,0.4-0.1c0.1,0,0.2,0.2,0.2,0.3c0,0.4,0.1,0.8,0.2,1.2c0,0.1,0,0.2-0.1,0.3
				c-0.8,0.9-1.7,1.7-2.7,2.5c-1.4,1-2.5,1.6-3.4,1.6C26.2,73.9,26.1,73.9,26.1,73.9z M25.4,72.9c0.2,0.2,0.4,0.3,0.7,0.3
				c0.8,0,1.8-0.6,3-1.5c0.9-0.7,1.7-1.5,2.5-2.3c0-0.1,0-0.3-0.1-0.4c-0.8,0.8-1.6,1.5-2.4,2.1c-0.6,0.4-1,0.6-1.4,0.6l-0.1,0
				c-0.2,0-0.7-0.1-0.8-0.9c0-0.1,0-0.3,1-6.4l1.4-8c0.5-2.9,0.9-4.8,1.1-5.8c0.3-1.1,0.6-1.8,1-2.1c0.3-0.3,0.8-0.4,1.4-0.5
				c0.5,0,1.1,0,1.7,0.1c0.7,0.1,1.2,0.1,1.6,0.1c0.5,0,0.9-0.2,1.1-0.4c0.2-0.2,0.3-0.5,0.3-0.8c0-0.3-0.1-0.5-0.4-0.7
				C37,46.1,36.6,46,36.2,46c-1.5,0.1-3,0.6-4.3,1.5c-1.3,0.9-2.3,2.1-3,3.7c-0.4,1-0.9,3.1-1.5,6.1l-1.5,8.4
				C25.3,68.9,25,71,25.1,72C25.1,72.4,25.2,72.7,25.4,72.9L25.4,72.9z M37.9,73.2c-1.3,0-2.4-0.4-3.2-1.2l0,0
				c-0.5-0.5-1-1.2-1.2-1.9c-0.1-0.3-0.2-0.7-0.3-1c0-0.2-0.1-0.4-0.1-0.6l0-0.1c0,0,0-0.1,0-0.1c0-0.3,0-0.6,0-1
				c0-2.4,0.7-4.6,1.9-6.7c1.8-3,4.2-4.6,7.1-4.8c1.4-0.1,2.5,0.4,3.4,1.4c0.5,0.5,0.9,1.2,1.1,1.9c0.1,0.3,0.2,0.7,0.3,1
				c0.1,0.4,0.1,0.9,0.2,1.3c0.2,2.9-0.7,5.6-2.6,8c-1.9,2.4-4,3.7-6.3,3.8C38.2,73.2,38.1,73.2,37.9,73.2z M42.4,56.4
				c-0.1,0-0.2,0-0.3,0c-2.7,0.2-4.9,1.7-6.6,4.4c-1.2,2-1.8,4.1-1.8,6.4c0,0.3,0,0.6,0,0.9c0,0,0,0.1,0,0.1l0,0.1
				c0,0.2,0,0.4,0.1,0.6c0.1,0.3,0.1,0.6,0.2,0.9c0.2,0.7,0.6,1.2,1,1.7l0,0c0.8,0.8,1.8,1.1,3.1,1c2.1-0.1,4-1.3,5.8-3.6
				c1.8-2.3,2.6-4.8,2.4-7.5c0-0.4-0.1-0.8-0.2-1.2c-0.1-0.3-0.1-0.6-0.2-0.9c-0.2-0.7-0.6-1.2-1-1.7C44.3,56.8,43.5,56.4,42.4,56.4
				z M51.9,72.4c-0.5,0-0.9-0.2-1.2-0.5c-0.3-0.3-0.5-0.9-0.6-1.6c0-0.5,0-1.1,0.1-1.7c0.1-0.8,0.4-2.4,1-4.9c0.8-3.8,1-5.1,0.9-5.5
				c0-0.2,0-0.2,0-0.2c-0.1,0-0.3,0.1-0.7,0.4c-0.4,0.2-1,0.8-1.8,1.8c-0.1,0.1-0.3,0.1-0.4,0l-0.9-0.6c-0.1-0.1-0.1-0.1-0.1-0.3
				c0-0.1,0-0.2,0.1-0.3c1.6-1.7,2.9-2.7,3.8-3.3c0.9-0.6,1.7-0.9,2.3-0.9c0,0,0.1,0,0.1,0c0.4,0,0.7,0.1,0.9,0.4
				c0.3,0.3,0.4,0.7,0.4,1.2c0.1,0.9-0.3,3.1-1,6.6c-0.8,3.8-0.9,5-0.9,5.2c0,0.2,0.1,0.3,0.2,0.4c0.2,0.2,0.3,0.2,0.3,0.2
				c0.4,0,1.2-0.4,2.7-1.8c1.2-1.2,1.9-2.5,2.2-4l1.6-7.9c0-0.2,0.2-0.3,0.3-0.3l2.7-0.2c0.1,0,0.2,0,0.3,0.1
				c0.1,0.1,0.1,0.2,0.1,0.3l-1.4,6.7c-1,4.8-1.2,6.2-1.2,6.6c0,0.1,0,0.2,0.1,0.3c0.1,0.1,0.1,0.1,0.1,0.1c0.1,0,0.3-0.1,0.6-0.3
				c0.4-0.3,1.1-1.1,2.2-2.3c0.1-0.1,0.2-0.1,0.2-0.1c0.1,0,0.2,0,0.3,0.1l0.7,0.7c0.1,0.1,0.1,0.3,0,0.5c-2.5,2.9-4.3,4.3-5.6,4.4
				c0,0-0.1,0-0.1,0c-0.5,0-0.9-0.2-1.2-0.5c-0.4-0.4-0.6-0.9-0.6-1.5c0-0.4,0-0.9,0.1-1.5c-0.9,1-2,1.9-3.2,2.8
				c-1.1,0.7-2.1,1.1-3,1.2C52,72.4,52,72.4,51.9,72.4z M52.1,57.5c0.2,0,0.7,0.1,0.7,0.8c0,0.6-0.3,2.5-0.9,5.6
				c-0.5,2.4-0.8,4.1-1,4.8c-0.1,0.5-0.1,1.1-0.1,1.5c0,0.5,0.2,0.9,0.4,1.1c0.2,0.2,0.5,0.3,0.8,0.3c0.7,0,1.6-0.4,2.6-1.1
				c1.6-1,2.9-2.2,3.9-3.6c0.1-0.1,0.3-0.2,0.4-0.1c0.1,0.1,0.2,0.2,0.2,0.4c-0.2,1.1-0.3,1.9-0.2,2.6c0,0.5,0.2,0.8,0.4,1.1h0
				c0.2,0.2,0.5,0.3,0.8,0.3c0.7,0,2.2-0.8,4.9-3.9l-0.2-0.2c-1,1.1-1.7,1.8-2,2.1c-0.3,0.3-0.6,0.4-0.9,0.4c0,0,0,0,0,0
				c-0.2,0-0.4,0-0.6-0.3c-0.2-0.2-0.3-0.4-0.3-0.8c0-0.4,0.1-1.5,1.2-6.7l1.3-6.3l-2,0.1l-1.5,7.6c-0.3,1.6-1.1,3-2.4,4.3
				c-1.3,1.3-2.3,2-3.1,2l-0.1,0c-0.3,0-0.5-0.1-0.8-0.4c-0.2-0.2-0.4-0.5-0.4-0.9c0-0.3,0.1-1.2,0.9-5.4c0.7-3.4,1-5.6,1-6.4
				c0-0.4-0.1-0.7-0.3-0.8c-0.1-0.1-0.3-0.2-0.4-0.2l-0.1,0c-0.5,0-1.1,0.3-1.9,0.8c-0.8,0.5-1.9,1.4-3.3,2.9l0.3,0.2
				c0.8-0.9,1.4-1.4,1.8-1.6C51.4,57.6,51.8,57.5,52.1,57.5C52.1,57.5,52.1,57.5,52.1,57.5z M67.8,70.9c-0.1,0-0.2,0-0.3-0.1
				c-0.1-0.1-0.1-0.2-0.1-0.3l1-5.2c0.5-2.5,0.9-4.9,1.3-7.2c0.1-0.7,0.1-0.9,0.1-1c0-0.1,0-0.1,0-0.1c0,0,0,0,0,0
				c-0.1,0-0.2,0-0.7,0.4c-0.4,0.3-1,0.9-2,2c-0.1,0.1-0.2,0.1-0.2,0.1c-0.1,0-0.2,0-0.3-0.1L66,58.8c-0.1-0.1-0.1-0.3,0-0.5
				c1.2-1.4,2.3-2.5,3.5-3.2c1.2-0.8,2.2-1.2,2.9-1.2c0.3,0,0.6,0,0.8,0.2c0.2,0.2,0.4,0.4,0.4,0.7c0,0.1,0,0.4-0.2,1.4L73,57.7
				c0.9-1.4,2-2.8,3.1-3.9c0.8-0.8,1.5-1.2,2.1-1.2c0.5,0,0.9,0.1,1.2,0.4c0.3,0.3,0.5,0.7,0.5,1.1c0,0.4-0.1,0.8-0.4,1.1
				c-0.3,0.3-0.9,0.6-1.9,1.1c-0.9,0.4-1.6,0.8-2.1,1.2c-0.5,0.5-1.1,1.2-1.7,2.1l0,0c-0.6,0.9-1.1,1.7-1.3,2.4
				c-0.2,0.7-0.6,2.3-1,4.7l-0.6,3.7c0,0.2-0.2,0.3-0.3,0.3L67.8,70.9C67.8,70.9,67.8,70.9,67.8,70.9z M69.7,56.3
				c0.4,0,0.7,0.3,0.7,0.8c0,0.1,0,0.3-0.1,1.1c-0.3,2.3-0.8,4.7-1.3,7.2l-0.9,4.7l2.1-0.1l0.6-3.5c0.4-2.5,0.8-4.1,1-4.8
				c0.2-0.7,0.7-1.6,1.4-2.5l0,0c0.7-1,1.3-1.7,1.9-2.2c0.6-0.5,1.4-0.9,2.3-1.3c1.2-0.5,1.6-0.8,1.7-0.9c0.2-0.2,0.2-0.4,0.2-0.6
				c0-0.2-0.1-0.4-0.3-0.6c-0.2-0.2-0.4-0.2-0.7-0.2c-0.3,0-0.8,0.2-1.7,1c-1.5,1.5-2.8,3.3-4,5.4c-0.1,0.1-0.3,0.2-0.4,0.2
				c-0.2-0.1-0.3-0.2-0.2-0.4l0.6-3.5c0.2-0.9,0.2-1.2,0.2-1.2c0-0.1,0-0.1-0.1-0.1c-0.1-0.1-0.2-0.1-0.3-0.1
				c-0.6,0-1.4,0.4-2.6,1.1c-1.1,0.7-2.1,1.6-3.2,2.8l0.1,0.1c0.9-1,1.4-1.5,1.8-1.8C69.1,56.5,69.4,56.3,69.7,56.3
				C69.7,56.3,69.7,56.3,69.7,56.3z M81.8,70.5c-1.3,0-2.3-0.3-3-0.8c-0.9-0.6-1.3-1.5-1.4-2.5c0-0.5,0.1-1,0.4-1.4
				c0.3-0.4,0.7-0.6,1.2-0.6c0,0,0.1,0,0.1,0c0.4,0,0.7,0.1,1.1,0.4c0.3,0.3,0.5,0.6,0.6,1c0,0.1,0,0.3,0,0.5c0,0.1,0,0.3,0,0.4
				c0,0.3,0.2,0.6,0.5,0.8c0.3,0.2,0.7,0.3,1.2,0.3c0.6,0,1.2-0.2,1.6-0.4c0.4-0.2,0.8-0.6,1-1c0.2-0.4,0.3-0.9,0.3-1.3
				c0-0.4-0.2-0.8-0.4-1.2c-0.3-0.4-0.9-1.1-1.9-2.1c-1.5-1.4-2.2-2.9-2.3-4.3c-0.1-1.3,0.4-2.5,1.4-3.6c1-1,2.3-1.6,3.9-1.7
				c1.2-0.1,2.1,0.1,2.8,0.5c0.7,0.5,1.1,1,1.2,1.7c0,0.4-0.1,0.8-0.4,1.2c-0.3,0.3-0.7,0.5-1.1,0.5c-0.3,0-0.6,0-0.8-0.2
				c-0.2-0.1-0.5-0.4-0.9-0.8c-0.6-0.7-1.1-1-1.6-1c-0.4,0-0.8,0.2-1.1,0.6c-0.3,0.4-0.5,0.8-0.4,1.3c0,0.5,0.2,0.9,0.4,1.3
				c0.3,0.4,0.9,1.2,2,2.2c1.5,1.5,2.4,2.9,2.5,4.3c0.1,1.4-0.4,2.7-1.6,3.9c-1.1,1.1-2.7,1.8-4.5,1.9C82.2,70.5,82,70.5,81.8,70.5z
				 M79.2,65.9C79.1,65.9,79.1,65.9,79.2,65.9c-0.4,0-0.6,0.1-0.8,0.4c-0.2,0.2-0.3,0.5-0.3,0.9c0,0.8,0.4,1.4,1.1,1.9
				c0.7,0.5,1.8,0.7,3.2,0.6c1.7-0.1,3.1-0.7,4.1-1.7c1-1,1.5-2.1,1.4-3.3c-0.1-1.2-0.8-2.5-2.2-3.9c-1.1-1.1-1.8-1.8-2.1-2.3
				c-0.3-0.5-0.5-1.1-0.5-1.6c0-0.7,0.2-1.3,0.6-1.8c0.4-0.5,1-0.8,1.6-0.8c0.7,0,1.5,0.4,2.2,1.2c0.4,0.5,0.6,0.6,0.7,0.7l0,0
				c0.1,0.1,0.3,0.1,0.5,0.1c0.3,0,0.5-0.1,0.7-0.3c0.2-0.2,0.3-0.4,0.2-0.7c0-0.5-0.3-0.8-0.8-1.2c-0.6-0.4-1.4-0.5-2.4-0.4
				c-1.4,0.1-2.6,0.6-3.5,1.5c-0.9,0.9-1.3,1.9-1.2,3.1c0.1,1.3,0.8,2.6,2.1,3.9c1,1,1.7,1.7,2,2.2c0.3,0.5,0.5,1,0.5,1.5
				c0,0.5-0.1,1.1-0.4,1.6c-0.3,0.5-0.7,1-1.3,1.3c-0.5,0.3-1.2,0.5-1.9,0.5c-0.7,0-1.2-0.1-1.6-0.4c-0.4-0.3-0.7-0.8-0.7-1.3
				c0-0.1,0-0.3,0-0.4c0-0.2,0-0.4,0-0.5c0-0.2-0.1-0.4-0.3-0.6C79.6,66,79.4,65.9,79.2,65.9z M66.9,66.9c-0.1,0-0.2,0-0.2-0.1
				l-0.3-0.3c0,0,0,0,0,0l-1.6-1.6l-0.9,1c-0.2,0.2-0.3,0.3-0.4,0.5c-0.1,0.1-0.3,0.1-0.4,0.1c-0.1-0.1-0.2-0.2-0.2-0.4
				c0.2-1,0.4-2.3,0.8-3.8l0.7-3.2c0-0.1,0.1-0.2,0.2-0.3c0.1,0,0.3,0,0.3,0.1l2,2l1-1.1c0.1-0.1,0.3-0.1,0.4-0.1
				c0.1,0.1,0.2,0.2,0.2,0.4c-0.3,1.6-0.6,3.3-0.9,5l-0.3,1.5c0,0.1-0.1,0.2-0.2,0.3C67,66.9,67,66.9,66.9,66.9z M64.7,64
				c0.1,0,0.2,0,0.2,0.1l1.7,1.7l0.2-0.9c0.2-1.3,0.5-2.5,0.7-3.8l-0.4,0.5c-0.1,0.1-0.2,0.1-0.2,0.1c-0.1,0-0.2,0-0.3-0.1l-1.8-1.8
				l-0.5,2.6c-0.2,0.9-0.4,1.8-0.5,2.6l0.7-0.8C64.5,64.1,64.6,64,64.7,64C64.7,64,64.7,64,64.7,64z"/>
		</g>
	</g>
	<path id="XMLID_324_" class="st1" d="M46.1,9.4c-23,0-41.7,18.7-41.7,41.7c0,23,18.7,41.7,41.7,41.7c23,0,41.7-18.7,41.7-41.7
		C87.8,28.1,69.2,9.4,46.1,9.4z M46.1,88.8c-20.8,0-37.7-16.9-37.7-37.6c0-20.8,16.9-37.7,37.7-37.7c20.8,0,37.6,16.9,37.6,37.7
		C83.8,71.9,66.9,88.8,46.1,88.8z"/>
	<g id="XMLID_701_">
		<path id="XMLID_870_" class="st0" d="M46.1,12.2c-21.5,0-39,17.5-39,39c0,21.5,17.5,39,39,39c21.5,0,39-17.5,39-39
			C85.1,29.7,67.6,12.2,46.1,12.2z M46.1,88.8c-20.8,0-37.7-16.9-37.7-37.6c0-20.8,16.9-37.7,37.7-37.7c20.8,0,37.6,16.9,37.6,37.7
			C83.8,71.9,66.9,88.8,46.1,88.8z"/>
	</g>
	<g id="XMLID_698_">
		<path id="XMLID_321_" class="st2" d="M83.8,51.2c0,20.8-16.9,37.6-37.6,37.6c-7.7,0-14.8-2.3-20.7-6.2
			C15.2,75.9,8.5,64.3,8.5,51.2c0-20.8,16.9-37.7,37.7-37.7c6.8,0,13.1,1.8,18.6,4.9C76.1,24.9,83.8,37.2,83.8,51.2z"/>
	</g>
	<g id="XMLID_697_">
		<path id="XMLID_866_" class="st1" d="M81.6,49.9c0,20.8-16.9,37.6-37.6,37.6c-6.8,0-13.1-1.8-18.6-4.9c-0.6-0.4-1.2-0.8-1.8-1.3
			C14.4,74.5,8.5,63.5,8.5,51.2c0-20.8,16.9-37.7,37.7-37.7c6.8,0,13.1,1.8,18.6,4.9c0.8,0.5,1.6,1.1,2.3,1.7
			C75.9,27,81.6,37.8,81.6,49.9z"/>
	</g>
	<g id="XMLID_694_">
		<path id="XMLID_319_" class="st3" d="M81.6,49.9c0,20.8-16.9,37.6-37.6,37.6c-6.8,0-13.1-1.8-18.6-4.9c-0.6-0.4-1.2-0.8-1.8-1.3
			C15.3,74.4,10,64,10,52.4c0-20.8,16.9-37.7,37.7-37.7c6.8,0,13.1,1.8,18.6,4.9c0.3,0.2,0.6,0.3,0.8,0.5
			C75.9,27,81.6,37.8,81.6,49.9z"/>
	</g>
	<g id="XMLID_693_">
		<path id="XMLID_862_" class="st1" d="M41.3,39.6c0.1-0.1,0.1-0.1,0.2-0.2c0.5-0.8,1-1.6,1.1-2.5c0.1-0.8-0.2-1.6-0.6-2.4
			c-0.6-1.4-1.4-3-2.8-3.9c-0.2-0.1-0.3-0.2-0.5-0.2c0,0,0,0-0.1-0.1l0,0c-0.1-0.1-0.2-0.2-0.3-0.2c-0.1-0.1-0.2-0.2-0.2-0.2
			c-0.2-0.2-0.5-0.2-0.7,0c-0.1,0.1-0.1,0.2-0.2,0.3c-0.9-1.3-2.2-2.3-3.7-2.9c-0.2-0.1-0.4-0.1-0.7-0.1c0,0,0,0,0-0.1
			c-0.2-0.3-0.5-0.5-0.7-0.7c-0.4-0.4-0.7-0.7-0.8-0.7c-0.2-0.2-0.5-0.2-0.7,0c-0.1,0.1-0.2,0.3-0.2,0.4c-0.4-0.3-0.9-0.5-1.4-0.7
			c-0.1-0.1-0.2-0.1-0.4-0.1c-0.3-0.3-0.6-0.5-0.8-0.7c-0.5-0.4-0.9-0.7-0.9-0.7c-0.2-0.2-0.5-0.1-0.7,0.1c-0.1,0.1-0.2,0.3-0.2,0.4
			c-0.7-0.4-1.4-0.7-2.2-0.8c-0.3-0.1-0.5,0-0.8,0.1c-0.3-0.2-0.5-0.3-0.8-0.5c-0.6-0.3-0.9-0.5-1-0.6c-0.2-0.1-0.4-0.1-0.6,0
			c-0.6-0.2-1.1-0.3-1.8-0.2c-0.1,0-0.2,0-0.2,0c-0.2-0.2-0.4-0.3-0.6-0.5c-0.3-0.3-0.6-0.5-0.9-0.7l-0.9-0.7
			c-0.2-0.1-0.3-0.2-0.3-0.2c-0.2-0.2-0.6-0.1-0.8,0.1c-0.2,0.2-0.2,0.5,0,0.8c0,0,0.1,0.1,0.2,0.3c0.1,0.2,0.4,0.4,0.7,0.7
			c0.2,0.2,0.5,0.5,0.8,0.8c-0.7-0.4-1.6-0.6-2.4-0.8c-0.5-0.1-1.1-0.2-1.6-0.3c-0.2,0-0.5-0.1-0.8-0.2l0.1-0.2c0,0-0.3-0.6-1.2-0.2
			c0,0-1.4-0.9-1.8,0.2c0,0-0.9,1,0.7,1.8c0,0,0.4,1,1,0.9l0.1-0.2c0,0,0,0,0.1,0.1c0.3,0.3,0.5,0.6,0.8,0.9c-0.1,0-0.1,0-0.2,0
			c-1.1,0-2.1,0.2-3.1,0.6l0.1-0.3c0,0-2.6,0-3.3,2c0,0-2.2,0.9-0.2,1.8c0.9,0.4,1.2,0.6,1.4,0.7L7,29.5c1.5,0.7,3.3,0.9,4.9,1.3
			c0.4,0.1,0.8,0.1,1.1,0.1c-0.3,0.3-0.6,0.6-0.9,0.9c-0.2,0.2-0.3,0.4-0.3,0.7c-0.2,0.1-0.3,0.2-0.4,0.4c-0.1,0.1-0.3,0.3-0.4,0.4
			c-0.1,0.1-0.2,0.2-0.3,0.3c-0.1,0.2-0.2,0.3-0.2,0.3c-0.2,0.2-0.1,0.6,0.1,0.8c0.1,0.1,0.3,0.2,0.4,0.2c0.1,0,0.3,0,0.4-0.1
			c0,0,0.1-0.1,0.3-0.2c0,0,0,0,0,0c0,0,0.1-0.1,0.2-0.1l0.1-0.1c0.1-0.1,0.2-0.2,0.4-0.3c0.1,0,0.1-0.1,0.2-0.1
			c0.1,0.1,0.3,0.1,0.5,0.1c1-0.1,2-0.1,3-0.2c-0.1,0-0.1,0.1-0.2,0.1c-0.2,0.1-0.4,0.3-0.6,0.5c-0.1,0.1-0.2,0.2-0.2,0.2
			c-0.2,0.2-0.2,0.5,0,0.7c0.1,0.2,0.3,0.2,0.5,0.2c0.1,0,0.2,0,0.2-0.1l0.9-0.4c0.2-0.1,0.4-0.2,0.6-0.3c1.1,0.3,2.3,0.4,3.4,0.2
			c-0.1,0.1-0.3,0.2-0.4,0.3c-0.5,0.4-0.8,0.7-0.8,0.7c-0.2,0.2-0.2,0.5-0.1,0.7c0.1,0.2,0.3,0.3,0.5,0.3c0.1,0,0.1,0,0.2,0
			c0,0,0.1,0,0.3-0.1c0.2-0.1,0.4-0.2,0.6-0.3l0.6-0.3c0.8,0.3,1.7,0.4,2.7,0.4c-0.4,0.2-0.6,0.3-0.6,0.4c-0.2,0.1-0.3,0.4-0.2,0.7
			c0.1,0.2,0.3,0.4,0.6,0.4h0c0,0,0.4,0,0.8-0.1c0.1,0.1,0.2,0.1,0.3,0.1c0.7,0.1,1.6,0.2,2.5,0.2c0,0.3,0.2,0.5,0.5,0.5
			c0,0,0.2,0,0.5,0.1c0.1,0.1,0.3,0.3,0.5,0.3c0.8,0.2,1.7,0.5,2.5,0.7c-0.1,0-0.2,0-0.2,0c-0.3,0.1-0.4,0.3-0.4,0.5
			c0,0.3,0.2,0.5,0.4,0.6c0,0,0.2,0.1,0.4,0.1c0.1,0.2,0.2,0.3,0.5,0.4c2.6,1.1,6.1,2.5,8.3,0.2c0.9,0.6,4.2,5,4.2,5l1.3-1.3
			C45.9,44.4,42.4,40.7,41.3,39.6z"/>
	</g>
	<g id="XMLID_633_">
		<g id="XMLID_634_">
			<g id="XMLID_689_">
				<path id="XMLID_857_" class="st4" d="M41.4,34.8c-0.4-0.9-0.9-2-1.6-2.8c-0.3-0.3-0.6-0.6-0.9-0.8c-0.1-0.1-0.2-0.1-0.3-0.1
					c0-0.1-0.1-0.1-0.1-0.2c-0.1-0.1-0.2-0.2-0.2-0.3c-0.1-0.1-0.1-0.1-0.2-0.1c0,0,0,0,0,0c0,0,0,0,0,0c-0.1-0.1-0.2-0.1-0.2-0.1
					s0,0.1,0.1,0.2c0,0,0,0,0,0c0,0,0,0,0,0c0,0.1,0.1,0.1,0.1,0.2c0,0.1,0.1,0.2,0.1,0.3c0,0.1,0,0.1,0.1,0.2
					c-0.1,0.1-0.1,0.1-0.1,0.3c0,0,0,0.1,0,0.1C38.1,32,38,32.3,38,32.7c-0.1,0.9-0.1,1.7,0,2.6c0,0.3,0.1,0.6,0.2,0.8
					c0,0,0,0.1,0,0.1c0.2,0.9,0.7,1.8,1.4,2.5c0.2,0.2,0.3,0.3,0.5,0.4c0.1,0.1,0.3,0.1,0.4,0.1c0.1,0,0.3-0.1,0.4-0.2
					C41.8,37.6,42.1,36.5,41.4,34.8z M41.1,37.7c0,0.1-0.1,0.1-0.1,0.2c-0.1,0.1-0.2,0.3-0.3,0.4c0,0,0,0.1-0.1,0.1
					c-0.1,0.1-0.1,0.2-0.2,0.3c-0.1-0.1-0.2-0.2-0.3-0.3c0,0,0,0-0.1-0.1c-0.1-0.1-0.2-0.2-0.3-0.3c-0.1-0.1-0.1-0.1-0.2-0.2
					c-0.6-0.8-0.9-1.7-1.1-2.6c-0.1-0.7-0.1-1.5,0-2.2c0-0.1,0-0.3,0-0.4c0-0.2,0-0.3,0.1-0.5c0,0,0-0.1,0-0.1c0,0.1,0,0.1,0,0.1
					c0,0.2,0.1,0.3,0.1,0.5c0,0.2,0.1,0.3,0.1,0.5c0,0.1,0,0.1,0.1,0.2c0,0.1,0,0.2,0.1,0.2c0,0.1,0.1,0.2,0.1,0.4
					c0.1,0.2,0.1,0.3,0.2,0.4c0.1,0.1,0.1,0.2,0.2,0.3c0,0,0,0,0,0c0,0.1,0.1,0.1,0.1,0.2c0,0,0,0.1,0.1,0.1
					c0.1,0.1,0.1,0.1,0.1,0.1s0-0.1-0.1-0.2c0-0.1,0-0.1-0.1-0.2c0-0.1-0.1-0.2-0.1-0.4c0-0.1-0.1-0.2-0.1-0.4
					c0-0.1-0.1-0.3-0.1-0.4c0-0.2-0.1-0.4-0.1-0.7c0-0.1,0-0.2-0.1-0.3c0-0.2-0.1-0.3-0.1-0.5c0,0,0,0,0,0c0-0.1-0.1-0.2-0.1-0.3
					c0,0,0.1,0.1,0.1,0.1c0.2,0.2,0.4,0.5,0.6,0.8c0.7,1,1.3,2.3,1.6,3.1C41.5,36.6,41.4,37.1,41.1,37.7z"/>
			</g>
			<g id="XMLID_686_">
				<path id="XMLID_316_" class="st3" d="M41.1,37.7c0,0.1-0.1,0.1-0.1,0.2c-0.1,0.1-0.2,0.3-0.3,0.4c0,0,0,0.1-0.1,0.1
					c-0.1,0.1-0.1,0.2-0.2,0.3c-0.1-0.1-0.2-0.2-0.3-0.3c0,0,0,0-0.1-0.1c-0.1-0.1-0.2-0.2-0.3-0.3c-0.1-0.1-0.1-0.1-0.2-0.2
					c-0.6-0.8-0.9-1.7-1.1-2.6c-0.1-0.7-0.1-1.5,0-2.2c0-0.1,0-0.3,0-0.4c0-0.2,0-0.3,0.1-0.5c0,0,0-0.1,0-0.1c0,0.1,0,0.1,0,0.1
					c0,0.2,0.1,0.3,0.1,0.5c0,0.2,0.1,0.3,0.1,0.5c0,0.1,0,0.1,0.1,0.2c0,0.1,0,0.2,0.1,0.2c0,0.1,0.1,0.2,0.1,0.4
					c0.1,0.2,0.1,0.3,0.2,0.4c0.1,0.1,0.1,0.2,0.2,0.3c0,0,0,0,0,0c0,0.1,0.1,0.1,0.1,0.2c0,0,0,0.1,0.1,0.1
					c0.1,0.1,0.1,0.1,0.1,0.1s0-0.1-0.1-0.2c0-0.1,0-0.1-0.1-0.2c0-0.1-0.1-0.2-0.1-0.4c0-0.1-0.1-0.2-0.1-0.4
					c0-0.1-0.1-0.3-0.1-0.4c0-0.2-0.1-0.4-0.1-0.7c0-0.1,0-0.2-0.1-0.3c0-0.2-0.1-0.3-0.1-0.5c0,0,0,0,0,0c0-0.1-0.1-0.2-0.1-0.3
					c0,0,0.1,0.1,0.1,0.1c0.2,0.2,0.4,0.5,0.6,0.8c0.7,1,1.3,2.3,1.6,3.1C41.5,36.6,41.4,37.1,41.1,37.7z"/>
			</g>
			<g id="XMLID_671_">
				<path id="XMLID_839_" class="st4" d="M40.4,40.1C40.4,40.1,40.4,40.1,40.4,40.1c-0.1-0.1-0.2-0.2-0.2-0.2
					c-0.2-0.2-0.5-0.4-0.8-0.5c-0.1,0-0.2-0.1-0.3-0.1c-0.7-0.3-1.4-0.4-2.1-0.5c-0.6,0-1.1,0.1-1.7,0.2c0.5-0.2,1-0.5,1.4-0.9
					c0.1-0.1,0.2-0.2,0.3-0.4c0.1-0.1,0.1-0.3,0-0.4c0-0.1,0-0.1-0.1-0.1l0,0c0,0-0.1-0.1-0.1-0.1c-0.2-0.1-0.4-0.2-0.7-0.3
					c0,0,0,0,0,0c0,0,0,0,0,0c0,0,0,0-0.1,0c0,0,0,0,0,0c-0.1,0-0.2-0.1-0.3-0.1c-0.2-0.1-0.5-0.1-0.7-0.2c-0.7-0.1-1.4-0.2-2.1-0.2
					c-0.1,0-0.2,0-0.4,0c-0.3,0-0.5,0.1-0.8,0.1c0.1-0.1,0.3-0.2,0.4-0.3c0.1-0.2,0.3-0.3,0.4-0.5c0.1-0.2,0.2-0.4,0.2-0.6
					c0,0,0-0.1,0-0.1c0,0,0-0.1,0-0.1c0-0.1-0.1-0.2-0.2-0.3c0,0-0.1-0.1-0.1-0.1c0,0,0,0-0.1,0c-0.2-0.1-0.4-0.1-0.6-0.2
					c-0.2,0-0.4-0.1-0.5-0.1c-0.7-0.1-1.5-0.1-2.2,0.1c-0.4,0.1-0.8,0.2-1.2,0.4c0.3-0.3,0.5-0.6,0.7-0.9c0,0,0-0.1,0-0.1
					c0.1-0.3,0.2-0.6,0.3-0.9c0,0,0,0,0,0c0,0,0-0.1,0-0.1c0-0.1,0-0.3-0.1-0.3c-0.1-0.1-0.2-0.3-0.4-0.3c-0.1,0-0.3,0-0.4,0
					c-0.1,0-0.2,0-0.3,0c-0.1,0-0.2,0-0.4,0c-0.6,0-1.3,0.2-1.9,0.4c-0.7,0.2-1.3,0.5-1.9,0.8c0.4-0.3,0.8-0.7,1.2-1.1
					c0-0.1,0.1-0.1,0.1-0.2c0-0.1,0.1-0.1,0.1-0.2c0.1-0.2,0.3-0.4,0.4-0.6c0,0,0,0,0,0c0.1-0.3,0-0.6-0.3-0.7
					c0.2-0.1,0.3-0.3,0.3-0.5c0,0,0,0,0-0.1c0,0,0-0.1,0-0.1c-0.1-0.4-0.2-0.8-0.3-1.2c0.3,0.4,0.7,0.7,1,1.1
					c0.6,0.6,1.2,1.1,1.9,1.6l0,0c0,0,0.1,0,0.1,0.1c0.3,0.2,0.5,0.4,0.8,0.6c0.1,0.1,0.1,0.1,0.2,0.1c0.2,0.1,0.3,0,0.5-0.1
					c0,0,0,0,0,0c0,0,0.1-0.1,0.1-0.1c0,0,0-0.1,0.1-0.1c0-0.1,0.1-0.2,0-0.3c0-0.4-0.1-0.7-0.2-1.1c0,0,0,0,0-0.1c0,0,0,0.1,0,0.1
					c0.3,0.5,0.5,1,0.9,1.4c0,0,0,0,0,0c0.5,0.7,1.1,1.3,1.8,1.8c0.1,0,0.1,0.1,0.2,0.1c0,0,0,0,0,0c0.3,0.2,0.7,0.5,1,0.7
					c0,0,0,0,0,0c0,0,0.1,0,0.1,0c0.1,0,0.2,0,0.3,0c0,0,0.1,0,0.1-0.1c0.1-0.1,0.2-0.2,0.2-0.4c0-0.4-0.1-0.8-0.2-1.3
					c0-0.1,0-0.1,0-0.2c0,0.1,0.1,0.2,0.1,0.2c0.2,0.5,0.5,1.1,0.8,1.6c0,0,0,0.1,0.1,0.1c0.3,0.5,0.7,0.9,1.1,1.3
					c0.1,0.1,0.2,0.1,0.3,0.2c0,0,0,0,0,0c0.2,0.2,0.4,0.3,0.6,0.4c0.1,0,0.1,0.1,0.2,0.1c0,0,0,0,0,0c0.1,0,0.2,0,0.2,0
					c0.1,0,0.2-0.1,0.2-0.2c0,0,0,0,0,0c0.2-0.4,0.3-0.7,0.4-1.1c0.2-1,0.1-1.9-0.2-2.8c-0.1-0.1-0.1-0.2-0.1-0.3
					c0-0.1-0.1-0.2-0.1-0.3c-0.6-1.3-1.7-2.5-3-3.3c-0.1-0.1-0.3-0.2-0.4-0.3c-0.2-0.1-0.4-0.2-0.6-0.3c-0.1-0.1-0.3-0.1-0.4,0
					c-0.1-0.1-0.2-0.3-0.3-0.4c0-0.1-0.1-0.1-0.1-0.2c-0.2-0.2-0.4-0.4-0.5-0.6c-0.4-0.4-0.7-0.6-0.7-0.6s0.2,0.3,0.5,0.7
					c0,0,0,0,0,0.1c0.1,0.2,0.3,0.4,0.4,0.6c0,0.1,0.1,0.1,0.1,0.2c0.1,0.1,0.2,0.3,0.3,0.4c0,0,0,0,0,0.1c0,0.1,0,0.1,0,0.2
					c0.1,0.2,0.1,0.4,0.2,0.7c0.1,0.2,0.1,0.4,0.2,0.5c0.1,0.2,0.1,0.4,0.2,0.5c-0.1-0.2-0.2-0.4-0.3-0.6c-0.1-0.1-0.1-0.2-0.2-0.3
					c-0.2-0.4-0.5-0.8-0.8-1.1c-0.5-0.6-1.1-1.1-1.8-1.5c-0.1-0.1-0.2-0.1-0.3-0.2c-0.3-0.1-0.5-0.3-0.8-0.4c-0.1,0-0.2,0-0.2,0
					c-0.1-0.1-0.2-0.2-0.3-0.3c-0.1-0.1-0.2-0.2-0.3-0.2c-0.2-0.2-0.4-0.3-0.5-0.5c-0.5-0.4-0.8-0.6-0.8-0.6c0,0,0.3,0.4,0.7,0.8
					c0,0.1,0.1,0.1,0.1,0.2c0.1,0.1,0.2,0.3,0.3,0.4c0.1,0.1,0.1,0.2,0.2,0.3c0.1,0.1,0.2,0.2,0.3,0.3c0,0.1-0.1,0.2,0,0.3
					c0.1,0.3,0.1,0.7,0.2,1c0,0,0,0.1,0,0.1c0,0,0,0.1,0,0.1c0,0,0-0.1-0.1-0.1c0,0,0,0,0-0.1c-0.3-0.4-0.6-0.8-0.9-1.2
					c-0.8-0.8-1.7-1.5-2.8-1.9c-0.1,0-0.1,0-0.2-0.1c-0.3-0.1-0.6-0.2-0.9-0.3c-0.1,0-0.2,0-0.3,0c-0.1,0-0.1,0.1-0.2,0.1
					c-0.1-0.1-0.2-0.1-0.3-0.2c-0.1-0.1-0.2-0.2-0.4-0.2c-0.2-0.1-0.4-0.2-0.6-0.4c-0.5-0.3-0.9-0.5-0.9-0.5c0,0,0.3,0.4,0.8,0.8
					c0.2,0.1,0.3,0.3,0.5,0.5c0.1,0.1,0.2,0.2,0.3,0.3c0.1,0.1,0.2,0.2,0.4,0.3c0,0,0,0,0,0c0,0.1,0,0.1,0.1,0.2
					c-0.2-0.3-0.5-0.5-0.7-0.7c-0.7-0.6-1.4-1-2.2-1.1c-0.4-0.1-0.8-0.1-1.1-0.1c-0.1,0-0.2,0-0.2,0.1c-0.2-0.2-0.4-0.3-0.6-0.4
					c0,0,0,0,0,0c-0.1-0.1-0.3-0.2-0.4-0.3c-0.4-0.3-0.7-0.6-1.1-0.8c-0.3-0.2-0.6-0.4-0.8-0.5C15.9,21,15.8,21,15.8,21
					c0,0,0.1,0.1,0.2,0.3c0.1,0.2,0.4,0.4,0.6,0.7c0.3,0.3,0.6,0.6,1,0.9c0.1,0.1,0.3,0.2,0.4,0.3c0,0,0,0,0,0c0,0,0.1,0.1,0.1,0.1
					c0.1,0.1,0.3,0.2,0.4,0.4c0,0.1,0,0.1,0,0.2c0,0.2,0.1,0.4,0.2,0.6c0.1,0.2,0.1,0.4,0.2,0.5c0.3,0.8,0.7,1.5,1.2,2.3
					c0,0,0,0,0,0.1c0.4,0.5,0.8,1,1.2,1.4c0.3,0.3,0.7,0.6,1.1,0.9c0.1,0.1,0.3,0.2,0.4,0.2c0.2,0.1,0.5,0.2,0.7,0.3c0,0,0,0,0,0
					c0,0,0.1,0,0.1,0c0,0,0,0,0.1,0c0.1,0,0.1,0,0.2,0c0,0-0.1,0-0.1,0c0,0-0.1,0-0.1,0h0c-0.4,0-0.8,0-1.1,0.1c-0.1,0-0.2,0-0.2,0
					c-0.4,0.1-0.7,0.2-1,0.3c-0.5,0.2-1,0.5-1.5,0.8c0.2-0.2,0.4-0.4,0.6-0.6c0.1-0.2,0.3-0.4,0.4-0.7c0.1-0.1,0.1-0.2,0.2-0.4
					c0.1-0.2,0-0.3,0-0.4c0,0,0,0,0,0c0,0,0,0,0,0c0,0,0,0,0,0c0,0-0.1-0.1-0.1-0.1c-0.2-0.1-0.4-0.2-0.6-0.3c0,0,0.1,0,0.1,0
					c0.1,0,0.2,0,0.3-0.1c0.1-0.1,0.2-0.2,0.2-0.3c0,0,0-0.1,0-0.1c0-0.1,0-0.1-0.1-0.2c-0.2-0.3-0.3-0.6-0.5-0.8
					c0,0-0.1-0.1-0.1-0.1c-0.6-0.9-1.2-1.7-1.9-2.4c-0.3-0.3-0.7-0.6-1-0.8c-0.8-0.5-1.7-0.8-2.6-0.9c-0.4-0.1-0.8-0.1-1.2-0.2
					c-0.1,0-0.3-0.1-0.4-0.1c-0.3-0.1-0.6-0.2-0.9-0.2c-0.1,0-0.3,0-0.4,0.1c0,0-0.1,0-0.1,0c-0.2-0.1-0.4-0.2-0.5-0.2c0,0,0,0,0,0
					c-0.1,0-0.2-0.1-0.3-0.1c-0.2-0.1-0.3-0.1-0.3-0.1c0,0,0.1,0.1,0.3,0.2c0.1,0,0.2,0.1,0.3,0.2c0,0,0,0,0,0
					c0.1,0.1,0.3,0.2,0.5,0.3c0,0,0,0,0.1,0c0,0.1,0,0.2,0,0.3c0,0.1,0.1,0.2,0.2,0.3c0.2,0.3,0.5,0.5,0.7,0.8
					c0.3,0.3,0.6,0.6,0.9,0.9c0.4,0.4,0.8,0.8,1.3,1.2c-0.5-0.3-1.1-0.5-1.6-0.6c-0.3-0.1-0.6-0.1-1-0.1c-1.5,0-2.9,0.5-4.2,1.3
					c0,0,0,0-0.1,0c-0.3,0.2-0.6,0.4-0.9,0.6c-0.2,0.1-0.2,0.3-0.2,0.5c-0.3,0.1-0.6,0.2-0.7,0.2c-0.1,0-0.1,0-0.1,0s0,0,0.1,0
					c0.1,0,0.4,0,0.8,0c0,0.1,0.1,0.1,0.1,0.1c0.3,0.2,0.6,0.3,0.9,0.4c0.1,0,0.1,0,0.2,0.1c1,0.4,2.1,0.6,3.2,0.8
					c0.4,0.1,0.7,0.1,1.1,0.2c0.4,0.1,0.8,0.1,1.1,0.1c0.2,0,0.4,0,0.6,0c0.7-0.1,1.4-0.3,2-0.7c0.2-0.2,0.4-0.4,0.6-0.6
					c0-0.1,0.1-0.1,0.1-0.2c0,0,0,0,0,0c0,0,0,0,0-0.1c0,0,0.1-0.1,0.1-0.1c0.1-0.1,0.1-0.1,0.1-0.2c0,0,0-0.1,0-0.1
					c0,0,0.1,0,0.1,0.1c0.2,0.1,0.4,0.2,0.6,0.3c0.2,0.1,0.4,0.1,0.6,0.2c-0.2,0-0.5,0.1-0.7,0.1c-0.1,0-0.2,0.1-0.4,0.1
					c0,0-0.1,0-0.1,0.1c-0.3,0.1-0.6,0.3-0.9,0.4c-0.6,0.4-1.3,0.9-1.8,1.4c-0.2,0.2-0.4,0.4-0.6,0.6c-0.1,0.1-0.3,0.3-0.4,0.4
					c-0.2,0.2-0.3,0.3-0.5,0.5c-0.1,0.1-0.1,0.2-0.1,0.3c-0.2,0.2-0.4,0.4-0.6,0.5c0,0-0.1,0.1-0.1,0.1c-0.1,0.1-0.2,0.2-0.3,0.4
					c-0.1,0.1-0.2,0.2-0.2,0.3c-0.1,0.2-0.2,0.2-0.2,0.3c0,0,0.1-0.1,0.2-0.2c0.1-0.1,0.2-0.1,0.3-0.2c0.1-0.1,0.2-0.2,0.4-0.3
					c0,0,0,0,0,0c0.1-0.1,0.3-0.2,0.4-0.3c0.1,0,0.1-0.1,0.2-0.1c0.1,0.1,0.2,0.1,0.3,0.1c0.2,0,0.5,0,0.7,0c0.2,0,0.4,0,0.6,0
					c0.7,0,1.4-0.1,2.1-0.2c0.5-0.1,0.9-0.2,1.4-0.3c0.1,0,0.2-0.1,0.4-0.1c0.1,0,0.2-0.1,0.2-0.1c-0.1,0-0.1,0.1-0.2,0.1
					c-0.1,0.1-0.3,0.2-0.4,0.3c-0.2,0.1-0.4,0.3-0.6,0.4c-0.2,0.1-0.2,0.2-0.2,0.4c0,0.1,0,0.2,0,0.2c0,0,0,0,0,0
					c-0.2,0.1-0.4,0.2-0.6,0.4c-0.1,0-0.2,0.1-0.2,0.1c-0.2,0.2-0.4,0.3-0.5,0.4c-0.1,0.1-0.2,0.2-0.2,0.2s0.3-0.2,0.8-0.4
					c0.1,0,0.2-0.1,0.3-0.1c0.2-0.1,0.4-0.2,0.6-0.2c0.1,0,0.2-0.1,0.3-0.1c0.2,0.1,0.4,0.1,0.6,0.1c0.2,0,0.4,0.1,0.6,0.1
					c0.8,0.1,1.5,0.1,2.3-0.1c0.4-0.1,0.9-0.2,1.3-0.4c0,0,0,0,0,0c0.2-0.1,0.4-0.2,0.6-0.3c-0.2,0.1-0.3,0.2-0.5,0.3
					c0,0-0.1,0.1-0.1,0.1c-0.3,0.2-0.5,0.4-0.7,0.7c-0.1,0.1-0.1,0.1-0.1,0.2c0,0.1,0,0.2,0,0.3c0,0,0,0,0,0
					c-0.2,0.1-0.4,0.3-0.6,0.4c-0.1,0-0.1,0.1-0.2,0.1c-0.4,0.3-0.7,0.6-0.7,0.6c0,0,0.1,0,0.2-0.1c0.2-0.1,0.4-0.2,0.6-0.3
					c0.1,0,0.2-0.1,0.2-0.1c0.2-0.1,0.4-0.2,0.6-0.3c0.1,0,0.1-0.1,0.2-0.1c0.3,0.1,0.6,0.2,0.9,0.2c0.1,0,0.1,0,0.2,0
					c0.6,0.1,1.3,0.1,1.9,0.1c0.5,0,0.9-0.1,1.4-0.3c0,0-0.1,0.1-0.1,0.1c0,0-0.1,0.1-0.1,0.1c-0.3,0.2-0.5,0.5-0.7,0.7c0,0,0,0,0,0
					c-0.1,0.1-0.1,0.2-0.1,0.3c-0.1,0.1-0.3,0.1-0.4,0.2c-0.1,0.1-0.2,0.1-0.3,0.2c-0.2,0.1-0.4,0.2-0.4,0.2s0.2,0,0.4-0.1
					c0.1,0,0.2,0,0.3-0.1c0.1,0,0.3-0.1,0.4-0.1c0.1,0,0.1,0.1,0.2,0.1c0.3,0,0.6,0.1,0.9,0.1c0.1,0,0.2,0,0.3,0
					c0.5,0,1.1,0.1,1.7,0c0.4,0,0.8-0.1,1.2-0.1c-0.1,0.1-0.2,0.1-0.3,0.2c-0.2,0.1-0.2,0.3-0.2,0.4c-0.3,0.1-0.6,0.2-0.7,0.2
					c0,0-0.1,0-0.1,0s0,0,0.1,0c0,0,0.1,0,0.1,0c0.1,0,0.4,0,0.6,0c0,0,0,0,0.1,0c0.1,0.1,0.1,0.2,0.3,0.2c0.2,0.1,0.5,0.1,0.7,0.2
					c0.2,0,0.3,0.1,0.5,0.1c0.7,0.2,1.4,0.4,2,0.5c0.3,0.1,0.7,0.1,1,0.1h0c0.4,0,0.7,0,1.1-0.1c-0.2,0.1-0.5,0.1-0.7,0.2
					c-0.1,0-0.3,0.1-0.4,0.1c-0.2,0.1-0.5,0.2-0.7,0.3c0,0-0.1,0-0.1,0.1c-0.1,0.1-0.2,0.2-0.2,0.3c-0.1,0-0.1,0-0.2,0
					c-0.3,0-0.5,0.1-0.6,0.1c-0.1,0-0.1,0-0.1,0s0,0,0.1,0c0.1,0,0.3,0.1,0.6,0.1c0,0,0.1,0,0.1,0c0,0.1,0.1,0.2,0.2,0.3
					c0.2,0.1,0.4,0.2,0.6,0.3c0.2,0.1,0.4,0.2,0.6,0.2c1.8,0.7,4,1.3,5.6,0.3c0.3-0.2,0.7-0.5,0.9-0.8
					C40.6,40.5,40.5,40.3,40.4,40.1z M33.5,28.5c0,0,0.1,0,0.1,0.1c0.3,0.2,0.6,0.4,0.9,0.6c1.2,0.9,2.3,2.1,2.7,3.5
					c0.2,0.7,0.3,1.4,0.1,2.1c0,0.2-0.1,0.3-0.1,0.5c0,0.1-0.1,0.2-0.1,0.2c-0.1,0.2-0.1,0.3-0.2,0.5c-0.1-0.1-0.3-0.2-0.4-0.3
					c-0.2-0.2-0.4-0.3-0.6-0.5c-0.5-0.5-0.9-1.2-1.3-2c-0.5-1-0.8-2.2-1.1-3.2c-0.1-0.3-0.2-0.6-0.3-0.8c0.1,0.1,0.2,0.2,0.2,0.2
					c0,0,0,0,0,0c0.2,0.2,0.3,0.3,0.5,0.5c0.1,0.1,0.2,0.2,0.2,0.2c0.4,0.4,0.7,0.6,0.7,0.6s-0.1-0.1-0.1-0.2
					c-0.1-0.1-0.2-0.3-0.4-0.6c-0.1-0.2-0.2-0.3-0.4-0.5c-0.1-0.1-0.1-0.2-0.2-0.3c0,0-0.1-0.1-0.1-0.1
					C33.7,28.9,33.5,28.7,33.5,28.5c-0.1,0-0.2-0.1-0.2-0.1C33.4,28.4,33.4,28.5,33.5,28.5z M28.9,27c0.1,0.1,0.1,0.1,0.2,0.2
					c0,0,0.1,0.1,0.1,0.1c0.1,0.1,0.1,0.1,0.2,0.2c0.1,0.1,0.2,0.2,0.3,0.3c0,0,0.1,0.1,0.1,0.1c0.2,0.3,0.5,0.6,0.7,0.8
					c0.2,0.2,0.4,0.5,0.5,0.6c0.1,0.1,0.2,0.2,0.2,0.2c0,0,0-0.1-0.1-0.3c0-0.1-0.1-0.2-0.1-0.3c-0.1-0.1-0.1-0.3-0.2-0.4
					c-0.1-0.2-0.2-0.4-0.4-0.7c-0.1-0.1-0.1-0.2-0.2-0.3c-0.1-0.2-0.2-0.3-0.4-0.5c-0.1-0.1-0.2-0.2-0.3-0.3c0,0,0,0,0,0
					c0,0,0,0,0,0c0.3,0.1,0.6,0.3,0.8,0.5c0.7,0.5,1.4,1.1,1.8,1.9c0.6,0.9,1,2,1.3,3.1c0.1,0.3,0.1,0.7,0.2,1c0,0.1,0,0.2,0,0.3
					c0,0.1,0,0.2,0,0.3c-0.2-0.1-0.4-0.2-0.5-0.3c-0.3-0.2-0.6-0.4-0.8-0.6c-0.8-0.6-1.4-1.4-1.9-2.2c-0.5-0.8-0.9-1.7-1.2-2.7
					c-0.1-0.3-0.1-0.5-0.2-0.8c0,0,0-0.1,0-0.1C28.9,27.1,28.9,27,28.9,27C28.9,26.9,28.9,27,28.9,27z M23.9,24.9
					C23.9,24.9,23.9,24.9,23.9,24.9c0.1,0,0.2,0,0.3,0.1c0,0,0.1,0,0.1,0c0.3,0.1,0.5,0.2,0.8,0.3c1.1,0.5,2,1.2,2.7,2.1
					c0.5,0.7,0.9,1.5,1.2,2.3c0.1,0.4,0.2,0.7,0.2,1.1c0,0.1,0,0.2,0,0.2c0,0.1,0,0.2,0,0.4c0,0,0,0,0,0v0c-0.1,0-0.1-0.1-0.2-0.1
					c0,0-0.1-0.1-0.1-0.1c-0.1-0.1-0.1-0.1-0.2-0.2c-0.3-0.2-0.6-0.5-0.9-0.7c-0.7-0.6-1.3-1.1-1.9-1.8c-0.7-0.7-1.2-1.5-1.7-2.3
					c-0.1-0.3-0.2-0.5-0.3-0.8c0.1,0.1,0.3,0.2,0.4,0.3c0.2,0.1,0.3,0.3,0.5,0.4c0,0,0,0,0,0c0.1,0.1,0.2,0.2,0.3,0.3
					c0.2,0.2,0.4,0.3,0.5,0.5c0,0,0.1,0.1,0.1,0.1c0.2,0.2,0.3,0.3,0.4,0.4c0.1,0.1,0.2,0.2,0.2,0.2s0-0.1-0.1-0.2c0,0,0,0,0-0.1
					c0-0.1-0.1-0.2-0.2-0.3c-0.1-0.1-0.1-0.2-0.2-0.4c-0.2-0.3-0.4-0.6-0.7-0.8c-0.1-0.1-0.1-0.1-0.2-0.2c-0.1-0.1-0.2-0.2-0.3-0.3
					c-0.1-0.1-0.2-0.2-0.3-0.2c0,0-0.1-0.1-0.1-0.1c0,0,0,0,0,0c0,0,0,0-0.1-0.1C24,25,23.9,24.9,23.9,24.9
					C23.8,24.9,23.8,24.9,23.9,24.9C23.8,24.9,23.8,24.9,23.9,24.9z M24,29.7c-0.2,0-0.3-0.1-0.4-0.2c0,0-0.1,0-0.1,0c0,0,0,0-0.1,0
					c-0.8-0.4-1.6-1.1-2.2-1.9c-0.5-0.6-1-1.4-1.4-2.1c-0.1-0.2-0.2-0.4-0.3-0.6c-0.1-0.3-0.2-0.5-0.3-0.7c0,0,0,0,0,0
					c0,0,0,0,0.1,0c0.2,0.2,0.5,0.4,0.7,0.5c0.2,0.2,0.4,0.3,0.5,0.4c0.2,0.1,0.3,0.3,0.5,0.4c0.2,0.2,0.3,0.3,0.5,0.4
					c0.1,0.1,0.2,0.1,0.2,0.2c0.2,0.1,0.2,0.2,0.3,0.2c0,0-0.1-0.1-0.2-0.2c0,0,0,0,0-0.1c-0.1-0.2-0.3-0.4-0.6-0.7
					c-0.1-0.1-0.1-0.1-0.2-0.2c-0.2-0.2-0.5-0.5-0.8-0.7c-0.1-0.1-0.1-0.1-0.2-0.2c-0.1-0.1-0.2-0.2-0.4-0.3c0,0,0,0,0,0
					c-0.1-0.1-0.2-0.2-0.3-0.2c0.1,0,0.2,0,0.2,0c0.3,0,0.5,0.1,0.8,0.1c0.7,0.2,1.4,0.7,2,1.3c1,1,1.7,2.3,2.1,3.5
					c0,0.1,0.1,0.2,0.1,0.3c0,0.1,0.1,0.2,0.1,0.3c0,0.1,0,0.1,0,0.2c0,0,0,0.1,0,0.1c0,0,0,0.1,0,0.1c0,0.1,0,0.2,0.1,0.3
					c-0.1,0-0.2,0-0.3,0c0,0-0.1,0-0.1,0c0,0-0.1,0-0.1,0C24.2,29.8,24.1,29.7,24,29.7z M16.3,28.3c-0.1,0.1-0.1,0.2-0.2,0.2
					c0,0,0,0,0,0c0,0,0,0-0.1,0.1c-0.2,0.2-0.4,0.3-0.6,0.5c-0.3,0.2-0.5,0.3-0.8,0.4c-0.4,0.1-0.8,0.2-1.2,0.2c-0.2,0-0.5,0-0.7,0
					c-0.2,0-0.3,0-0.5-0.1c-0.1,0-0.3-0.1-0.5-0.1c-0.2,0-0.5-0.1-0.7-0.1c-0.9-0.2-1.9-0.4-2.8-0.6c-0.2-0.1-0.5-0.2-0.7-0.3
					c-0.1,0-0.1,0-0.2-0.1c0,0,0,0,0,0c0,0,0,0,0,0h0.1c0,0,0,0,0.1,0c0.2,0,0.3,0,0.5,0c0.2,0,0.3,0,0.5,0h0c0.1,0,0.3,0,0.4,0
					c0.1,0,0.1,0,0.2,0c0.2,0,0.3,0,0.5,0c0.3,0,0.6-0.1,0.9-0.1c0.2,0,0.3,0,0.4,0c0.1,0,0.1,0,0.2,0c0.2,0,0.3,0,0.3,0
					s-0.1,0-0.2-0.1c-0.2,0-0.4-0.1-0.7-0.1c-0.2,0-0.4,0-0.6-0.1c-0.1,0-0.2,0-0.3,0c0,0-0.1,0-0.1,0c-0.3,0-0.6,0-0.9,0
					c-0.1,0-0.2,0-0.3,0c-0.2,0-0.4,0-0.6,0.1c0,0,0,0-0.1,0c0,0-0.1,0-0.1,0c-0.1,0-0.2,0-0.3,0c0,0-0.1,0-0.1,0
					c0,0,0.1-0.1,0.1-0.1c0.1,0,0.1-0.1,0.2-0.1c0.1,0,0.1-0.1,0.2-0.1c0.2-0.1,0.4-0.2,0.5-0.3c1.9-1.1,3.6-1.4,5.4-0.7
					c0.8,0.3,1.6,0.7,2.4,1.4C16.1,28.1,16.2,28.2,16.3,28.3L16.3,28.3C16.3,28.3,16.3,28.3,16.3,28.3z M17.7,28
					c-0.1,0-0.1,0-0.2-0.1c-0.3-0.2-0.7-0.3-1-0.5c-0.2-0.1-0.4-0.3-0.6-0.4c-0.6-0.4-1.2-0.9-1.7-1.4c-0.4-0.4-0.7-0.7-1.1-1.1
					c-0.3-0.3-0.6-0.6-0.9-0.9c0,0,0,0,0,0c0,0,0,0,0,0c0,0,0.1,0.1,0.1,0.1c0.4,0.3,0.8,0.6,1.3,0.9c0.1,0.1,0.2,0.1,0.2,0.2
					s0.2,0.1,0.2,0.2c0.3,0.2,0.5,0.4,0.8,0.6c0.4,0.3,0.8,0.5,1.1,0.8c0.6,0.4,1.1,0.7,1.1,0.7c0,0-0.4-0.4-0.9-0.9
					c-0.3-0.3-0.6-0.6-1-0.9c-0.1,0-0.1-0.1-0.2-0.1c-0.1-0.1-0.3-0.2-0.4-0.3c-0.2-0.2-0.4-0.3-0.6-0.5c-0.2-0.1-0.3-0.2-0.5-0.3
					c-0.1,0-0.1-0.1-0.2-0.1c-0.2-0.1-0.4-0.2-0.5-0.3c0,0-0.1,0-0.1-0.1c-0.1,0-0.2-0.1-0.2-0.1c0.1,0,0.1,0,0.2,0
					c0.4,0.1,0.8,0.1,1.2,0.2c1,0.2,1.9,0.4,2.7,0.8c0.9,0.5,1.5,1.1,2.1,1.7c0.3,0.4,0.6,0.8,0.9,1.2c0.1,0.2,0.3,0.4,0.4,0.6
					c0,0,0,0.1,0.1,0.1C20,28,20,28,20,28.1c0,0,0,0,0,0.1c0,0.1,0.1,0.2,0.1,0.2c0,0,0,0-0.1,0c-0.1,0-0.2,0-0.2,0
					c-0.1,0-0.2,0-0.3,0c-0.1,0-0.1,0-0.2,0c-0.3,0-0.5,0-0.8-0.1C18.4,28.2,18.1,28.1,17.7,28z M17.2,32.2
					c-0.8,0.2-1.6,0.3-2.4,0.3c-0.4,0-0.7,0-1.1,0.1c-0.1,0-0.1,0-0.2,0c-0.1,0-0.1,0-0.2,0c0.1,0,0.1-0.1,0.2-0.1
					c0,0,0.1,0,0.1-0.1c0.2-0.1,0.3-0.2,0.5-0.3c0,0,0.1,0,0.1,0c0,0,0.1,0,0.1-0.1c0.4-0.2,0.7-0.4,1.1-0.5
					c0.3-0.1,0.5-0.2,0.8-0.4c0.1,0,0.1-0.1,0.2-0.1c0,0,0.1,0,0.1,0c0.6-0.3,1.1-0.5,1.1-0.5s-0.1,0-0.3,0.1
					c-0.2,0-0.5,0.1-0.8,0.2c-0.3,0.1-0.7,0.2-1.1,0.4c-0.1,0-0.1,0-0.2,0.1c-0.1,0-0.2,0.1-0.2,0.1c-0.1,0-0.2,0.1-0.2,0.1
					c-0.2,0.1-0.4,0.2-0.6,0.3c-0.1,0-0.1,0.1-0.2,0.1c0.2-0.2,0.3-0.3,0.5-0.5c0.3-0.3,0.6-0.6,0.9-0.8c0.5-0.4,1.1-0.8,1.6-1
					c0.2-0.1,0.4-0.2,0.7-0.3c0.6-0.2,1.2-0.2,1.8-0.1c0.2,0,0.5,0.1,0.7,0.2c0.1,0.1,0.3,0.1,0.4,0.2c0,0,0,0,0,0
					c-0.1,0.2-0.1,0.3-0.2,0.4c-0.1,0.2-0.2,0.3-0.2,0.4c0,0.1-0.1,0.1-0.1,0.2C19.3,31.5,18.3,32,17.2,32.2z M21.6,33.5
					c-0.7,0.2-1.5,0.3-2.3,0.3c-0.4,0-0.7-0.1-1.1-0.1c0.3-0.1,0.6-0.3,0.9-0.4c0,0,0,0,0,0c0.3-0.1,0.6-0.3,0.8-0.4
					c0.5-0.2,0.8-0.4,0.8-0.4s-0.4,0-0.9,0.2c-0.1,0-0.3,0.1-0.4,0.1c-0.2,0-0.3,0.1-0.5,0.2c-0.3,0.1-0.5,0.2-0.8,0.3
					c-0.1,0-0.2,0.1-0.2,0.1c0,0,0,0-0.1,0c-0.1,0-0.2,0.1-0.3,0.1c0,0-0.1,0-0.1,0.1c0,0,0.1,0,0.1-0.1c0.1,0,0.1-0.1,0.2-0.1
					c0,0,0,0,0.1,0c0,0,0.1-0.1,0.1-0.1c0.3-0.2,0.6-0.4,0.9-0.6c0.6-0.5,1.3-0.9,1.9-1.2c0.5-0.3,1.1-0.5,1.7-0.5
					c0.2,0,0.4-0.1,0.6-0.1c0,0,0.1,0,0.1,0h0.2c0.1,0,0.2,0,0.3,0l0.4,0h0l0.1,0l0.3,0l0.3,0c0,0.1-0.1,0.2-0.1,0.2c0,0,0,0,0,0.1
					c0,0.1-0.1,0.1-0.1,0.2c0,0-0.1,0.1-0.1,0.1c-0.1,0.2-0.3,0.4-0.4,0.5c0,0,0,0-0.1,0.1c0,0,0,0,0,0
					C23.4,32.7,22.5,33.2,21.6,33.5z M25.3,35.1c-0.7,0.1-1.4,0.1-2,0.1c-0.3,0-0.5-0.1-0.8-0.1c0,0,0,0-0.1,0c0,0,0,0,0,0
					c0,0,0,0,0.1,0c0.2-0.1,0.5-0.2,0.7-0.3c0.1,0,0.2-0.1,0.2-0.1c0.2-0.1,0.3-0.1,0.5-0.2c0.2-0.1,0.3-0.1,0.4-0.2
					c0.5-0.2,0.9-0.3,0.9-0.3s-0.1,0-0.3,0c-0.1,0-0.2,0-0.3,0h0c-0.1,0-0.2,0-0.4,0c0,0,0,0,0,0c-0.3,0-0.6,0.1-1,0.2
					c0,0-0.1,0-0.1,0c-0.1,0-0.3,0.1-0.5,0.1c-0.2,0.1-0.3,0.1-0.4,0.2c0,0-0.1,0-0.1,0c0,0,0,0,0,0c-0.1,0.1-0.2,0.1-0.3,0.2
					c0,0-0.1,0-0.1,0.1c0,0,0.1-0.1,0.1-0.1c0.1-0.1,0.1-0.1,0.2-0.2c0,0,0,0,0,0c0,0,0.1-0.1,0.1-0.1c0.2-0.2,0.4-0.3,0.6-0.5
					c0.5-0.4,1.1-0.7,1.7-0.9c0.8-0.3,1.6-0.5,2.5-0.6c0.2,0,0.5-0.1,0.7-0.1l0.1,0l0.3,0l0.1,0l0.1,0c0,0,0,0,0,0.1c0,0,0,0,0,0
					c0,0.1-0.1,0.3-0.1,0.4c-0.1,0.3-0.2,0.5-0.3,0.7c0,0-0.1,0.1-0.1,0.1C27.3,34.5,26.4,35,25.3,35.1z M28.8,36.8
					c-0.6,0.1-1.2,0.1-1.7,0.1c-0.3,0-0.6,0-0.9-0.1c0,0,0,0-0.1,0c0,0,0,0,0,0c0.1,0,0.1,0,0.2-0.1c0.1-0.1,0.3-0.1,0.4-0.2
					c0.1,0,0.3-0.1,0.4-0.2c0,0,0,0,0,0c0.3-0.1,0.5-0.2,0.7-0.3c0.2-0.1,0.4-0.2,0.5-0.2c0.1-0.1,0.2-0.1,0.2-0.1s-0.1,0-0.2,0
					c-0.1,0-0.3,0-0.6,0.1c-0.2,0-0.5,0.1-0.8,0.2c0,0-0.1,0-0.1,0c-0.2,0.1-0.5,0.2-0.8,0.2c0,0-0.1,0-0.1,0c0,0,0,0-0.1,0
					c-0.1,0-0.2,0.1-0.3,0.1c0,0,0,0,0,0c0.1-0.1,0.1-0.1,0.2-0.2c0,0,0,0,0,0c0,0,0.1-0.1,0.1-0.1c0.2-0.2,0.4-0.4,0.7-0.5
					c0.6-0.4,1.2-0.7,1.9-0.9c0.8-0.2,1.6-0.3,2.4-0.2c0.2,0,0.5,0.1,0.7,0.1c0.2,0,0.3,0.1,0.5,0.1c0,0.2-0.1,0.3-0.2,0.5
					c-0.1,0.1-0.2,0.2-0.3,0.3c-0.1,0.1-0.2,0.2-0.3,0.3C30.9,36.3,29.9,36.6,28.8,36.8z M33.6,38.7c-0.8,0-1.6-0.2-2.4-0.4
					c-0.4-0.1-0.7-0.2-1-0.3c0,0,0.1,0,0.1,0c0.2,0,0.3-0.1,0.5-0.1c0.1,0,0.3-0.1,0.4-0.1c0.2,0,0.3-0.1,0.5-0.1
					c0.3-0.1,0.6-0.2,0.8-0.2c0.1,0,0.1,0,0.2,0c0.2,0,0.3-0.1,0.4-0.1c0.1,0,0.2-0.1,0.2-0.1s-0.1,0-0.3,0c-0.1,0-0.3,0-0.5,0
					c-0.2,0-0.4,0-0.6,0c-0.1,0-0.2,0-0.2,0c0,0-0.1,0-0.1,0c-0.3,0-0.5,0.1-0.8,0.1c-0.1,0-0.3,0.1-0.4,0.1c0,0,0,0,0,0
					c-0.1,0-0.2,0-0.3,0.1c0,0-0.1,0-0.1,0c0,0,0,0,0,0c0.1,0,0.1-0.1,0.2-0.1c0.1,0,0.1-0.1,0.2-0.1c0.3-0.2,0.7-0.3,1-0.4
					c0.5-0.2,0.9-0.3,1.3-0.3c0.8-0.1,1.5,0,2.3,0.1c0.2,0,0.5,0.1,0.7,0.1c0,0,0,0,0,0c0.1,0,0.1,0,0.2,0c0.1,0,0.2,0,0.3,0.1
					l0.3,0.1l0,0l0.1,0.1l0.3,0.1c-0.1,0.1-0.2,0.2-0.3,0.3c0,0,0,0,0,0.1c-0.1,0.1-0.2,0.2-0.3,0.3c0,0,0,0-0.1,0
					c-0.1,0-0.1,0.1-0.2,0.1c0,0,0,0-0.1,0C35.1,38.6,34.3,38.7,33.6,38.7z M39.7,40.8c-0.2,0.2-0.4,0.3-0.6,0.4
					c-1.2,0.6-2.9,0.2-4.4-0.3c-0.4-0.1-0.7-0.3-1-0.4c-0.1,0-0.1,0-0.2-0.1h0c0.1,0,0.2,0,0.3,0c0,0,0,0,0.1,0c0.2,0,0.5,0,0.7,0
					c0,0,0,0,0.1,0c0.3,0,0.5,0,0.7-0.1c0.2,0,0.4,0,0.5,0c0.1,0,0.2,0,0.2,0s-0.1,0-0.2-0.1c-0.1,0-0.3-0.1-0.5-0.1
					c-0.1,0-0.2,0-0.3-0.1c-0.1,0-0.3,0-0.4,0c-0.1,0-0.3,0-0.4,0c-0.1,0-0.3,0-0.4,0c-0.1,0-0.1,0-0.2,0c0.1,0,0.1-0.1,0.2-0.1
					c0.3-0.1,0.5-0.2,0.8-0.3c0.6-0.2,1.2-0.3,1.7-0.4c0.9-0.1,1.8,0,2.6,0.4c0.2,0.1,0.4,0.2,0.6,0.4c0.1,0.1,0.2,0.2,0.4,0.3
					C39.9,40.5,39.8,40.7,39.7,40.8z"/>
			</g>
			<g id="XMLID_668_">
				<path id="XMLID_315_" class="st3" d="M40,40.4c-0.1,0.1-0.2,0.3-0.3,0.4c-0.2,0.2-0.4,0.3-0.6,0.4c-1.2,0.6-2.9,0.2-4.4-0.3
					c-0.4-0.1-0.7-0.3-1-0.4c-0.1,0-0.1,0-0.2-0.1h0c0.1,0,0.2,0,0.3,0c0,0,0,0,0.1,0c0.2,0,0.5,0,0.7,0c0,0,0,0,0.1,0
					c0.3,0,0.5,0,0.7-0.1c0.2,0,0.4,0,0.5,0c0.1,0,0.2,0,0.2,0s-0.1,0-0.2-0.1c-0.1,0-0.3-0.1-0.5-0.1c-0.1,0-0.2,0-0.3-0.1
					c-0.1,0-0.3,0-0.4,0c-0.1,0-0.3,0-0.4,0c-0.1,0-0.3,0-0.4,0c-0.1,0-0.1,0-0.2,0c0.1,0,0.1-0.1,0.2-0.1c0.3-0.1,0.5-0.2,0.8-0.3
					c0.6-0.2,1.2-0.3,1.7-0.4c0.9-0.1,1.8,0,2.6,0.4c0.2,0.1,0.4,0.2,0.6,0.4C39.8,40.2,39.9,40.3,40,40.4z"/>
			</g>
			<g id="XMLID_665_">
				<path id="XMLID_313_" class="st3" d="M36.6,37.5c-0.1,0.1-0.2,0.2-0.3,0.3c0,0,0,0,0,0.1c-0.1,0.1-0.2,0.2-0.3,0.3
					c0,0,0,0-0.1,0c-0.1,0-0.1,0.1-0.2,0.1c0,0,0,0-0.1,0c-0.6,0.3-1.3,0.4-2,0.4c-0.8,0-1.6-0.2-2.4-0.4c-0.4-0.1-0.7-0.2-1-0.3
					c0,0,0.1,0,0.1,0c0.2,0,0.3-0.1,0.5-0.1c0.1,0,0.3-0.1,0.4-0.1c0.2,0,0.3-0.1,0.5-0.1c0.3-0.1,0.6-0.2,0.8-0.2
					c0.1,0,0.1,0,0.2,0c0.2,0,0.3-0.1,0.4-0.1c0.1,0,0.2-0.1,0.2-0.1s-0.1,0-0.3,0c-0.1,0-0.3,0-0.5,0c-0.2,0-0.4,0-0.6,0
					c-0.1,0-0.2,0-0.2,0c0,0-0.1,0-0.1,0c-0.3,0-0.5,0.1-0.8,0.1c-0.1,0-0.3,0.1-0.4,0.1c0,0,0,0,0,0c-0.1,0-0.2,0-0.3,0.1
					c0,0-0.1,0-0.1,0c0,0,0,0,0,0c0.1,0,0.1-0.1,0.2-0.1c0.1,0,0.1-0.1,0.2-0.1c0.3-0.2,0.7-0.3,1-0.4c0.5-0.2,0.9-0.3,1.3-0.3
					c0.8-0.1,1.5,0,2.3,0.1c0.2,0,0.5,0.1,0.7,0.1c0,0,0,0,0,0c0.1,0,0.1,0,0.2,0c0.1,0,0.2,0,0.3,0.1l0.3,0.1l0,0l0.1,0.1
					L36.6,37.5z"/>
			</g>
			<g id="XMLID_662_">
				<path id="XMLID_312_" class="st3" d="M37.4,34.7c0,0.2-0.1,0.3-0.1,0.5c0,0.1-0.1,0.2-0.1,0.2c-0.1,0.2-0.1,0.3-0.2,0.5
					c-0.1-0.1-0.3-0.2-0.4-0.3c-0.2-0.2-0.4-0.3-0.6-0.5c-0.5-0.5-0.9-1.2-1.3-2c-0.5-1-0.8-2.2-1.1-3.2c-0.1-0.3-0.2-0.6-0.3-0.8
					c0.1,0.1,0.2,0.2,0.2,0.2c0,0,0,0,0,0c0.2,0.2,0.3,0.3,0.5,0.5c0.1,0.1,0.2,0.2,0.2,0.2c0.4,0.4,0.7,0.6,0.7,0.6
					s-0.1-0.1-0.1-0.2c-0.1-0.1-0.2-0.3-0.4-0.6c-0.1-0.2-0.2-0.3-0.4-0.5c-0.1-0.1-0.1-0.2-0.2-0.3c0,0-0.1-0.1-0.1-0.1
					c-0.1-0.2-0.2-0.3-0.4-0.5c0-0.1-0.1-0.1-0.1-0.2c0.1,0,0.2,0.1,0.2,0.1c0,0,0.1,0,0.1,0.1c0.3,0.2,0.6,0.4,0.9,0.6
					c1.2,0.9,2.3,2.1,2.7,3.5C37.5,33.3,37.5,34,37.4,34.7z"/>
			</g>
			<g id="XMLID_659_">
				<path id="XMLID_309_" class="st3" d="M33.6,33.9c-0.2-0.1-0.4-0.2-0.5-0.3c-0.3-0.2-0.6-0.4-0.8-0.6c-0.8-0.6-1.4-1.4-1.9-2.2
					c-0.5-0.8-0.9-1.7-1.2-2.7c-0.1-0.3-0.1-0.5-0.2-0.8c0,0,0-0.1,0-0.1c0-0.1,0-0.1,0-0.2c0,0,0,0,0,0c0.1,0.1,0.1,0.1,0.2,0.2
					c0,0,0.1,0.1,0.1,0.1c0.1,0.1,0.1,0.1,0.2,0.2c0.1,0.1,0.2,0.2,0.3,0.3c0,0,0.1,0.1,0.1,0.1c0.2,0.3,0.5,0.6,0.7,0.8
					c0.2,0.2,0.4,0.5,0.5,0.6c0.1,0.1,0.2,0.2,0.2,0.2c0,0,0-0.1-0.1-0.3c0-0.1-0.1-0.2-0.1-0.3c-0.1-0.1-0.1-0.3-0.2-0.4
					c-0.1-0.2-0.2-0.4-0.4-0.7c-0.1-0.1-0.1-0.2-0.2-0.3c-0.1-0.2-0.2-0.3-0.4-0.5c-0.1-0.1-0.2-0.2-0.3-0.3c0,0,0,0,0,0
					c0,0,0,0,0,0c0.3,0.1,0.6,0.3,0.8,0.5c0.7,0.5,1.4,1.1,1.8,1.9c0.6,0.9,1,2,1.3,3.1c0.1,0.3,0.1,0.7,0.2,1c0,0.1,0,0.2,0,0.3
					C33.5,33.7,33.6,33.8,33.6,33.9z"/>
			</g>
			<g id="XMLID_656_">
				<path id="XMLID_307_" class="st3" d="M32.3,34.8c0,0.2-0.1,0.3-0.2,0.5c-0.1,0.1-0.2,0.2-0.3,0.3c-0.1,0.1-0.2,0.2-0.3,0.3
					c-0.7,0.5-1.7,0.8-2.7,0.9c-0.6,0.1-1.2,0.1-1.7,0.1c-0.3,0-0.6,0-0.9-0.1c0,0,0,0-0.1,0c0,0,0,0,0,0c0.1,0,0.1,0,0.2-0.1
					c0.1-0.1,0.3-0.1,0.4-0.2c0.1,0,0.3-0.1,0.4-0.2c0,0,0,0,0,0c0.3-0.1,0.5-0.2,0.7-0.3c0.2-0.1,0.4-0.2,0.5-0.2
					c0.1-0.1,0.2-0.1,0.2-0.1s-0.1,0-0.2,0c-0.1,0-0.3,0-0.6,0.1c-0.2,0-0.5,0.1-0.8,0.2c0,0-0.1,0-0.1,0c-0.2,0.1-0.5,0.2-0.8,0.2
					c0,0-0.1,0-0.1,0c0,0,0,0-0.1,0c-0.1,0-0.2,0.1-0.3,0.1c0,0,0,0,0,0c0.1-0.1,0.1-0.1,0.2-0.2c0,0,0,0,0,0c0,0,0.1-0.1,0.1-0.1
					c0.2-0.2,0.4-0.4,0.7-0.5c0.6-0.4,1.2-0.7,1.9-0.9c0.8-0.2,1.6-0.3,2.4-0.2c0.2,0,0.5,0.1,0.7,0.1C32,34.7,32.1,34.7,32.3,34.8z
					"/>
			</g>
			<g id="XMLID_653_">
				<path id="XMLID_300_" class="st3" d="M28.4,32.3C28.4,32.4,28.4,32.4,28.4,32.3C28.4,32.4,28.4,32.4,28.4,32.3
					c0,0.2-0.1,0.4-0.1,0.5c-0.1,0.3-0.2,0.5-0.3,0.7c0,0-0.1,0.1-0.1,0.1c-0.6,0.8-1.5,1.3-2.6,1.5c-0.7,0.1-1.4,0.1-2,0.1
					c-0.3,0-0.5-0.1-0.8-0.1c0,0,0,0-0.1,0c0,0,0,0,0,0c0,0,0,0,0.1,0c0.2-0.1,0.5-0.2,0.7-0.3c0.1,0,0.2-0.1,0.2-0.1
					c0.2-0.1,0.3-0.1,0.5-0.2c0.2-0.1,0.3-0.1,0.4-0.2c0.5-0.2,0.9-0.3,0.9-0.3s-0.1,0-0.3,0c-0.1,0-0.2,0-0.3,0h0
					c-0.1,0-0.2,0-0.4,0c0,0,0,0,0,0c-0.3,0-0.6,0.1-1,0.2c0,0-0.1,0-0.1,0c-0.1,0-0.3,0.1-0.5,0.1c-0.2,0.1-0.3,0.1-0.4,0.2
					c0,0-0.1,0-0.1,0c0,0,0,0,0,0c-0.1,0.1-0.2,0.1-0.3,0.2c0,0-0.1,0-0.1,0.1c0,0,0.1-0.1,0.1-0.1c0.1-0.1,0.1-0.1,0.2-0.2
					c0,0,0,0,0,0c0,0,0.1-0.1,0.1-0.1c0.2-0.2,0.4-0.3,0.6-0.5c0.5-0.4,1.1-0.7,1.7-0.9c0.8-0.3,1.6-0.5,2.5-0.6
					c0.2,0,0.5-0.1,0.7-0.1l0.1,0l0.3,0l0.1,0L28.4,32.3z"/>
			</g>
			<g id="XMLID_650_">
				<path id="XMLID_291_" class="st3" d="M29.1,31.4L29.1,31.4c-0.1,0-0.1-0.1-0.2-0.1c0,0-0.1-0.1-0.1-0.1
					c-0.1-0.1-0.1-0.1-0.2-0.2c-0.3-0.2-0.6-0.5-0.9-0.7c-0.7-0.6-1.3-1.1-1.9-1.8c-0.7-0.7-1.2-1.5-1.7-2.3
					c-0.1-0.3-0.2-0.5-0.3-0.8c0.1,0.1,0.3,0.2,0.4,0.3c0.2,0.1,0.3,0.3,0.5,0.4c0,0,0,0,0,0c0.1,0.1,0.2,0.2,0.3,0.3
					c0.2,0.2,0.4,0.3,0.5,0.5c0,0,0.1,0.1,0.1,0.1c0.2,0.2,0.3,0.3,0.4,0.4c0.1,0.1,0.2,0.2,0.2,0.2s0-0.1-0.1-0.2c0,0,0,0,0-0.1
					c0-0.1-0.1-0.2-0.2-0.3c-0.1-0.1-0.1-0.2-0.2-0.4c-0.2-0.3-0.4-0.6-0.7-0.8c-0.1-0.1-0.1-0.1-0.2-0.2c-0.1-0.1-0.2-0.2-0.3-0.3
					c-0.1-0.1-0.2-0.2-0.3-0.2c0,0-0.1-0.1-0.1-0.1c0,0,0,0,0,0c0,0,0,0-0.1-0.1c-0.1,0-0.1-0.1-0.2-0.1c0,0,0,0-0.1,0
					c0,0,0.1,0,0.1,0c0,0,0,0,0.1,0c0.1,0,0.1,0,0.2,0.1c0,0,0.1,0,0.1,0c0.3,0.1,0.5,0.2,0.8,0.3c1.1,0.5,2,1.2,2.7,2.1
					c0.5,0.7,0.9,1.5,1.2,2.3c0.1,0.4,0.2,0.7,0.2,1.1c0,0.1,0,0.2,0,0.2C29.1,31.1,29.1,31.3,29.1,31.4
					C29.1,31.4,29.1,31.4,29.1,31.4z"/>
			</g>
			<g id="XMLID_647_">
				<path id="XMLID_262_" class="st3" d="M24.9,30.7c0,0.1-0.1,0.2-0.1,0.2c0,0,0,0,0,0.1c0,0.1-0.1,0.1-0.1,0.2
					c0,0-0.1,0.1-0.1,0.1c-0.1,0.2-0.3,0.4-0.4,0.5c0,0,0,0-0.1,0.1c0,0,0,0,0,0c-0.7,0.7-1.5,1.2-2.4,1.5c-0.7,0.2-1.5,0.3-2.3,0.3
					c-0.4,0-0.7-0.1-1.1-0.1c0.3-0.1,0.6-0.3,0.9-0.4c0,0,0,0,0,0c0.3-0.1,0.6-0.3,0.8-0.4c0.5-0.2,0.8-0.4,0.8-0.4s-0.4,0-0.9,0.2
					c-0.1,0-0.3,0.1-0.4,0.1c-0.2,0-0.3,0.1-0.5,0.2c-0.3,0.1-0.5,0.2-0.8,0.3c-0.1,0-0.2,0.1-0.2,0.1c0,0,0,0-0.1,0
					c-0.1,0-0.2,0.1-0.3,0.1c0,0-0.1,0-0.1,0.1c0,0,0.1,0,0.1-0.1c0.1,0,0.1-0.1,0.2-0.1c0,0,0,0,0.1,0c0,0,0.1-0.1,0.1-0.1
					c0.3-0.2,0.6-0.4,0.9-0.6c0.6-0.5,1.3-0.9,1.9-1.2c0.5-0.3,1.1-0.5,1.7-0.5c0.2,0,0.4-0.1,0.6-0.1c0,0,0.1,0,0.1,0h0.2
					c0.1,0,0.2,0,0.3,0l0.4,0h0l0.1,0l0.3,0L24.9,30.7z"/>
			</g>
			<g id="XMLID_644_">
				<path id="XMLID_260_" class="st3" d="M24.8,29.8c-0.1,0-0.2,0-0.3,0c0,0-0.1,0-0.1,0c0,0-0.1,0-0.1,0c-0.1,0-0.2,0-0.3-0.1
					c-0.2,0-0.3-0.1-0.4-0.2c0,0-0.1,0-0.1,0c0,0,0,0-0.1,0c-0.8-0.4-1.6-1.1-2.2-1.9c-0.5-0.6-1-1.4-1.4-2.1
					c-0.1-0.2-0.2-0.4-0.3-0.6c-0.1-0.3-0.2-0.5-0.3-0.7c0,0,0,0,0,0c0,0,0,0,0.1,0c0.2,0.2,0.5,0.4,0.7,0.5
					c0.2,0.2,0.4,0.3,0.5,0.4c0.2,0.1,0.3,0.3,0.5,0.4c0.2,0.2,0.3,0.3,0.5,0.4c0.1,0.1,0.2,0.1,0.2,0.2c0.2,0.1,0.2,0.2,0.3,0.2
					c0,0-0.1-0.1-0.2-0.2c0,0,0,0,0-0.1c-0.1-0.2-0.3-0.4-0.6-0.7c-0.1-0.1-0.1-0.1-0.2-0.2c-0.2-0.2-0.5-0.5-0.8-0.7
					c-0.1-0.1-0.1-0.1-0.2-0.2c-0.1-0.1-0.2-0.2-0.4-0.3c0,0,0,0,0,0c-0.1-0.1-0.2-0.2-0.3-0.2c0.1,0,0.2,0,0.2,0
					c0.3,0,0.5,0.1,0.8,0.1c0.7,0.2,1.4,0.7,2,1.3c1,1,1.7,2.3,2.1,3.5c0,0.1,0.1,0.2,0.1,0.3c0,0.1,0.1,0.2,0.1,0.3
					c0,0.1,0,0.1,0,0.2c0,0,0,0.1,0,0.1c0,0,0,0.1,0,0.1C24.8,29.6,24.8,29.7,24.8,29.8z"/>
			</g>
			<g id="XMLID_641_">
				<path id="XMLID_247_" class="st3" d="M20.5,29.6c-0.1,0.2-0.1,0.3-0.2,0.4c-0.1,0.2-0.2,0.3-0.2,0.4c0,0.1-0.1,0.1-0.1,0.2
					c-0.7,0.8-1.6,1.3-2.7,1.6c-0.8,0.2-1.6,0.3-2.4,0.3c-0.4,0-0.7,0-1.1,0.1c-0.1,0-0.1,0-0.2,0c-0.1,0-0.1,0-0.2,0
					c0.1,0,0.1-0.1,0.2-0.1c0,0,0.1,0,0.1-0.1c0.2-0.1,0.3-0.2,0.5-0.3c0,0,0.1,0,0.1,0c0,0,0.1,0,0.1-0.1c0.4-0.2,0.7-0.4,1.1-0.5
					c0.3-0.1,0.5-0.2,0.8-0.4c0.1,0,0.1-0.1,0.2-0.1c0,0,0.1,0,0.1,0c0.6-0.3,1.1-0.5,1.1-0.5s-0.1,0-0.3,0.1
					c-0.2,0-0.5,0.1-0.8,0.2c-0.3,0.1-0.7,0.2-1.1,0.4c-0.1,0-0.1,0-0.2,0.1c-0.1,0-0.2,0.1-0.2,0.1c-0.1,0-0.2,0.1-0.2,0.1
					c-0.2,0.1-0.4,0.2-0.6,0.3c-0.1,0-0.1,0.1-0.2,0.1c0.2-0.2,0.3-0.3,0.5-0.5c0.3-0.3,0.6-0.6,0.9-0.8c0.5-0.4,1.1-0.8,1.6-1
					c0.2-0.1,0.4-0.2,0.7-0.3c0.6-0.2,1.2-0.2,1.8-0.1c0.2,0,0.5,0.1,0.7,0.2C20.2,29.4,20.3,29.5,20.5,29.6
					C20.5,29.6,20.5,29.6,20.5,29.6z"/>
			</g>
			<g id="XMLID_638_">
				<path id="XMLID_243_" class="st3" d="M16.3,28.3C16.3,28.3,16.3,28.3,16.3,28.3c-0.1,0.2-0.2,0.2-0.2,0.3c0,0,0,0,0,0
					c0,0,0,0-0.1,0.1c-0.2,0.2-0.4,0.3-0.6,0.5c-0.3,0.2-0.5,0.3-0.8,0.4c-0.4,0.1-0.8,0.2-1.2,0.2c-0.2,0-0.5,0-0.7,0
					c-0.2,0-0.3,0-0.5-0.1c-0.1,0-0.3-0.1-0.5-0.1c-0.2,0-0.5-0.1-0.7-0.1c-0.9-0.2-1.9-0.4-2.8-0.6c-0.2-0.1-0.5-0.2-0.7-0.3
					c-0.1,0-0.1,0-0.2-0.1c0,0,0,0,0,0c0,0,0,0,0,0h0.1c0,0,0,0,0.1,0c0.2,0,0.3,0,0.5,0c0.2,0,0.3,0,0.5,0h0c0.1,0,0.3,0,0.4,0
					c0.1,0,0.1,0,0.2,0c0.2,0,0.3,0,0.5,0c0.3,0,0.6-0.1,0.9-0.1c0.2,0,0.3,0,0.4,0c0.1,0,0.1,0,0.2,0c0.2,0,0.3,0,0.3,0
					s-0.1,0-0.2-0.1c-0.2,0-0.4-0.1-0.7-0.1c-0.2,0-0.4,0-0.6-0.1c-0.1,0-0.2,0-0.3,0c0,0-0.1,0-0.1,0c-0.3,0-0.6,0-0.9,0
					c-0.1,0-0.2,0-0.3,0c-0.2,0-0.4,0-0.6,0.1c0,0,0,0-0.1,0c0,0-0.1,0-0.1,0c-0.1,0-0.2,0-0.3,0c0,0-0.1,0-0.1,0
					c0,0,0.1-0.1,0.1-0.1c0.1,0,0.1-0.1,0.2-0.1c0.1,0,0.1-0.1,0.2-0.1c0.2-0.1,0.4-0.2,0.5-0.3c1.9-1.1,3.6-1.4,5.4-0.7
					c0.8,0.3,1.6,0.7,2.4,1.4C16.1,28.1,16.2,28.2,16.3,28.3L16.3,28.3z"/>
			</g>
			<g id="XMLID_635_">
				<path id="XMLID_232_" class="st3" d="M20.2,28.4C20.2,28.4,20.2,28.4,20.2,28.4c-0.1,0-0.2,0-0.3,0c-0.1,0-0.2,0-0.3,0
					c-0.1,0-0.1,0-0.2,0c-0.3,0-0.5,0-0.8-0.1c-0.3-0.1-0.7-0.2-1-0.3c-0.1,0-0.1,0-0.2-0.1c-0.3-0.2-0.7-0.3-1-0.5
					c-0.2-0.1-0.4-0.3-0.6-0.4c-0.6-0.4-1.2-0.9-1.7-1.4c-0.4-0.4-0.7-0.7-1.1-1.1c-0.3-0.3-0.6-0.6-0.9-0.9c0,0,0,0,0,0
					c0,0,0,0,0,0c0,0,0.1,0.1,0.1,0.1c0.4,0.3,0.8,0.6,1.3,0.9c0.1,0.1,0.2,0.1,0.2,0.2s0.2,0.1,0.2,0.2c0.3,0.2,0.5,0.4,0.8,0.6
					c0.4,0.3,0.8,0.5,1.1,0.8c0.6,0.4,1.1,0.7,1.1,0.7c0,0-0.4-0.4-0.9-0.9c-0.3-0.3-0.6-0.6-1-0.9c-0.1,0-0.1-0.1-0.2-0.1
					c-0.1-0.1-0.3-0.2-0.4-0.3c-0.2-0.2-0.4-0.3-0.6-0.5c-0.2-0.1-0.3-0.2-0.5-0.3c-0.1,0-0.1-0.1-0.2-0.1c-0.2-0.1-0.4-0.2-0.5-0.3
					c0,0-0.1,0-0.1-0.1c-0.1,0-0.2-0.1-0.2-0.1c0.1,0,0.1,0,0.2,0c0.4,0.1,0.8,0.1,1.2,0.2c1,0.2,1.9,0.4,2.7,0.8
					c0.9,0.5,1.5,1.1,2.1,1.7c0.3,0.4,0.6,0.8,0.9,1.2c0.1,0.2,0.3,0.4,0.4,0.6c0,0,0,0.1,0.1,0.1C20,28,20,28,20,28.1
					c0,0,0,0,0,0.1C20.1,28.2,20.2,28.3,20.2,28.4z"/>
			</g>
		</g>
	</g>
	<g id="XMLID_631_">
		<g id="XMLID_632_">
			<path id="XMLID_811_" class="st4" d="M45.7,45.2c-0.5-0.6-1.1-1.3-1.6-2c-0.3-0.3-0.6-0.6-0.9-1c-0.3-0.3-0.6-0.6-0.9-0.9
				c-0.6-0.6-1.2-1.2-1.9-1.8l-1-0.9c-0.3-0.3-0.7-0.5-1-0.8c-0.7-0.6-1.4-1.1-2-1.6c-0.2-0.1-0.3-0.3-0.5-0.4
				c-0.2-0.1-0.4-0.2-0.5-0.4c-0.3-0.2-0.7-0.5-1-0.7c-0.7-0.4-1.4-0.9-2.1-1.3c-0.7-0.4-1.4-0.8-2.1-1.1c-0.7-0.3-1.4-0.7-2.1-1
				c-0.7-0.3-1.3-0.6-2-0.8c-0.7-0.2-1.3-0.5-1.9-0.7c-0.6-0.2-1.2-0.4-1.8-0.5c-0.6-0.2-1.1-0.3-1.6-0.4c-0.3-0.1-0.5-0.1-0.7-0.2
				c-0.2,0-0.5-0.1-0.7-0.1c-0.4-0.1-0.9-0.2-1.2-0.2c-0.7-0.1-1.3-0.2-1.7-0.2c-0.4-0.1-0.6-0.1-0.6-0.1s0.2,0,0.6,0.1
				c0.4,0.1,1,0.1,1.7,0.3c0.4,0.1,0.8,0.2,1.2,0.3c0.2,0,0.4,0.1,0.7,0.1c0.2,0.1,0.5,0.1,0.7,0.2c0.5,0.1,1,0.3,1.6,0.4
				c0.6,0.2,1.1,0.4,1.7,0.6c0.6,0.2,1.2,0.5,1.9,0.7c0.6,0.3,1.3,0.6,2,0.9c0.7,0.3,1.3,0.7,2,1c0.7,0.4,1.4,0.8,2,1.2
				c0.7,0.4,1.4,0.9,2,1.3c0.3,0.2,0.7,0.5,1,0.7c0.2,0.1,0.3,0.2,0.5,0.4c0.2,0.1,0.3,0.3,0.5,0.4c0.7,0.5,1.3,1,2,1.6
				c0.3,0.3,0.6,0.6,1,0.8l0.9,0.9c0.6,0.6,1.2,1.2,1.8,1.8c0.3,0.3,0.6,0.6,0.8,0.9c0.3,0.3,0.5,0.6,0.8,1c0.5,0.7,1,1.3,1.5,2"/>
		</g>
	</g>
	<g id="XMLID_604_">
		<g id="XMLID_630_">
			<path id="XMLID_234_" class="st1" d="M48.4,32.3c-0.2,0-0.4,0-0.5,0c-0.8-0.1-1.4-0.2-2-0.4c-0.7-0.2-1.3-0.6-1.9-1
				c-0.1-0.1-0.2-0.2-0.4-0.3l-0.2-0.2c-0.1-0.1-0.2-0.2-0.3-0.3c-0.3-0.3-0.5-0.6-0.8-0.9c-0.1-0.1-0.1-0.2-0.2-0.3
				c-0.1-0.2-0.2-0.4-0.2-0.5L41.8,28l0-0.2c0-0.1,0-0.2,0-0.3c0-0.4-0.1-0.8,0-1.1c0-0.8,0.2-1.7,0.6-2.4c0.4-0.8,1-1.5,1.7-2
				c0.3-0.2,0.7-0.4,1.1-0.6c2.2-2.6,4.3-3.3,6.1-3.6l0,0c0,0,0.1,0,0.3,0c0.3-0.1,0.7-0.1,1-0.2l0.1,0.5l0.2,0.7l-0.2-1.2
				c1.2-0.2,2.5-0.6,3.8-1c1.9-0.6,3.8-1.5,5.6-2.5l0.3-0.2c0.2-0.1,0.3-0.2,0.5-0.3c0.3-0.2,0.5-0.3,0.8-0.5l0.4-0.3
				c0.1-0.1,0.2-0.1,0.2-0.2l1-0.7c0.1,0,0.1-0.1,0.2-0.2c0.2-0.2,0.4-0.3,0.6-0.5c0.2-0.2,0.4-0.3,0.6-0.5l0.7-0.5
				c0.5-0.3,0.9-0.7,1.4-1.1l0,0c1.3-1,2.6-2,4.2-2.9c1-0.6,1.8-1,2.6-1.3c1.1-0.5,2.2-0.7,3.2-0.8c1.2-0.1,2.4,0.1,3.6,0.5
				c1.1,0.4,2.1,1,3.1,1.8l0.7,0.6c0.2,0.1,0.3,0.3,0.5,0.5l0.1,0.1C86.8,7.8,87,8,87.1,8.1c0.1,0.1,0.1,0.1,0.2,0.2
				c0.2,0.2,0.4,0.5,0.6,0.7l0,0c0.9,1.2,1.4,2.6,1.5,3.9c0.1,1.3-0.2,2.8-0.8,4.1c-0.5,1.1-1.3,2.2-2.2,3.2
				c-1.6,1.7-3.6,3.1-6.1,4.3c-4.5,2.2-9.6,3.2-14.8,3c-1.3-0.1-2.6-0.2-3.9-0.4c-0.2,0-0.4-0.1-0.6-0.1L60.4,27
				c-0.2,0-0.4-0.1-0.6-0.1c0,0,0,0,0,0c-0.8,0.7-1.7,1.4-2.5,2c-0.1,0.1-0.3,0.2-0.5,0.3l-0.3,0.2c-0.2,0.1-0.3,0.2-0.5,0.3l0,0
				c-0.1,0.1-0.2,0.1-0.4,0.2c-0.3,0.2-0.6,0.4-1,0.6c-1.1,0.6-2.1,1-3,1.3C50.5,32.1,49.5,32.3,48.4,32.3z M45,28.7L45,28.7
				c0.1,0.1,0.2,0.2,0.3,0.2c0.4,0.3,0.8,0.5,1.3,0.7c0.4,0.1,0.9,0.2,1.4,0.3c0.9,0.1,1.9-0.1,2.8-0.4c0.8-0.2,1.7-0.6,2.6-1.1
				c0.3-0.2,0.6-0.3,0.9-0.5c0.1-0.1,0.2-0.1,0.4-0.2c0.1-0.1,0.3-0.2,0.4-0.3l0.3-0.2c0.1-0.1,0.3-0.2,0.4-0.3
				c1-0.7,1.9-1.4,2.8-2.3l0.5-0.4l0.9,0.2c0.1,0,0.3,0.1,0.4,0.1c0.2,0,0.3,0.1,0.5,0.1l0.6,0.1c0.2,0,0.4,0.1,0.5,0.1
				c1.2,0.2,2.4,0.3,3.6,0.4c4.8,0.2,9.5-0.8,13.6-2.8c2.2-1.1,4-2.3,5.4-3.8c0.8-0.8,1.4-1.7,1.8-2.6c0.5-1,0.7-2,0.6-2.9
				c-0.1-0.9-0.4-1.9-1-2.7c-0.2-0.2-0.3-0.4-0.5-0.5c-0.1-0.1-0.1-0.2-0.2-0.2c-0.1-0.1-0.2-0.2-0.3-0.3l-0.1-0.1
				c-0.1-0.1-0.3-0.3-0.4-0.4l-0.6-0.5c-0.8-0.6-1.6-1.1-2.4-1.4c-0.8-0.3-1.7-0.4-2.6-0.4c-0.8,0.1-1.6,0.3-2.5,0.6
				c-0.7,0.3-1.4,0.7-2.3,1.2c-1.4,0.9-2.7,1.8-4,2.8l0,0c-0.5,0.4-0.9,0.7-1.4,1L68,12.8c-0.2,0.2-0.4,0.3-0.6,0.5
				c-0.2,0.2-0.4,0.3-0.6,0.5c-0.1,0.1-0.2,0.1-0.3,0.2l-1,0.7c-0.1,0.1-0.2,0.2-0.3,0.2l-0.4,0.3c-0.3,0.2-0.6,0.4-0.8,0.5l0,0
				c-0.2,0.1-0.4,0.2-0.5,0.3L63,16.2c-2,1.1-4,2-6.1,2.7c-1.4,0.5-2.8,0.8-4.1,1.1l-0.1,0c-0.3,0-0.6,0.1-1,0.2l-0.1,0
				c0,0-0.1,0-0.1,0l0,0c-1.7,0.3-3.2,1-4.9,3l-0.2,0.2l-0.3,0.1c-0.3,0.1-0.6,0.3-0.9,0.5c-0.4,0.3-0.8,0.7-1,1.1
				c-0.2,0.4-0.3,0.9-0.4,1.4c0,0.3,0,0.5,0,0.8c0,0.1,0,0.1,0,0.2l0,0.1c0,0,0,0.1,0,0.1c0,0,0,0.1,0,0.1c0,0.1,0.1,0.1,0.1,0.2
				c0.1,0.2,0.3,0.4,0.5,0.6l0,0C44.8,28.5,44.9,28.6,45,28.7C45,28.7,45,28.7,45,28.7z"/>
		</g>
		<g id="XMLID_605_">
			<g id="XMLID_627_">
				<path id="XMLID_230_" class="st3" d="M85,18.4c-10.2,9.7-25.7,6.5-25.7,6.5c-0.3,0.3-2,1.4-4.1,2.6c-1.9,1.1-4.2,2.2-6.2,2.8
					c-2.2,0.7-3.9-0.3-4.6-1.9c-0.7-1.6-0.4-3.8,1.1-5.8c3.2-3.9,5.9-3.5,8.7-4.1c2.8-0.6,4.8-1.6,7.8-2.9c3-1.3,10.3-6.7,10.3-6.7
					c1.3-1.2,2.9-1.9,4.6-2.1c3.6-0.5,7.4,0.9,8.9,3.8C87,12.5,88.3,15.2,85,18.4z"/>
			</g>
			<g id="XMLID_626_">
				<path id="XMLID_802_" class="st5" d="M53.1,22.8c-1.3,0-2.4,0-3.4-0.1C50.8,22.7,51.9,22.7,53.1,22.8z"/>
			</g>
			<g id="XMLID_625_">
				<path id="XMLID_800_" class="st5" d="M85,18.4c-10.2,9.7-25.7,6.5-25.7,6.5c-0.3,0.3-2,1.4-4.1,2.6c-3.4-0.4-7.1-0.3-10.7,0.9
					c-0.7-1.6-0.4-3.8,1.1-5.8c0,0,1.6,0.1,4,0.1c1,0,2.2,0,3.4,0.1c7.9,0.1,19.9-0.3,24.4-2.9c7-4,6.9-9.5,0.2-12.8
					c-0.2-0.1-0.5-0.2-0.6-0.4c3.6-0.5,7.4,0.9,8.9,3.8C87,12.5,88.3,15.2,85,18.4z"/>
			</g>
			<g id="XMLID_617_">
				<g id="XMLID_618_">
					<g id="XMLID_619_">
						<g id="XMLID_620_">
							<g id="XMLID_621_">
								<path id="XMLID_795_" class="st0" d="M88.2,13.1c-0.1-1.2-0.6-2.4-1.3-3.3c-0.2-0.2-0.4-0.5-0.5-0.6
									c-0.2-0.2-0.4-0.4-0.5-0.6c-0.2-0.2-0.4-0.4-0.6-0.6c-0.2-0.2-0.4-0.3-0.6-0.5c-0.8-0.7-1.7-1.2-2.7-1.6
									c-1-0.4-2.1-0.5-3.1-0.4c-1,0.1-2,0.4-2.9,0.7c-0.9,0.4-1.7,0.8-2.4,1.3c-1.5,0.9-2.9,1.9-4.1,2.9c-0.5,0.4-0.9,0.7-1.4,1.1
									c-0.2,0.2-0.5,0.3-0.7,0.5c-0.2,0.2-0.4,0.3-0.7,0.5c-0.2,0.2-0.4,0.3-0.6,0.5c-0.1,0.1-0.2,0.1-0.2,0.2
									c-0.3,0.2-0.6,0.4-0.9,0.6c-0.1,0.1-0.3,0.2-0.4,0.3c-0.1,0.1-0.3,0.2-0.4,0.3c-0.3,0.2-0.6,0.3-0.8,0.5
									c-0.3,0.2-0.6,0.3-0.8,0.5c-2.2,1.2-4.2,2.1-5.8,2.6c-1.7,0.6-3,0.9-3.9,1c-0.2,0-0.4,0.1-0.6,0.1c0,0-0.1,0-0.1,0
									C51.5,19,51.3,19,51.2,19c0,0,0.1,0,0.1,0c0,0,0.1,0,0.1,0c0.1,0,0.3,0,0.6,0c0.1,0,0.2,0,0.3,0c0,0,0,0,0,0
									c0.1,0,0.2,0,0.3,0c0.9-0.1,2.3-0.3,4-0.8c1.7-0.5,3.8-1.2,6.1-2.3c0.3-0.1,0.6-0.3,0.9-0.4c0.3-0.2,0.6-0.3,0.9-0.5
									c0.1-0.1,0.3-0.2,0.4-0.3c0.1-0.1,0.3-0.2,0.4-0.3c0.2-0.1,0.4-0.3,0.6-0.4c0.1-0.1,0.2-0.1,0.3-0.2
									c0.2-0.1,0.3-0.2,0.5-0.3c0.3-0.2,0.6-0.4,0.9-0.6c0.3-0.2,0.6-0.4,0.9-0.6c0.5-0.3,1-0.7,1.4-1c1.3-0.9,2.7-1.8,4.1-2.6
									c0.7-0.4,1.5-0.8,2.3-1.1c0.8-0.3,1.6-0.5,2.5-0.5c0.8,0,1.7,0.1,2.5,0.4c0.8,0.3,1.6,0.8,2.3,1.4C83.8,8.9,84,9,84.2,9.2
									c0.2,0.2,0.3,0.3,0.5,0.5c0.2,0.2,0.3,0.4,0.5,0.5c0.2,0.2,0.3,0.4,0.4,0.5c0.5,0.7,0.8,1.6,0.9,2.4
									c0.1,0.9-0.2,1.8-0.6,2.6c-0.4,0.9-1,1.7-1.7,2.4c-1.4,1.5-3.3,2.6-5.2,3.6c-4,1.9-8.6,2.8-13.2,2.6
									c-1.2-0.1-2.3-0.2-3.5-0.4c-0.3,0-0.6-0.1-0.8-0.2c0,0-0.1,0-0.1,0c-0.2-0.1-0.5-0.1-0.7-0.2c-0.2,0-0.4-0.1-0.5-0.1
									c-0.1,0-0.1,0-0.2,0c0,0-0.1,0-0.1,0c-0.3-0.1-0.6-0.2-0.8-0.2c-0.6-0.2-1.1-0.3-1.7-0.5c-0.3-0.1-0.6-0.1-0.9-0.2
									c-0.3-0.1-0.6-0.1-0.9-0.2c-0.6-0.1-1.2-0.2-1.7-0.3c-0.6-0.1-1.2-0.2-1.8-0.2c-1.2-0.1-2.4-0.2-3.6,0c-0.2,0-0.3,0-0.5,0.1
									l-0.5,0.1l-0.2,0L46.9,22c-0.2,0-0.3,0.1-0.5,0.1c-0.6,0.2-1.2,0.5-1.8,0.9c-0.5,0.4-1,0.9-1.3,1.5
									c-0.3,0.6-0.5,1.3-0.5,1.9c0,0.3,0,0.6,0,0.9c0,0.1,0,0.2,0,0.2l0,0.2c0,0.1,0,0.1,0,0.2c0,0.1,0.1,0.2,0.1,0.3
									c0,0.1,0.1,0.2,0.1,0.2c0.2,0.3,0.4,0.5,0.6,0.8c0.1,0.1,0.2,0.2,0.3,0.3c0.1,0.1,0.2,0.2,0.4,0.3c0.5,0.4,1.1,0.6,1.6,0.8
									c0.6,0.2,1.1,0.3,1.7,0.3c1.1,0.1,2.3-0.1,3.3-0.4c1-0.3,2-0.7,2.8-1.2c0.4-0.2,0.9-0.5,1.3-0.8c0.2-0.1,0.4-0.3,0.6-0.4
									c0.2-0.1,0.4-0.3,0.6-0.4c1-0.7,2-1.5,2.9-2.3c0.2,0.1,0.4,0.1,0.6,0.2c0.3,0.1,0.6,0.1,0.9,0.2c0.3,0.1,0.6,0.1,0.9,0.2
									c1.2,0.2,2.5,0.3,3.7,0.4c5,0.2,9.9-0.8,14.2-2.9c2.1-1,4.1-2.4,5.7-4.1c0.8-0.9,1.5-1.8,2-2.9C88,15.5,88.3,14.3,88.2,13.1
									z M57.4,25.5c-0.2,0.1-0.4,0.3-0.5,0.4c-0.4,0.3-0.7,0.5-1.1,0.8c-0.2,0.1-0.4,0.2-0.6,0.4c-0.2,0.1-0.4,0.2-0.6,0.4
									c-0.4,0.2-0.8,0.5-1.2,0.7c-0.8,0.4-1.7,0.8-2.6,1c-0.9,0.2-1.8,0.4-2.7,0.3c-0.9-0.1-1.7-0.4-2.4-0.9
									c-0.1-0.1-0.2-0.1-0.3-0.2c-0.1-0.1-0.2-0.1-0.2-0.2c-0.1-0.1-0.3-0.3-0.4-0.5c0,0,0-0.1-0.1-0.1c0,0,0,0,0,0c0,0,0,0,0,0
									l0,0c0-0.1,0-0.1,0-0.2c0-0.2,0-0.4,0-0.7c0-0.4,0.1-0.8,0.3-1.2c0.2-0.3,0.5-0.6,0.8-0.9c0.3-0.2,0.8-0.4,1.2-0.6
									c0.5-0.1,0.9-0.2,1.5-0.3c1-0.1,2.1,0,3.2,0.1c0.5,0.1,1.1,0.1,1.6,0.2c0.5,0.1,1.1,0.2,1.7,0.3c0.3,0.1,0.6,0.1,0.8,0.2
									c0.3,0.1,0.6,0.1,0.8,0.2c0.1,0,0.3,0.1,0.4,0.1c0.3,0.1,0.6,0.2,0.9,0.2C57.7,25.3,57.6,25.4,57.4,25.5z"/>
							</g>
						</g>
					</g>
				</g>
			</g>
			<g id="XMLID_615_">
				<g id="XMLID_616_">
					<path id="XMLID_789_" class="st4" d="M65.3,17.6c-0.5-0.1-1.2,0-1.8,0.3c-1.4,0.5-2.2,1.6-1.8,2.5c0.2,0.4,0.6,0.7,1.2,0.8
						c0.5,0.1,1.2,0,1.8-0.3c0.1,0,0.1,0,0.2-0.1c0.6-0.2,1-0.6,1.3-1c0.4-0.5,0.5-1,0.3-1.4C66.3,17.9,65.9,17.6,65.3,17.6z"/>
				</g>
			</g>
			<g id="XMLID_614_">
				<path id="XMLID_786_" class="st4" d="M76.8,17c-0.7,0-1.6,0.2-2.4,0.6c-1.8,0.9-2.8,2.3-2.3,3.3c0.2,0.5,0.8,0.8,1.6,0.8
					c0.7,0,1.4-0.2,2.1-0.5c0.1,0,0.2-0.1,0.2-0.1c1.8-0.9,2.8-2.3,2.3-3.3C78.2,17.3,77.6,17,76.8,17z"/>
			</g>
			<g id="XMLID_611_">
				<g id="XMLID_612_">
					<g id="XMLID_613_">
						
							<ellipse id="XMLID_784_" transform="matrix(0.5242 -0.8516 0.8516 0.5242 26.6084 72.0601)" class="st6" cx="77.8" cy="12.2" rx="2.3" ry="0.7"/>
					</g>
				</g>
			</g>
			<g id="XMLID_610_">
				<path id="XMLID_780_" class="st7" d="M67.1,14.9c0.1,0.1,0,0.2-0.2,0.3s-0.2,0.1-0.3-0.1c-0.1-0.1,0-0.3,0.1-0.4
					C66.9,14.7,67.1,14.7,67.1,14.9z"/>
			</g>
			<g id="XMLID_609_">
				<path id="XMLID_778_" class="st7" d="M57.6,19.2c0.3,0,0.4,0.3,0.4,0.6s-0.1,0.5-0.4,0.5c-0.3,0-0.6-0.1-0.6-0.5
					C57.1,19.5,57.3,19.2,57.6,19.2z"/>
			</g>
			<g id="XMLID_608_">
				<path id="XMLID_776_" class="st7" d="M68.7,22c0-0.2,0.2-0.2,0.3-0.2c0.2,0,0.2,0.1,0.2,0.2s-0.1,0.3-0.3,0.3
					C68.8,22.3,68.7,22.1,68.7,22z"/>
			</g>
			<g id="XMLID_607_">
				<path id="XMLID_774_" class="st7" d="M72.5,16.5c0.3,0,0.4,0.3,0.4,0.6c0,0.3-0.1,0.5-0.4,0.5c-0.3,0-0.6-0.1-0.6-0.5
					C71.9,16.8,72.2,16.5,72.5,16.5z"/>
			</g>
			<g id="XMLID_606_">
				<path id="XMLID_772_" class="st7" d="M79.9,15.4c0.2,0,0.2,0.1,0.2,0.3s0,0.2-0.2,0.2c-0.2,0-0.3-0.1-0.3-0.2
					C79.6,15.5,79.7,15.4,79.9,15.4z"/>
			</g>
		</g>
	</g>
	<g id="XMLID_597_">
		<g id="XMLID_598_">
			<g id="XMLID_306_">
				<path id="XMLID_768_" class="st4" d="M28.9,86.6c-0.4,0-0.8-0.2-1.1-0.5c-0.3-0.3-0.4-0.7-0.4-1.1c0-0.2,0-0.4,0-0.6
					c-0.1-1.7-0.2-4.5,2.3-6.7c2.3-2.2,6.4-3.2,12.3-3.2c2.2,0,4.6,0.1,7.3,0.4c3.2,0.3,6.3,0.5,9.1,0.5c13.8,0,18.2-4.1,18.3-4.1
					c0.3-0.3,0.7-0.5,1.1-0.5c0.4,0,0.8,0.2,1.1,0.5c0.3,0.3,0.5,0.7,0.5,1.1c0,0.4-0.2,0.8-0.5,1.1c-0.2,0.2-5.2,5.1-20.5,5.1
					c-2.9,0-6.1-0.2-9.4-0.5c-2.6-0.3-5-0.4-7.1-0.4c-5,0-8.5,0.8-10.2,2.4c-1.4,1.3-1.3,2.9-1.3,4.4c0,0.3,0,0.6,0,0.8
					c0,0.7-0.5,1.3-1.2,1.5C29.1,86.6,29,86.6,28.9,86.6L28.9,86.6z"/>
			</g>
			<g id="XMLID_288_">
				<path id="XMLID_764_" class="st1" d="M77.7,71.2c0.3,0,0.5,0.1,0.7,0.3c0.4,0.4,0.4,1.1,0,1.5c-0.2,0.2-5.1,4.9-20.2,4.9
					c-2.8,0-5.8-0.2-9.3-0.5c-2.6-0.3-5-0.4-7.1-0.4c-5.2,0-8.7,0.8-10.5,2.5c-1.6,1.5-1.5,3.3-1.4,4.7c0,0.3,0,0.5,0,0.8
					c0,0.5-0.4,0.9-0.8,1c-0.1,0-0.2,0-0.2,0c0,0,0,0,0,0c-0.6,0-1-0.5-1-1.1c0-0.2,0-0.4,0-0.7c-0.1-1.6-0.1-4.2,2.1-6.4
					c2.2-2.1,6.2-3.1,12-3.1c2.2,0,4.6,0.1,7.3,0.4c3.4,0.4,6.5,0.5,9.1,0.5c14.2,0,18.6-4.2,18.6-4.3
					C77.2,71.3,77.5,71.2,77.7,71.2 M77.7,70.2c-0.6,0-1.1,0.2-1.5,0.6c-0.1,0.1-4.5,4-17.9,4c-2.8,0-5.8-0.2-9-0.5
					c-2.7-0.3-5.2-0.4-7.4-0.4c-6.1,0-10.2,1.1-12.7,3.4c-2.6,2.4-2.5,5.5-2.4,7.1c0,0.2,0,0.5,0,0.6c0,1.1,0.9,2.1,2,2.1l0,0l0,0
					c0.2,0,0.3,0,0.5,0c0.9-0.2,1.6-1,1.6-2c0-0.3,0-0.5,0-0.8c0-1.4-0.1-2.8,1.1-4c1.6-1.5,5-2.3,9.8-2.3c2.1,0,4.4,0.1,7,0.4
					c3.3,0.3,6.5,0.5,9.4,0.5c15.3,0,20.4-4.7,20.9-5.2c0.4-0.4,0.6-0.9,0.6-1.5c0-0.6-0.2-1.1-0.6-1.5
					C78.8,70.4,78.3,70.2,77.7,70.2L77.7,70.2z"/>
			</g>
		</g>
	</g>
	<g id="XMLID_596_">
		<path id="XMLID_760_" class="st8" d="M41.4,59.6c-0.3-0.4-0.5-0.4-0.6-0.4c0,0,0,0,0,0c-0.5,0-1.1,0.6-1.7,1.7
			c-0.8,1.3-1.1,3.2-0.9,5.6c0.1,1.3,0.4,2.3,0.9,3c0.2,0.3,0.4,0.3,0.5,0.3c0,0,0,0,0,0c0.6,0,1.2-0.8,1.5-1.3
			c0.8-1.5,1.2-3.4,1.1-5.6C42,60.7,41.6,59.9,41.4,59.6z"/>
	</g>
	<g id="XMLID_595_">
		<path id="XMLID_758_" class="st8" d="M63.2,66.1c0.1-0.1,0.3-0.3,0.4-0.5l1.1-1.3l1.2,1.2l0.7,0.7l0.3,0.3l0.3-1.5
			c0.3-1.7,0.6-3.4,0.9-5c0,0-0.1,0.1-0.1,0.1l-1.1,1.3l-1.2-1.2l-0.6-0.6l-0.5-0.5L64,62.3C63.6,64,63.4,65.2,63.2,66.1z"/>
	</g>
	<g id="XMLID_594_">
		<path id="XMLID_756_" class="st4" d="M49.3,60c0.9-1,1.5-1.6,1.9-1.8c0.4-0.3,0.7-0.4,0.9-0.4c0,0,0,0,0,0c0.2,0,0.4,0.2,0.4,0.5
			c0,0.6-0.3,2.5-0.9,5.6c-0.5,2.4-0.8,4.1-1,4.9c-0.1,0.6-0.1,1.1-0.1,1.6c0,0.6,0.2,1.1,0.5,1.4c0.2,0.3,0.6,0.4,1,0.4
			c0,0,0.1,0,0.1,0c0.8,0,1.7-0.4,2.8-1.1c1.6-1.1,2.9-2.3,4-3.6c-0.2,1.1-0.3,2-0.3,2.7c0,0.6,0.2,1,0.5,1.3c0.3,0.3,0.6,0.4,1,0.4
			c0,0,0.1,0,0.1,0c1.2-0.1,3-1.5,5.4-4.3l-0.7-0.7c-1.1,1.2-1.8,2-2.2,2.3c-0.3,0.2-0.5,0.3-0.7,0.3c0,0,0,0,0,0
			c-0.1,0-0.2-0.1-0.4-0.2c-0.1-0.1-0.2-0.3-0.2-0.5c0-0.5,0.4-2.7,1.2-6.7l1.4-6.7l-2.7,0.2l-1.6,7.9c-0.3,1.5-1.1,2.9-2.3,4.1
			c-1.2,1.2-2.2,1.9-2.9,1.9c0,0,0,0,0,0c-0.2,0-0.4-0.1-0.5-0.3c-0.2-0.2-0.3-0.4-0.3-0.7c0-0.4,0.3-2.2,0.9-5.3
			c0.7-3.5,1-5.6,1-6.5c0-0.5-0.1-0.8-0.3-1c-0.2-0.2-0.4-0.3-0.7-0.3c0,0,0,0-0.1,0c-0.5,0-1.2,0.3-2.1,0.8
			c-0.9,0.5-2.1,1.6-3.7,3.2L49.3,60z"/>
	</g>
	<g id="XMLID_593_">
		<path id="XMLID_754_" class="st4" d="M22.6,53.5c0,0.3,0,1-0.2,2.1l1-0.1c0.1-0.7,0.4-2.4,0.8-5.1c-0.9,0.3-1.6,0.5-1.8,0.5
			c-1,0.2-1.9,0.3-2.7,0.3l-7.3,0.4c-3.2,0.2-5.8,1.4-7.6,3.7c-1.9,2.3-2.7,4.6-2.5,7.2c0.1,1.3,0.4,2.3,0.8,3
			c0.3,0.5,0.7,0.7,1.2,0.7c0,0,0.1,0,0.1,0c0.3,0,0.6-0.1,0.8-0.3c0.2-0.2,0.3-0.4,0.3-0.7c0-0.3-0.2-0.7-0.6-1.4
			c-0.3-0.5-0.5-0.9-0.6-1.2C4.1,62,4,61.7,4,61.2c-0.1-1.2,0-1.7,0.7-3c0.7-1.2,1.6-2.2,2.9-3c1.2-0.8,2.7-1.3,4.4-1.4l-2,10.6
			c-0.8,4.1-1.4,6.5-1.8,7.3c-0.2,0.4-0.4,0.7-0.8,1C7,73,6.3,73.3,5.2,73.6L5,74.7c1.4-0.3,2.7-0.5,3.9-0.6c0.5,0,1,0,1.7,0
			c0.2,0,0.4,0,0.6,0c1.5,0,2.3,0,2.6,0c0.3,0,0.7-0.1,1-0.1l0.3-1.1c-0.5,0.1-1,0.2-1.5,0.2c-0.3,0-0.5,0-0.8,0
			c-0.6,0-1.2,0-1.9-0.1c0.4-1.1,0.8-2.7,1.2-4.8c0.5-2.1,0.8-4,1.1-5.8l3.6-0.2c0.2,0,0.3,0,0.5,0c0.5,0,0.8,0,1,0.1
			c0.3,0.1,0.5,0.4,0.5,0.7c0,0.1,0,0.6-0.1,1.3l1-0.1c0.2-1.7,0.4-3.4,0.7-5l-1,0.1c-0.1,0.7-0.3,1.2-0.6,1.4
			c-0.3,0.2-0.8,0.3-1.7,0.4l-3.7,0.2c0.3-1.6,0.7-3.6,1.2-6.1c0.3-1.2,0.4-2,0.5-2.3l3.8-0.2l0.4,0l1.2-0.1c0.2,0,0.3,0,0.5,0
			c0.6,0,1,0.1,1.2,0.2C22.4,52.8,22.6,53.1,22.6,53.5z"/>
	</g>
	<g id="XMLID_592_">
		<path id="XMLID_752_" class="st4" d="M29.1,70.8c-0.5,0.4-0.9,0.5-1.2,0.6c0,0,0,0,0,0c-0.3,0-0.4-0.2-0.4-0.6
			c0-0.2,0.3-2.3,1-6.3l1.4-8c0.5-2.9,0.9-4.8,1.1-5.8c0.2-1,0.5-1.6,0.9-2c0.3-0.2,0.6-0.4,1.1-0.4c0.2,0,0.3,0,0.5,0
			c0.4,0,0.8,0,1.2,0.1c0.6,0.1,1,0.1,1.4,0.1c0.1,0,0.2,0,0.3,0c0.6,0,1-0.2,1.3-0.5c0.3-0.3,0.4-0.6,0.4-1c0-0.4-0.2-0.7-0.5-0.9
			c-0.3-0.2-0.7-0.3-1.1-0.3c-0.1,0-0.1,0-0.2,0c-1.6,0.1-3.1,0.6-4.5,1.6c-1.4,0.9-2.4,2.2-3.1,3.8c-0.4,1.1-0.9,3.1-1.5,6.2
			l-1.5,8.4c-0.6,3.2-0.9,5.3-0.8,6.4c0,0.5,0.2,0.9,0.5,1.2c0.2,0.3,0.6,0.4,0.9,0.4c0,0,0.1,0,0.1,0c0.9-0.1,2-0.6,3.2-1.6
			c1-0.8,1.9-1.6,2.6-2.5c-0.1-0.4-0.1-0.8-0.2-1.3c0,0,0,0,0,0C31,69.3,30,70.1,29.1,70.8z"/>
	</g>
	<g id="XMLID_589_">
		<path id="XMLID_748_" class="st4" d="M42.4,56.1c-0.1,0-0.2,0-0.3,0c-2.8,0.2-5.1,1.7-6.9,4.6c-1.2,2.1-1.8,4.2-1.9,6.6l0.4,0.3
			l1.1,1L34,69.7c-0.1,0.1-0.1,0.1-0.2,0.2c0.2,0.7,0.6,1.3,1.1,1.8c0.8,0.8,1.8,1.1,3,1.1c0.1,0,0.2,0,0.4,0c2.2-0.1,4.2-1.4,6-3.7
			c1.8-2.3,2.7-4.9,2.5-7.7c0-0.5-0.1-0.9-0.2-1.3L46,59.6l0.4-0.5c-0.2-0.7-0.6-1.3-1.1-1.8C44.5,56.5,43.6,56.1,42.4,56.1z
			 M42.4,69.2c-0.8,1.4-1.7,2.1-2.8,2.1c0,0-0.1,0-0.1,0c-0.7,0-1.3-0.3-1.7-0.9c-0.7-0.9-1.1-2.2-1.2-3.8c-0.2-2.7,0.2-4.8,1.1-6.4
			c0.9-1.6,1.9-2.4,3-2.5c0,0,0.1,0,0.1,0c0.7,0,1.3,0.4,1.9,1.1c0.6,0.8,0.9,2.1,1,4C43.8,65.2,43.4,67.4,42.4,69.2z"/>
	</g>
	<g id="XMLID_588_">
		<path id="XMLID_746_" class="st4" d="M46.7,60.1c-0.1-0.3-0.2-0.7-0.3-0.9L46,59.6L46.7,60.1z"/>
	</g>
	<g id="XMLID_150_">
		<path id="XMLID_744_" class="st4" d="M34.9,68.6l-1.1-1l-0.4-0.3c0,0.3,0,0.6,0,0.9c0,0.1,0,0.1,0,0.2l0.3,0.3L33.6,69
			c0.1,0.3,0.1,0.7,0.2,1c0.1-0.1,0.1-0.1,0.2-0.2L34.9,68.6z"/>
	</g>
	<g id="XMLID_586_">
		<path id="XMLID_742_" class="st4" d="M33.5,68.4c0,0.2,0,0.4,0.1,0.6l0.2-0.3L33.5,68.4z"/>
	</g>
	<g id="XMLID_585_">
		<path id="XMLID_740_" class="st4" d="M71.2,66.6c0.4-2.5,0.7-4.1,1-4.8c0.2-0.7,0.7-1.5,1.3-2.5c0.6-1,1.2-1.7,1.8-2.1
			c0.6-0.5,1.3-0.9,2.2-1.3c1-0.4,1.6-0.7,1.8-1c0.2-0.3,0.3-0.6,0.3-0.9c0-0.3-0.2-0.6-0.4-0.8C79,53.1,78.7,53,78.4,53
			c0,0-0.1,0-0.1,0c-0.5,0-1.1,0.4-1.9,1.1c-1.5,1.5-2.9,3.3-4,5.4l0.6-3.5c0.1-0.7,0.2-1.2,0.2-1.3c0-0.2-0.1-0.3-0.2-0.4
			c-0.1-0.1-0.3-0.1-0.5-0.1c0,0-0.1,0-0.1,0c-0.6,0-1.5,0.4-2.7,1.1c-1.2,0.7-2.3,1.8-3.4,3.1l0.6,0.6c1-1.1,1.6-1.8,2-2
			c0.4-0.3,0.7-0.4,0.8-0.4c0,0,0,0,0,0c0.2,0,0.4,0.1,0.4,0.4c0,0.1,0,0.5-0.1,1.1c-0.3,2.3-0.8,4.7-1.3,7.2l-1,5.2l2.8-0.2
			L71.2,66.6z"/>
	</g>
	<g id="XMLID_584_">
		<path id="XMLID_738_" class="st4" d="M88.7,53.9c-0.5-0.3-1.3-0.5-2.2-0.5c-0.2,0-0.3,0-0.5,0c-1.5,0.1-2.8,0.6-3.7,1.6
			c-0.9,1-1.4,2.1-1.3,3.3c0.1,1.3,0.8,2.7,2.2,4.1c1,1,1.7,1.7,2,2.1c0.3,0.4,0.5,0.9,0.5,1.3c0,0.5-0.1,0.9-0.3,1.4
			c-0.3,0.5-0.6,0.9-1.1,1.1c-0.5,0.3-1.1,0.4-1.8,0.5c-0.1,0-0.1,0-0.2,0c-0.5,0-0.9-0.1-1.2-0.4c-0.4-0.3-0.6-0.6-0.6-1
			c0-0.1,0-0.3,0-0.4c0-0.2,0-0.4,0-0.5c0-0.3-0.2-0.6-0.4-0.8c-0.2-0.2-0.5-0.3-0.8-0.3c0,0-0.1,0-0.1,0c-0.4,0-0.7,0.2-1,0.5
			c-0.3,0.3-0.4,0.7-0.4,1.1c0.1,0.9,0.5,1.6,1.2,2.2c0.7,0.5,1.6,0.7,2.8,0.7c0.2,0,0.4,0,0.6,0c1.8-0.1,3.2-0.7,4.3-1.8
			c1.1-1.1,1.6-2.3,1.5-3.6c-0.1-1.3-0.9-2.7-2.4-4.1c-1.1-1-1.8-1.8-2.1-2.2c-0.3-0.5-0.4-1-0.5-1.5c0-0.6,0.1-1.1,0.5-1.5
			c0.4-0.4,0.8-0.6,1.3-0.7c0,0,0.1,0,0.1,0c0.6,0,1.2,0.4,1.8,1.1c0.4,0.4,0.6,0.7,0.8,0.8c0.2,0.1,0.3,0.1,0.5,0.1
			c0,0,0.1,0,0.1,0c0.4,0,0.7-0.2,0.9-0.4c0.2-0.3,0.4-0.6,0.3-0.9C89.7,54.8,89.3,54.3,88.7,53.9z"/>
	</g>
	<g id="XMLID_581_">
		<path id="XMLID_734_" class="st1" d="M20.6,57.3l1.9-0.1l1-0.1l1.3-0.1l0.1-1.3c0.1-0.7,0.4-2.4,0.8-5l0.5-2.6l-2.5,0.8
			c-1.2,0.4-1.6,0.4-1.6,0.5l0,0l0,0c-0.9,0.1-1.7,0.2-2.5,0.3l-7.3,0.4c-3.7,0.2-6.6,1.6-8.8,4.2c-2.1,2.6-3.1,5.4-2.9,8.3
			c0.1,1.6,0.5,2.8,1.1,3.8c0.6,0.9,1.5,1.4,2.5,1.4c0.1,0,0.1,0,0.2,0c0.7,0,1.4-0.3,1.9-0.8c0.5-0.5,0.8-1.2,0.7-1.9
			c0-0.6-0.3-1.2-0.9-2.1c-0.4-0.6-0.4-0.8-0.4-0.8l0,0l0,0c-0.1-0.4-0.2-0.6-0.2-1c-0.1-1-0.1-1.2,0.5-2.1c0.6-1,1.3-1.8,2.3-2.5
			c0.5-0.3,1-0.5,1.5-0.7l-1.6,8.3c-1.1,5.2-1.5,6.6-1.7,7c-0.1,0.2-0.2,0.3-0.3,0.4c0,0-0.3,0.2-1.6,0.6l-1,0.3l-0.2,1l-0.2,1.1
			l-0.4,2.3l2.3-0.5c1.3-0.3,2.5-0.5,3.6-0.5c0.4,0,1,0,1.6,0c0.2,0,0.4,0,0.5,0c2,0,2.5,0,2.7,0c0.4,0,0.8-0.1,1.2-0.1l1-0.2l0.2-1
			l0.3-1.1l0.6-2.4l-2.4,0.5c-0.4,0.1-0.9,0.1-1.3,0.2c-0.2,0-0.4,0-0.6,0c0.2-0.9,0.5-1.9,0.7-3c0.4-1.6,0.7-3.2,0.9-4.6l2.3-0.1
			c0.1,0,0.2,0,0.3,0c0,0.1,0,0.2,0,0.3L17,65.8l1.8-0.1l1-0.1l1.3-0.1l0.1-1.3c0.2-1.7,0.4-3.4,0.7-4.9l0.4-2l-2,0.1l-1,0.1
			l-1.2,0.1l-0.2,1.2c0,0.2-0.1,0.3-0.1,0.4c-0.2,0-0.4,0.1-0.8,0.1l-1.7,0.1c0.2-1.2,0.5-2.6,0.8-4.1c0.1-0.4,0.2-0.8,0.2-1.1
			l2.5-0.2l0.4,0l0.1,0l0.1,0l1.2-0.1c0.1,0,0.3,0,0.4,0c0,0,0.1,0,0.1,0c0,0.3-0.1,0.7-0.2,1.4L20.6,57.3z M14.6,55
			c-0.5,2.5-0.9,4.5-1.2,6.1l3.7-0.2c0.9-0.1,1.5-0.2,1.7-0.4c0.3-0.2,0.4-0.7,0.6-1.4l1-0.1c-0.3,1.6-0.5,3.3-0.7,5l-1,0.1
			c0-0.7,0.1-1.1,0.1-1.3c0-0.3-0.2-0.5-0.5-0.7c-0.1-0.1-0.5-0.1-1-0.1c-0.1,0-0.3,0-0.5,0l-3.6,0.2c-0.3,1.8-0.6,3.7-1.1,5.8
			c-0.5,2.1-0.9,3.7-1.2,4.8c0.7,0.1,1.3,0.1,1.9,0.1c0.3,0,0.5,0,0.8,0c0.5,0,1-0.1,1.5-0.2l-0.3,1.1c-0.4,0.1-0.7,0.1-1,0.1
			c-0.3,0-1.2,0-2.6,0c-0.2,0-0.4,0-0.6,0c-0.6,0-1.2,0-1.7,0c-1.2,0.1-2.5,0.3-3.9,0.6l0.2-1.1C6.3,73.3,7,73,7.4,72.7
			c0.3-0.3,0.6-0.6,0.8-1c0.3-0.8,0.9-3.2,1.8-7.3l2-10.6c-1.7,0.2-3.1,0.6-4.4,1.4c-1.2,0.8-2.2,1.8-2.9,3C4,59.4,3.9,60,4,61.2
			c0,0.5,0.1,0.8,0.2,1.3c0.1,0.3,0.3,0.7,0.6,1.2c0.4,0.6,0.6,1.1,0.6,1.4c0,0.3-0.1,0.5-0.3,0.7C5,66,4.7,66.1,4.4,66.2
			c0,0-0.1,0-0.1,0c-0.5,0-0.9-0.2-1.2-0.7c-0.5-0.7-0.7-1.7-0.8-3c-0.2-2.5,0.7-4.9,2.5-7.2c1.9-2.2,4.4-3.5,7.6-3.7l7.3-0.4
			c0.8,0,1.7-0.2,2.7-0.3c0.3,0,0.9-0.2,1.8-0.5c-0.5,2.7-0.8,4.4-0.8,5.1l-1,0.1c0.2-1.1,0.2-1.8,0.2-2.1c0-0.4-0.2-0.7-0.5-0.9
			c-0.2-0.1-0.6-0.2-1.2-0.2c-0.1,0-0.3,0-0.5,0l-1.2,0.1l-0.4,0l-3.8,0.2C15,53,14.8,53.8,14.6,55z"/>
	</g>
	<g id="XMLID_578_">
		<path id="XMLID_730_" class="st1" d="M39.6,71.3c1.1-0.1,2-0.8,2.8-2.1c1-1.8,1.4-3.9,1.3-6.4c-0.1-1.9-0.5-3.2-1-4
			c-0.5-0.7-1.2-1.1-1.9-1.1c0,0-0.1,0-0.1,0c-1.1,0.1-2.1,0.9-3,2.5c-0.9,1.6-1.3,3.7-1.1,6.4c0.1,1.6,0.5,2.9,1.2,3.8
			c0.5,0.6,1,0.9,1.7,0.9C39.5,71.3,39.6,71.3,39.6,71.3z M39.1,60.9c0.6-1,1.2-1.7,1.7-1.7c0,0,0,0,0,0c0.1,0,0.3,0,0.6,0.4
			c0.2,0.3,0.6,1.1,0.7,3.2c0.1,2.2-0.2,4.1-1.1,5.6c-0.3,0.6-0.9,1.3-1.5,1.3c0,0,0,0,0,0c-0.1,0-0.2,0-0.5-0.3
			c-0.5-0.7-0.8-1.7-0.9-3C38,64.1,38.3,62.2,39.1,60.9z"/>
	</g>
	<g id="XMLID_570_">
		<path id="XMLID_719_" class="st1" d="M91.3,55.3c0-0.8-0.4-1.8-1.7-2.7c-0.8-0.5-1.8-0.8-3-0.8h0c-0.2,0-0.4,0-0.6,0
			c-1.9,0.1-3.5,0.8-4.7,2.1c-0.1-0.7-0.4-1.4-1-1.9c-0.5-0.5-1.2-0.7-1.9-0.7c-0.1,0-0.1,0-0.2,0c-0.9,0.1-1.9,0.6-2.9,1.6
			c-0.3,0.3-0.5,0.5-0.8,0.8c-0.2-0.3-0.4-0.5-0.6-0.7c-0.4-0.3-0.9-0.4-1.4-0.4c-0.1,0-0.1,0-0.2,0c-0.9,0.1-2,0.5-3.5,1.4
			c-1.3,0.8-2.6,2-3.8,3.5l-0.1,0.1l0.4-2l0.4-2l-2.1,0.1L61,53.9l-1.2,0.1l-0.2,1.2L58,63c-0.3,1.2-0.9,2.3-1.9,3.3
			c-0.4,0.4-0.7,0.6-0.9,0.8c0.1-0.7,0.3-1.9,0.7-3.7c1-4.8,1-6.2,1-6.9c-0.1-0.9-0.3-1.5-0.8-2c-0.5-0.5-1.1-0.8-1.8-0.8
			c-0.1,0-0.1,0-0.2,0c-0.8,0-1.7,0.4-2.8,1.1c-0.9,0.6-2.1,1.6-3.6,3.1c-0.3-0.6-0.7-1.2-1.1-1.7c-1.1-1.2-2.5-1.8-4.1-1.8h0
			c-0.1,0-0.2,0-0.4,0c-3.4,0.2-6.1,2-8.1,5.4c-1.1,1.9-1.8,3.9-2,6l0,0L30.9,67c-0.5,0.6-1,1.1-1.5,1.5c0.1-0.9,0.4-2.1,0.6-3.8
			l1.4-8c0.5-2.9,0.8-4.8,1.1-5.7c0.2-0.7,0.3-1,0.4-1.1c0,0,0.1,0,0.2,0c0.1,0,0.3,0,0.4,0c0.3,0,0.6,0,1,0.1
			C35.1,50,35.6,50,36,50c0.1,0,0.2,0,0.4,0c1-0.1,1.7-0.4,2.3-0.9c0.6-0.6,0.9-1.4,0.9-2.3c-0.1-0.8-0.5-1.6-1.2-2.1
			c-0.6-0.4-1.3-0.6-2.1-0.6c-0.1,0-0.2,0-0.3,0c-1.9,0.1-3.6,0.7-5.2,1.8c-1.6,1.1-2.9,2.6-3.7,4.5c-0.5,1.2-1,3.3-1.6,6.5L24,65.3
			c-0.8,4.5-0.9,6-0.8,6.7c0.1,0.9,0.4,1.6,0.9,2.2c0.6,0.6,1.3,0.9,2,0.9c0.1,0,0.1,0,0.2,0c1.2-0.1,2.5-0.7,4.1-1.9
			c0.8-0.6,1.6-1.3,2.3-2c0.3,0.6,0.7,1.2,1.2,1.6c1.1,1,2.5,1.6,4.1,1.6c0.1,0,0.3,0,0.5,0c2.7-0.2,5.1-1.6,7.2-4.3
			c2.1-2.6,3-5.6,2.8-8.8l1.1,0.8l0.9-1c0,0,0.1-0.1,0.1-0.1c-0.1,0.7-0.3,1.5-0.5,2.5c-0.5,2.5-0.9,4.1-1,5
			c-0.1,0.7-0.1,1.3-0.1,1.9c0.1,1,0.4,1.8,0.9,2.4c0.5,0.6,1.3,0.9,2.1,0.9c0.1,0,0.1,0,0.2,0c1.1-0.1,2.3-0.5,3.6-1.4
			c0.5-0.3,1-0.7,1.5-1.1c0.2,0.5,0.4,0.9,0.8,1.2c0.6,0.6,1.3,0.8,2.1,0.8c0.1,0,0.1,0,0.2,0c1.7-0.1,3.6-1.6,6.3-4.7l-0.3,1.7
			l-0.4,2l2-0.1l2.8-0.2l1.3-0.1l0.2-1.2l0.6-3.7c0.5-3.1,0.8-4.2,0.9-4.5c0.2-0.6,0.6-1.3,1.1-2.1c0.6-0.8,1.1-1.4,1.5-1.8
			c0.4-0.4,1-0.7,1.8-1c0.6-0.2,1.1-0.5,1.5-0.7c-0.1,0.6-0.2,1.1-0.2,1.7c0.1,1.7,1,3.5,2.7,5.1c1.2,1.2,1.6,1.7,1.8,1.9
			c0.1,0.2,0.2,0.4,0.2,0.5c0,0.2,0,0.4-0.2,0.6c-0.1,0.2-0.3,0.4-0.5,0.5c-0.3,0.2-0.7,0.3-1.1,0.3c0,0-0.1,0-0.1,0
			c-0.1,0-0.2,0-0.2,0c0-0.1,0-0.1,0-0.2c0-0.2,0-0.4,0-0.6c0-0.8-0.4-1.4-1-1.9c-0.5-0.4-1.2-0.7-1.8-0.7c-0.1,0-0.1,0-0.2,0
			c-0.8,0.1-1.6,0.4-2.1,1.1c-0.5,0.6-0.8,1.4-0.7,2.2c0.1,1.4,0.7,2.5,1.9,3.4c0.9,0.7,2.2,1,3.7,1c0.2,0,0.5,0,0.7,0
			c2.2-0.1,4-0.9,5.3-2.2c1.4-1.4,2.1-3,2-4.8c-0.1-1.7-1.1-3.5-2.9-5.2c-1.4-1.3-1.7-1.8-1.8-1.9c-0.2-0.3-0.2-0.5-0.2-0.8
			c0-0.2,0-0.3,0.1-0.4c0.1-0.1,0.2-0.1,0.2-0.1c0.1,0,0.3,0.1,0.6,0.6c0.5,0.6,0.9,0.9,1.3,1.1c0.4,0.2,0.8,0.3,1.3,0.3
			c0.1,0,0.1,0,0.2,0c0.8,0,1.5-0.4,2-0.9C91.1,56.8,91.3,56.1,91.3,55.3z M87.8,56.6c-0.2-0.1-0.5-0.3-0.8-0.8
			c-0.6-0.7-1.2-1.1-1.8-1.1c0,0-0.1,0-0.1,0c-0.5,0-1,0.3-1.3,0.7c-0.4,0.4-0.5,0.9-0.5,1.5c0,0.5,0.2,1,0.5,1.5
			c0.3,0.5,1,1.2,2.1,2.2c1.5,1.4,2.3,2.8,2.4,4.1c0.1,1.3-0.4,2.5-1.5,3.6c-1.1,1.1-2.5,1.7-4.3,1.8c-0.2,0-0.4,0-0.6,0
			c-1.2,0-2.1-0.2-2.8-0.7c-0.8-0.6-1.2-1.3-1.2-2.2c0-0.4,0.1-0.8,0.4-1.1c0.3-0.3,0.6-0.5,1-0.5c0,0,0.1,0,0.1,0
			c0.3,0,0.6,0.1,0.8,0.3c0.3,0.2,0.4,0.5,0.4,0.8c0,0.1,0,0.3,0,0.5c0,0.2,0,0.3,0,0.4c0,0.4,0.2,0.8,0.6,1
			c0.3,0.2,0.7,0.4,1.2,0.4c0.1,0,0.1,0,0.2,0c0.7,0,1.3-0.2,1.8-0.5c0.5-0.3,0.9-0.6,1.1-1.1c0.3-0.5,0.4-1,0.3-1.4
			c0-0.5-0.2-0.9-0.5-1.3c-0.3-0.4-1-1.2-2-2.1c-1.4-1.4-2.1-2.7-2.2-4.1c-0.1-1.2,0.4-2.3,1.3-3.3c0.9-1,2.2-1.5,3.7-1.6
			c0.2,0,0.3,0,0.5,0c0.9,0,1.6,0.2,2.2,0.5c0.6,0.4,1,0.9,1,1.4c0,0.3-0.1,0.6-0.3,0.9c-0.2,0.3-0.5,0.4-0.9,0.4c0,0-0.1,0-0.1,0
			C88.2,56.7,88,56.7,87.8,56.6z M73.5,59.4c-0.6,1-1.1,1.8-1.3,2.5c-0.2,0.7-0.6,2.3-1,4.8l-0.6,3.7l-2.8,0.2l1-5.2
			c0.5-2.5,0.9-4.9,1.3-7.2c0.1-0.6,0.1-0.9,0.1-1.1c0-0.3-0.2-0.4-0.4-0.4c0,0,0,0,0,0c-0.2,0-0.5,0.2-0.8,0.4c-0.4,0.3-1,1-2,2
			l-0.6-0.6c1.1-1.4,2.3-2.4,3.4-3.1c1.2-0.7,2.1-1.1,2.7-1.1c0,0,0.1,0,0.1,0c0.2,0,0.3,0,0.5,0.1c0.1,0.1,0.2,0.2,0.2,0.4
			c0,0.2,0,0.6-0.2,1.3l-0.6,3.5c1.2-2.1,2.5-3.9,4-5.4c0.7-0.7,1.4-1.1,1.9-1.1c0,0,0.1,0,0.1,0c0.3,0,0.6,0.1,0.9,0.3
			c0.3,0.2,0.4,0.5,0.4,0.8c0,0.3-0.1,0.6-0.3,0.9c-0.2,0.3-0.8,0.6-1.8,1c-0.9,0.4-1.7,0.8-2.2,1.3C74.8,57.7,74.2,58.4,73.5,59.4z
			 M59.1,71.3c-0.3-0.3-0.5-0.7-0.5-1.3c0-0.7,0-1.5,0.3-2.7c-1,1.4-2.4,2.6-4,3.6c-1.1,0.7-2,1.1-2.8,1.1c0,0-0.1,0-0.1,0
			c-0.4,0-0.7-0.1-1-0.4c-0.3-0.3-0.4-0.7-0.5-1.4c0-0.5,0-1,0.1-1.6c0.1-0.8,0.4-2.4,1-4.9c0.7-3.1,1-4.9,0.9-5.6
			c0-0.3-0.1-0.5-0.4-0.5c0,0,0,0,0,0c-0.2,0-0.5,0.1-0.9,0.4c-0.4,0.3-1,0.9-1.9,1.8l-0.9-0.6c1.6-1.6,2.8-2.7,3.7-3.2
			c0.9-0.5,1.6-0.8,2.1-0.8c0,0,0,0,0.1,0c0.3,0,0.5,0.1,0.7,0.3c0.2,0.2,0.3,0.5,0.3,1c0.1,0.9-0.3,3-1,6.5
			c-0.6,3.1-0.9,4.9-0.9,5.3c0,0.3,0.1,0.5,0.3,0.7c0.2,0.2,0.3,0.3,0.5,0.3c0,0,0,0,0,0c0.7,0,1.7-0.7,2.9-1.9
			c1.2-1.2,2-2.6,2.3-4.1l1.6-7.9l2.7-0.2L62.4,62c-0.8,3.9-1.2,6.1-1.2,6.7c0,0.2,0.1,0.4,0.2,0.5c0.1,0.1,0.2,0.2,0.4,0.2
			c0,0,0,0,0,0c0.2,0,0.5-0.1,0.7-0.3c0.4-0.3,1.1-1.1,2.2-2.3l0.7,0.7c-2.4,2.8-4.2,4.2-5.4,4.3c0,0-0.1,0-0.1,0
			C59.7,71.7,59.3,71.5,59.1,71.3z M34.9,71.7c-0.5-0.5-0.9-1.1-1.1-1.8c-0.1-0.3-0.2-0.6-0.2-1c0-0.2-0.1-0.4-0.1-0.6
			c0-0.1,0-0.1,0-0.2c0-0.3,0-0.6,0-0.9c0-2.3,0.6-4.5,1.9-6.6c1.7-2.9,4-4.4,6.9-4.6c0.1,0,0.2,0,0.3,0c1.1,0,2.1,0.4,2.9,1.3
			c0.5,0.5,0.8,1.1,1.1,1.8c0.1,0.3,0.2,0.6,0.3,0.9c0.1,0.4,0.1,0.8,0.2,1.3c0.2,2.8-0.7,5.4-2.5,7.7c-1.8,2.3-3.8,3.6-6,3.7
			c-0.1,0-0.2,0-0.4,0C36.7,72.9,35.7,72.5,34.9,71.7z M25.2,73.2c-0.3-0.3-0.4-0.7-0.5-1.2c-0.1-1,0.2-3.1,0.8-6.4l1.5-8.4
			c0.6-3,1.1-5.1,1.5-6.2c0.7-1.6,1.7-2.9,3.1-3.8c1.4-0.9,2.9-1.5,4.5-1.6c0.1,0,0.1,0,0.2,0c0.5,0,0.8,0.1,1.1,0.3
			c0.3,0.2,0.5,0.5,0.5,0.9c0,0.4-0.1,0.7-0.4,1c-0.3,0.3-0.7,0.4-1.3,0.5c-0.1,0-0.2,0-0.3,0c-0.4,0-0.8,0-1.4-0.1
			c-0.4,0-0.8-0.1-1.2-0.1c-0.2,0-0.3,0-0.5,0c-0.5,0-0.9,0.2-1.1,0.4c-0.3,0.3-0.6,1-0.9,2c-0.2,1-0.6,2.9-1.1,5.8l-1.4,8
			c-0.7,4-1,6.1-1,6.3c0,0.4,0.2,0.6,0.4,0.6c0,0,0,0,0,0c0.3,0,0.7-0.2,1.2-0.6c1-0.7,1.9-1.5,2.8-2.6c0,0,0,0,0,0
			c0,0.4,0.1,0.9,0.2,1.3c-0.8,0.9-1.7,1.7-2.6,2.5c-1.3,1-2.4,1.5-3.2,1.6c0,0-0.1,0-0.1,0C25.7,73.6,25.4,73.4,25.2,73.2z
			 M66.6,66.2l-0.7-0.7l-1.2-1.2l-1.1,1.3c-0.1,0.2-0.3,0.3-0.4,0.5c0.2-0.9,0.4-2.1,0.8-3.8l0.7-3.2l0.5,0.5l0.6,0.6l1.2,1.2
			l1.1-1.3c0,0,0.1-0.1,0.1-0.1c-0.3,1.6-0.6,3.3-0.9,5l-0.3,1.5L66.6,66.2z"/>
	</g>
	<g id="XMLID_562_">
		<g id="XMLID_565_">
			<g id="XMLID_264_">
				<path id="XMLID_716_" class="st2" d="M74.2,36.6C74.2,36.6,74.2,36.6,74.2,36.6c-0.4,0.3-0.6,1-1,1.1c0,0-0.1,0-0.1,0
					c-0.4-0.1-0.6-0.9-0.6-1.4c0-0.5-0.2-1.3-1-1.4l0.1,0.2l0.1,0.2c0,0,0,0.1,0,0.1c0,0-0.1,0-0.1,0L71.3,35l-0.1-0.1
					c0,0-0.1,0-0.1,0c-0.1,0-0.1,0-0.2,0l0,0.1l0.4,0.6c0,0,0,0.1,0,0.1c0,0-0.1,0-0.1,0l-0.4-0.7l0,0c-0.1,0-0.2,0-0.3,0l0,0
					l0.5,0.8c0,0,0,0.1,0,0.1c0,0-0.1,0-0.1,0L70.3,35l0,0c0,0,0,0-0.1,0c0,0,0,0-0.1,0c-0.1,0-0.1,0-0.1,0.1c0,0,0,0,0,0l0.5,0.9
					c0,0,0,0.1,0,0.1c0,0-0.1,0-0.1,0l-0.5-0.9c0,0-0.1,0-0.1,0.1c0,0-0.1,0.1-0.1,0.1c0,0,0,0,0,0l0.5,0.8c0,0,0,0.1,0,0.1
					c0,0-0.1,0-0.1,0l-0.5-0.8c0,0-0.1,0.1-0.1,0.1c0,0-0.1,0.1-0.1,0.1c0,0,0,0,0,0l0.4,0.7c0,0,0,0.1,0,0.1c0,0-0.1,0-0.1,0
					l-0.4-0.7c0,0-0.1,0.1-0.1,0.1c0,0,0,0,0,0c0,0,0,0.1-0.1,0.1c0,0,0,0,0,0l0.3,0.5c0,0,0,0.1,0,0.1c0,0-0.1,0-0.1,0l-0.3-0.4
					c0,0.1,0,0.1,0,0.2c0,0.1,0,0.2,0,0.2c0,0.6,0.5,1,0.8,1.2c0.4,0.3,1.1,1,0.9,1.3c-0.1,0.1-0.3,0.2-0.5,0.2
					c-0.3,0-0.6,0-0.9,0.1c0,0-0.1,0-0.1,0c-0.4,0.2-0.2,1.1,0.9,1.5c0.5,0.2,1.1,0.2,1.7,0.1c0.6-0.1,1.1-0.3,1.4-0.5
					c0.6-0.4,1.7-1.3,1.9-2.4C75.3,37,74.6,36.4,74.2,36.6z"/>
			</g>
		</g>
		<g id="XMLID_563_">
			<g id="XMLID_564_">
				<path id="XMLID_713_" class="st9" d="M73.8,36.5C73.8,36.5,73.8,36.5,73.8,36.5c-0.4,0.3-0.6,1-1,1.1c0,0-0.1,0-0.1,0
					c-0.4-0.1-0.6-0.9-0.6-1.4c0-0.5-0.2-1.3-1-1.4l0.1,0.2l0.1,0.2c0,0,0,0.1,0,0.1c0,0-0.1,0-0.1,0l-0.2-0.4l-0.1-0.1
					c0,0-0.1,0-0.1,0c-0.1,0-0.1,0-0.2,0l0,0.1l0.4,0.6c0,0,0,0.1,0,0.1c0,0-0.1,0-0.1,0l-0.4-0.7l0,0c-0.1,0-0.2,0-0.3,0l0,0
					l0.5,0.8c0,0,0,0.1,0,0.1c0,0-0.1,0-0.1,0l-0.5-0.8l0,0c0,0,0,0-0.1,0c0,0,0,0-0.1,0c-0.1,0-0.1,0-0.1,0.1c0,0,0,0,0,0l0.5,0.9
					c0,0,0,0.1,0,0.1c0,0-0.1,0-0.1,0L69.5,35c0,0-0.1,0-0.1,0.1c0,0-0.1,0.1-0.1,0.1c0,0,0,0,0,0l0.5,0.8c0,0,0,0.1,0,0.1
					c0,0-0.1,0-0.1,0l-0.5-0.8c0,0-0.1,0.1-0.1,0.1c0,0-0.1,0.1-0.1,0.1c0,0,0,0,0,0l0.4,0.7c0,0,0,0.1,0,0.1c0,0-0.1,0-0.1,0
					l-0.4-0.7c0,0-0.1,0.1-0.1,0.1c0,0,0,0,0,0c0,0,0,0.1-0.1,0.1c0,0,0,0,0,0l0.3,0.5c0,0,0,0.1,0,0.1c0,0-0.1,0-0.1,0l-0.3-0.4
					c0,0.1,0,0.1,0,0.2c0,0.1,0,0.2,0,0.2c0,0.6,0.5,1,0.8,1.2c0.4,0.3,1.1,1,0.9,1.3c-0.1,0.1-0.3,0.2-0.5,0.2
					c-0.3,0-0.6,0-0.9,0.1c0,0-0.1,0-0.1,0c-0.4,0.2-0.2,1.1,0.9,1.5c0.5,0.2,1.1,0.2,1.7,0.1c0.6-0.1,1.1-0.3,1.4-0.5
					c0.6-0.4,1.7-1.3,1.9-2.4C74.9,36.8,74.2,36.3,73.8,36.5z"/>
			</g>
		</g>
	</g>
	<g id="XMLID_554_">
		<g id="XMLID_557_">
			<g id="XMLID_145_">
				<path id="XMLID_707_" class="st2" d="M32.6,23.6C32.7,23.6,32.7,23.6,32.6,23.6c0.2-0.3,0.1-0.8,0.4-1c0,0,0,0,0.1,0
					c0.3,0,0.7,0.5,0.8,0.8c0.1,0.3,0.5,0.8,1.1,0.7l-0.1-0.1l-0.1-0.1c0,0,0,0,0-0.1c0,0,0,0,0.1,0l0.3,0.2l0.1,0.1
					c0,0,0.1,0,0.1,0c0,0,0.1,0,0.1-0.1l0,0l-0.4-0.3c0,0,0,0,0-0.1c0,0,0,0,0.1,0l0.4,0.4l0,0c0.1,0,0.2-0.1,0.2-0.1l0,0l-0.5-0.4
					c0,0,0,0,0-0.1c0,0,0,0,0.1,0l0.6,0.4l0,0c0,0,0,0,0,0c0,0,0,0,0,0c0,0,0.1-0.1,0.1-0.1c0,0,0,0,0,0l-0.6-0.5c0,0,0,0,0-0.1
					c0,0,0,0,0.1,0l0.6,0.5c0,0,0,0,0.1-0.1c0,0,0-0.1,0-0.1c0,0,0,0,0,0l-0.6-0.4c0,0,0,0,0-0.1c0,0,0,0,0.1,0l0.5,0.4
					c0,0,0-0.1,0-0.1c0,0,0-0.1,0-0.1c0,0,0,0,0,0l-0.5-0.4c0,0,0,0,0-0.1c0,0,0,0,0.1,0l0.4,0.3c0,0,0-0.1,0-0.1c0,0,0,0,0,0
					c0,0,0-0.1,0-0.1c0,0,0,0,0,0l-0.3-0.3c0,0,0,0,0-0.1c0,0,0,0,0.1,0l0.3,0.2c0-0.1,0-0.1,0-0.1c0-0.1,0-0.1,0-0.2
					c-0.2-0.4-0.6-0.6-0.8-0.6c-0.4-0.1-1.1-0.4-1-0.7c0-0.1,0.1-0.2,0.3-0.3c0.2-0.1,0.4-0.2,0.6-0.3c0,0,0,0,0.1-0.1
					c0.2-0.3-0.2-0.8-1-0.8c-0.4,0-0.8,0.2-1.2,0.4c-0.4,0.2-0.6,0.5-0.8,0.7c-0.3,0.4-0.8,1.3-0.7,2.2
					C31.8,23.6,32.4,23.8,32.6,23.6z"/>
			</g>
		</g>
		<g id="XMLID_147_">
			<g id="XMLID_556_">
				<path id="XMLID_696_" class="st9" d="M33,23.5C33,23.5,33,23.5,33,23.5c0.2-0.3,0.1-0.8,0.4-1c0,0,0,0,0.1,0
					c0.3,0,0.7,0.5,0.8,0.8c0.1,0.3,0.5,0.8,1.1,0.7l-0.1-0.1l-0.1-0.1c0,0,0,0,0-0.1c0,0,0,0,0.1,0l0.3,0.2l0.1,0.1
					c0,0,0.1,0,0.1,0c0,0,0.1,0,0.1-0.1l0,0l-0.4-0.3c0,0,0,0,0-0.1c0,0,0,0,0.1,0l0.4,0.4l0,0c0.1,0,0.2-0.1,0.2-0.1l0,0l-0.5-0.4
					c0,0,0,0,0-0.1c0,0,0,0,0.1,0l0.6,0.4l0,0c0,0,0,0,0,0c0,0,0,0,0,0c0,0,0.1-0.1,0.1-0.1c0,0,0,0,0,0L35.6,23c0,0,0,0,0-0.1
					c0,0,0,0,0.1,0l0.6,0.5c0,0,0,0,0.1-0.1c0,0,0-0.1,0-0.1c0,0,0,0,0,0l-0.6-0.4c0,0,0,0,0-0.1c0,0,0,0,0.1,0l0.5,0.4
					c0,0,0-0.1,0-0.1c0,0,0-0.1,0-0.1c0,0,0,0,0,0L36,22.5c0,0,0,0,0-0.1c0,0,0,0,0.1,0l0.4,0.3c0,0,0-0.1,0-0.1c0,0,0,0,0,0
					c0,0,0-0.1,0-0.1c0,0,0,0,0,0l-0.3-0.3c0,0,0,0,0-0.1c0,0,0,0,0.1,0l0.3,0.2c0-0.1,0-0.1,0-0.1c0-0.1,0-0.1,0-0.2
					c-0.2-0.4-0.6-0.6-0.8-0.6c-0.4-0.1-1.1-0.4-1-0.7c0-0.1,0.1-0.2,0.3-0.3c0.2-0.1,0.4-0.2,0.6-0.3c0,0,0,0,0.1-0.1
					c0.2-0.3-0.2-0.8-1-0.8c-0.4,0-0.8,0.2-1.2,0.4c-0.4,0.2-0.6,0.5-0.8,0.7c-0.3,0.4-0.8,1.3-0.7,2.2C32.1,23.6,32.8,23.8,33,23.5
					z"/>
			</g>
		</g>
	</g>
	<g id="XMLID_545_">
		<g id="XMLID_143_">
			<path id="XMLID_667_" class="st2" d="M17.4,42.1c-1.5,0-1.6-1-1.6-1.4c0-1.2,1.1-1.2,1.6-1.2c1.2,0,2,0.5,2,1.3
				C19.3,41.3,19,42.1,17.4,42.1z M17.3,40.3c-0.7,0-0.7,0.1-0.7,0.4c0,0.2,0,0.5,0.8,0.5c0.7,0,1.1-0.1,1.1-0.4
				C18.5,40.3,17.4,40.3,17.3,40.3z"/>
		</g>
	</g>
	<g id="XMLID_536_">
		<g id="XMLID_250_">
			<path id="XMLID_660_" class="st2" d="M24.7,44.9c-0.5,0-0.8-0.3-1-0.5c-0.3-0.4-0.4-0.7-0.3-1.1c0.1-0.3,0.3-0.6,0.6-0.8
				c0.9-0.8,1.8-1,2.4-0.4l0,0c0.3,0.3,0.7,1.1-0.6,2.2C25.5,44.7,25.1,44.9,24.7,44.9z M25.6,42.6c-0.4,0-0.9,0.5-1,0.5
				c-0.5,0.5-0.5,0.6-0.3,0.8c0.1,0.1,0.4,0.4,1-0.2c0.3-0.3,0.5-0.5,0.5-0.7c0.1-0.2,0.1-0.3,0-0.4C25.8,42.6,25.7,42.6,25.6,42.6z
				"/>
		</g>
	</g>
	<g id="XMLID_532_">
		<g id="XMLID_533_">
			<path id="XMLID_652_" class="st7" d="M17,41.9c-1.5,0-1.6-1-1.6-1.4c0-1.2,1.1-1.2,1.6-1.2c1.2,0,2,0.5,2,1.3
				C18.9,41.1,18.7,41.9,17,41.9z M16.9,40.1c-0.7,0-0.7,0.1-0.7,0.4c0,0.2,0,0.5,0.8,0.5c0.7,0,1.1-0.1,1.1-0.4
				C18.1,40.1,17.1,40.1,16.9,40.1z"/>
		</g>
	</g>
	<g id="XMLID_518_">
		<g id="XMLID_523_">
			<g id="XMLID_194_">
				<path id="XMLID_645_" class="st2" d="M49,40.5c-0.5,0-0.8-0.2-1-0.4c-0.4-0.3-0.5-0.7-0.4-1.1c0.1-0.3,0.3-0.6,0.6-0.9
					c0.8-0.9,1.7-1.1,2.3-0.6l0,0c0.4,0.3,0.8,1-0.3,2.3C49.7,40.3,49.3,40.4,49,40.5z M49.6,38.1c-0.4,0-0.8,0.5-0.9,0.6
					c-0.5,0.6-0.4,0.6-0.2,0.8c0.1,0.1,0.4,0.4,1-0.2c0.2-0.3,0.4-0.5,0.5-0.7c0.1-0.2,0-0.3-0.1-0.4C49.8,38.1,49.7,38.1,49.6,38.1
					z"/>
			</g>
		</g>
		<g id="XMLID_519_">
			<g id="XMLID_520_">
				<path id="XMLID_637_" class="st6" d="M48.6,40.3c-0.5,0-0.8-0.2-1-0.4c-0.4-0.3-0.5-0.7-0.4-1.1c0.1-0.3,0.3-0.6,0.6-0.9
					c0.8-0.9,1.7-1.1,2.3-0.6l0,0c0.4,0.3,0.8,1-0.3,2.3C49.3,40.1,48.9,40.3,48.6,40.3z M49.3,37.9c-0.4,0-0.8,0.5-0.9,0.6
					c-0.5,0.6-0.4,0.6-0.2,0.8c0.1,0.1,0.4,0.4,1-0.2c0.2-0.3,0.4-0.5,0.5-0.7c0.1-0.2,0-0.3-0.1-0.4C49.4,37.9,49.4,37.9,49.3,37.9
					z"/>
			</g>
		</g>
	</g>
	<g id="XMLID_514_">
		<g id="XMLID_515_">
			<path id="XMLID_601_" class="st6" d="M24.4,44.7c-0.5,0-0.8-0.3-1-0.5c-0.3-0.4-0.4-0.7-0.3-1.1c0.1-0.3,0.3-0.6,0.6-0.8
				c0.9-0.8,1.8-1,2.4-0.4l0,0c0.3,0.3,0.7,1.1-0.6,2.2C25.1,44.5,24.7,44.7,24.4,44.7z M25.3,42.4c-0.4,0-0.9,0.5-1,0.5
				c-0.5,0.5-0.5,0.6-0.3,0.8c0.1,0.1,0.4,0.4,1-0.2c0.3-0.3,0.5-0.5,0.5-0.7c0.1-0.2,0.1-0.3,0-0.4C25.4,42.4,25.4,42.4,25.3,42.4z
				"/>
		</g>
	</g>
	<g id="XMLID_513_">
		<path id="XMLID_569_" class="st0" d="M40.2,27c0,0-1.1-3.8,3.9-6.9C44.1,20.2,38.3,21.6,40.2,27z"/>
	</g>
	<g id="XMLID_512_">
		<path id="XMLID_567_" class="st0" d="M39.3,25.4c0,0-0.6-3.2,3.7-5.3C43,20,38.2,20.7,39.3,25.4z"/>
	</g>
	<g id="XMLID_511_">
		<path id="XMLID_561_" class="st1" d="M71.8,4.2c0,0,7.1-4.6,12.6-0.2C84.4,4,79.7-2,71.8,4.2z"/>
	</g>
	<g id="XMLID_510_">
		<path id="XMLID_559_" class="st1" d="M71.5,3.5c0,0,5.4-5.2,10.8-2.1C82.3,1.5,76.9-2.7,71.5,3.5z"/>
	</g>
	<g id="XMLID_508_">
		<path id="XMLID_553_" class="st1" d="M81.3,26c0,0,5.9-2.2,9.1-6.6C90.4,19.4,88.1,24.5,81.3,26z"/>
	</g>
	<g id="XMLID_507_">
		<path id="XMLID_550_" class="st1" d="M90.4,20.9c0,0-1.2,3.1-5.9,4.9C84.5,25.8,88.9,25.2,90.4,20.9z"/>
	</g>
	<g id="XMLID_504_">
		<g id="XMLID_506_">
			<path id="XMLID_548_" class="st2" d="M62.7,30.2c0,0-1.7-0.7-3.5,3c0,0-3.6,5.1-3.1,8.2c0.1,0.7,0.7,1.2,1.5,1.2
				c1.5,0,4.2-0.9,7.1-6.1c0,0,2.6-3,0.6-4.8C63.3,30.1,65.2,31.5,62.7,30.2z"/>
		</g>
		<g id="XMLID_505_">
			<path id="XMLID_229_" class="st2" d="M62.6,30.6c-0.1-0.2-0.2-0.5-0.2-0.6c0.1,0.1,0.2,0.3,0.3,0.3c0.4,0.2,0.8,0,1.3,0.6
				l0.4-1.1c0-0.1,0.1-0.2,0.2-0.1c0.1,0,0.2,0.1,0.1,0.2l-0.3,1l0,0c0.5,0.1,0.7,0.6,0.9,0.9c0.3,0.3,0.7,0.4,0.7,0.4
				c0,0-0.4,0.2-0.8,0.1c0,0-0.1,0-0.1,0c-0.3,0-0.5-0.2-0.7-0.3c0.2,0.4,0.2,0.9-0.2,1.3c0-0.1-0.1-0.4-0.1-0.5
				c-0.1-0.1-0.4-0.4-0.4-0.9c-0.1-0.1-0.4,0.4-0.9,0.2c-0.1,0-0.4-0.3-0.5-0.3c0.3-0.4,0.8-0.3,0.9-0.7
				C63.3,31,62.9,30.9,62.6,30.6C62.6,30.6,62.6,30.6,62.6,30.6L62.6,30.6z"/>
		</g>
	</g>
	<g id="XMLID_501_">
		<g id="XMLID_503_">
			<path id="XMLID_540_" class="st10" d="M62.3,29.9c0,0-1.7-0.7-3.5,3c0,0-3.6,5.1-3.1,8.2c0.1,0.7,0.7,1.2,1.5,1.2
				c1.5,0,4.2-0.9,7.1-6.1c0,0,2.6-3,0.6-4.8C63,29.8,64.9,31.2,62.3,29.9z"/>
		</g>
		<g id="XMLID_502_">
			<path id="XMLID_122_" class="st11" d="M62.3,30.3c-0.1-0.2-0.2-0.5-0.2-0.6c0.1,0.1,0.2,0.3,0.3,0.3c0.4,0.2,0.8,0,1.3,0.6
				l0.4-1.1c0-0.1,0.1-0.2,0.2-0.1c0.1,0,0.2,0.1,0.1,0.2l-0.3,1l0,0c0.5,0.1,0.7,0.6,0.9,0.9c0.3,0.3,0.7,0.4,0.7,0.4
				c0,0-0.4,0.2-0.8,0.1c0,0-0.1,0-0.1,0c-0.3,0-0.5-0.2-0.7-0.3c0.2,0.4,0.2,0.9-0.2,1.3c0-0.1-0.1-0.4-0.1-0.5
				c-0.1-0.1-0.4-0.4-0.4-0.9c-0.1-0.1-0.4,0.4-0.9,0.2c-0.1,0-0.4-0.3-0.5-0.3c0.3-0.4,0.8-0.3,0.9-0.7
				C62.9,30.7,62.5,30.6,62.3,30.3C62.3,30.3,62.3,30.3,62.3,30.3L62.3,30.3z"/>
		</g>
	</g>
	<g id="XMLID_500_">
		<polygon id="XMLID_530_" class="st1" points="78.5,25.6 79.4,25.2 79.1,24.5 78.1,24.9 		"/>
	</g>
	<g id="XMLID_499_">
		<polygon id="XMLID_528_" class="st1" points="62.9,13.4 63.8,12.9 64.2,13.6 62.5,14 		"/>
	</g>
	<g id="XMLID_498_">
		<polygon id="XMLID_526_" class="st1" points="5.1,60.5 5.7,59.7 6.8,62.8 6,63.6 		"/>
	</g>
	<g id="XMLID_497_">
		<path id="XMLID_494_" class="st1" d="M11.8,32.3l0.2-1.2l0.8-0.4h0.6c0,0-0.1,0.4-0.2,0.5c-0.1,0.1-1,0.4-1,0.5
			c0,0.1-0.4,0.7-0.4,0.7V32.3z"/>
	</g>
	<g id="XMLID_5_">
		<g id="XMLID_140_">
			<path id="XMLID_492_" class="st2" d="M74.7,51.2H46.8c-2,0-3.6-1.6-3.6-3.6v0c0-2,1.6-3.6,3.6-3.6h27.9c2,0,3.6,1.6,3.6,3.6v0
				C78.3,49.6,76.7,51.2,74.7,51.2z"/>
		</g>
		<g id="XMLID_495_">
			<path id="XMLID_490_" class="st1" d="M74.3,50.9H46.4c-2,0-3.6-1.6-3.6-3.6v0c0-2,1.6-3.6,3.6-3.6h27.9c2,0,3.6,1.6,3.6,3.6v0
				C78,49.2,76.4,50.9,74.3,50.9z"/>
		</g>
		<g id="XMLID_7_">
			<g id="XMLID_488_">
				<path id="XMLID_482_" class="st4" d="M44.7,45.1h1.4c0.8,0,1.1,0.5,1.1,1.3c0,0.9-0.5,1.2-1.2,1.2h-0.4v1.9h-0.9V45.1z
					 M45.9,46.9c0.4,0,0.5-0.2,0.5-0.6c0-0.4,0-0.6-0.5-0.6h-0.3v1.2H45.9z"/>
			</g>
			<g id="XMLID_483_">
				<path id="XMLID_478_" class="st4" d="M47.7,45.1h1.9v0.6h-1v1.2h0.8v0.6h-0.8v1.4h1v0.6h-1.9V45.1z"/>
			</g>
			<g id="XMLID_476_">
				<path id="XMLID_472_" class="st4" d="M50,45.1h1.1c0.9,0,1.4,0.3,1.4,1.1c0,0.5-0.1,0.9-0.5,1.1l0.6,2.1h-0.9l-0.5-2h-0.3v2H50
					V45.1z M51.2,46.9c0.4,0,0.6-0.2,0.6-0.6c0-0.4-0.1-0.6-0.5-0.6h-0.3v1.3H51.2z"/>
			</g>
			<g id="XMLID_127_">
				<path id="XMLID_467_" class="st4" d="M53.2,45.1H55v0.6h-1v1.2h0.8v0.6h-0.8v2h-0.9V45.1z"/>
			</g>
			<g id="XMLID_466_">
				<path id="XMLID_460_" class="st4" d="M55.5,45.1h1.9v0.6h-1v1.2h0.8v0.6h-0.8v1.4h1v0.6h-1.9V45.1z"/>
			</g>
			<g id="XMLID_123_">
				<path id="XMLID_454_" class="st4" d="M57.8,48v-1.6c0-0.9,0.3-1.5,1.3-1.5c0.9,0,1.2,0.5,1.2,1.3v0.4h-0.9v-0.4
					c0-0.3,0-0.6-0.4-0.6c-0.4,0-0.4,0.3-0.4,0.6v2c0,0.4,0.1,0.6,0.4,0.6c0.3,0,0.4-0.3,0.4-0.6v-0.4h0.9v0.4
					c0,0.8-0.3,1.3-1.2,1.3C58,49.5,57.8,48.9,57.8,48z"/>
			</g>
			<g id="XMLID_456_">
				<path id="XMLID_450_" class="st4" d="M61.2,45.7h-0.7v-0.7h2.2v0.7h-0.7v3.7h-0.9V45.7z"/>
			</g>
			<g id="XMLID_434_">
				<path id="XMLID_444_" class="st4" d="M64.5,45.1h1.4c0.8,0,1.1,0.5,1.1,1.3c0,0.9-0.5,1.2-1.2,1.2h-0.4v1.9h-0.9V45.1z
					 M65.7,46.9c0.4,0,0.5-0.2,0.5-0.6c0-0.4,0-0.6-0.5-0.6h-0.3v1.2H65.7z"/>
			</g>
			<g id="XMLID_413_">
				<path id="XMLID_438_" class="st4" d="M67.5,45.1h0.9v4.4h-0.9V45.1z"/>
			</g>
			<g id="XMLID_408_">
				<path id="XMLID_431_" class="st4" d="M68.8,48.9l1.1-3.2h-1.1v-0.6h1.9v0.5l-1.1,3.3h1.1v0.6h-2V48.9z"/>
			</g>
			<g id="XMLID_124_">
				<path id="XMLID_425_" class="st4" d="M71.1,48.9l1.1-3.2h-1.1v-0.6h1.9v0.5L72,48.8h1.1v0.6h-2V48.9z"/>
			</g>
			<g id="XMLID_136_">
				<path id="XMLID_419_" class="st4" d="M74.2,45.1h1l0.8,4.4h-0.8l-0.2-1h-0.7l-0.2,1h-0.8L74.2,45.1z M75,47.9l-0.3-1.8l-0.3,1.8
					H75z"/>
			</g>
		</g>
	</g>
</g>
</svg>
